<svg width="308" height="574" viewBox="0 0 308 574" fill="none" xmlns="http://www.w3.org/2000/svg">
<g clip-path="url(#clip0_1_279)">
<path d="M26.9922 395.071C28.6493 368.638 40.1792 341.183 61.582 324.98C61.9888 323.075 61.5225 321.12 61.7705 319.215C63.5268 305.502 62.4949 291.304 63.6757 277.462C67.4363 233.446 82.9054 171.65 119.341 143.61C129.055 136.128 142.639 130.74 154.913 130.066C156.719 125.482 158.445 120.759 160.45 116.264C163.883 108.584 168.576 100.289 171.374 92.4601C174.043 84.9886 174.748 72.4765 181.436 67.7932C188.123 63.1098 198.79 65.2134 206.133 67.6146C214.11 70.2241 224.211 76.5447 228.895 83.5498C232.04 88.2629 232.011 93.5118 230.185 98.6715C224.837 113.773 216.154 129.143 210.796 144.771C210.29 146.239 209.437 147.926 209.536 149.464C209.665 151.339 214.15 157.709 215.301 160.636C222.505 178.854 219.836 200.713 220.451 219.982C221.473 252.408 225.035 285.033 229.371 317.231C229.738 319.989 229.937 329.782 231.584 331.39C258.93 343.029 272.703 368.896 278.795 396.798C279.777 401.312 279.242 407.147 282 410.957V418.895L281.147 419.54C280.839 420.294 281.077 421.127 281.008 421.871C279.797 435.058 268.515 444.177 255.209 442.708C258.256 454.109 261.599 465.609 263.882 477.198C266.878 492.389 269.974 509.208 263.346 523.764L257.194 534.976C283.082 539.243 281.911 565.844 257.233 572.234C238.162 577.176 203.285 573.624 211.55 545.901C198.641 542.458 185.931 537.496 174.143 531.206C169.499 528.725 165.113 525.53 160.45 523.079C158.366 524.369 159.239 526.463 158.733 528.318C157.979 531.037 156.709 533.627 156.034 536.375C160.985 540.165 165.341 541.009 168.08 547.19C174.946 562.689 159.219 572.443 145.596 573.703C133.58 574.814 108.773 572.81 105.558 558.115C103.564 549.006 107.225 536.653 108.307 527.485C109.686 515.816 111.611 503.483 112.355 491.844C112.534 488.996 112.336 485.91 112.137 483.053C111.502 480.185 108.853 478.945 107.344 476.93C94.7826 460.142 83.8183 442.034 77.5771 421.852L71.4847 436.09C62.346 449.217 46.2915 446.648 36.8949 435.247C29.9789 426.852 27.4586 416.603 26.9823 405.966C26.8236 402.533 26.774 398.455 26.9823 395.051L26.9922 395.071ZM196.667 151.974L213.535 106.331C202.263 106.133 192.658 100.765 183.777 94.4247L163.744 139.879C160.569 141.893 156.917 140.603 153.563 141.109C132.746 144.304 117.545 158.453 106.551 175.46C82.5879 212.52 75.1957 261.08 73.5981 304.242C73.2806 312.785 74.0248 321.388 73.489 329.931C68.0713 334.942 61.5423 339.099 56.7597 344.954C41.6974 363.389 33.4716 400.161 43.0964 422.139C45.6564 427.994 50.3101 433.401 57.236 432.756C61.7705 432.33 63.1002 426.694 64.2313 422.874C67.7141 411.145 67.6447 399.199 72.4471 387.431C74.3126 382.877 80.0676 370.335 86.5867 374.671C90 380.783 83.8084 386.707 82.7764 392.779C81.6354 399.516 89.0673 418.706 91.9944 425.821C106.799 461.888 133.123 489.988 165.589 510.984C185.147 523.625 222.564 545.037 244.305 529.013C262.592 515.538 253.116 485.007 249.008 466.264C242.29 435.604 234.045 405.252 227.704 374.453C217.335 324.117 210.459 274.059 208.554 222.939C207.879 204.989 211.61 173.545 201.499 158.553C199.921 156.221 196.935 154.941 196.677 151.964L196.667 151.974ZM233.38 345.46L252.173 429.363C257.561 430.653 266.66 430.147 268.664 423.906C269.15 422.397 270.232 415.938 270.163 414.42C269.23 393.583 258.295 363.915 241.814 350.411L233.37 345.46H233.38ZM142.282 545.712C141.875 545.315 141.23 543.291 141.289 542.596C144.514 533.944 147.114 525.004 147.937 515.776L124.233 496.279L123.191 512.601C121.752 522.97 119.182 534.123 118.329 544.452C118.1 547.24 117.674 555.803 119.251 557.321C124.957 562.798 146.677 562.689 153.722 559.008C155.24 558.214 159.487 554.424 158.525 552.836C155.101 547.19 145.328 548.758 142.282 545.712ZM223.547 557.708C233.013 561.876 244.185 563.205 254.257 560.318C258.96 558.968 268.337 554.295 262.681 548.828C261.322 547.508 247.688 542.735 245.823 542.874C243.322 543.053 237.726 546.387 233.826 546.823C230.482 547.2 226.841 546.665 223.457 546.873L223.547 557.698V557.708Z" fill="#4F380D"/>
<path d="M26.9922 405.986H26V395.071L26.9922 395.071C26.7839 398.475 26.8335 402.553 26.9922 405.986Z" fill="#CCC4BB"/>
<path d="M282 421.862H281.008C281.077 421.117 280.839 420.284 281.147 419.53L282 418.885V421.862Z" fill="#CCC4BB"/>
<path d="M244.295 529.023C242.856 526.135 240.544 527.316 237.974 525.917C232.011 522.663 220.471 514 214.567 509.635C144.802 458.078 103.425 379.146 110.301 291.343C113.457 251.098 126.058 185.621 156.471 156.925C159.199 154.356 167.207 148.015 170.551 147.192C175.958 145.862 174.222 148.293 175.79 149.494C176.554 150.079 183.271 152.113 184.085 151.865C185.127 151.548 185.851 149.732 187.151 150.01C188.024 150.198 188.808 152.034 189.701 152.48C191.438 153.344 193.819 152.639 195.605 153.919L196.657 151.964C196.915 154.941 199.901 156.221 201.479 158.553C211.59 173.545 207.859 204.999 208.534 222.939C210.449 274.059 217.315 324.117 227.684 374.453C234.025 405.242 242.27 435.594 248.988 466.264C253.096 485.007 262.572 515.528 244.285 529.013L244.295 529.023ZM132.816 254.323C125.195 256.575 121.544 283.564 136.596 281.927C138.7 281.699 141.289 280.637 142.569 278.95C146.022 274.426 146.469 265.357 144.633 260.068C143.065 255.563 137.32 252.984 132.816 254.313V254.323ZM198.433 256.387C196.746 254.779 191.884 254.889 189.671 255.623C183.589 257.637 183.073 268.968 183.966 274.317C185.008 280.518 188.887 282.88 195.158 281.937C203.98 280.617 203.265 261.011 198.433 256.387ZM144.713 304.917C140.813 306.068 140.813 311.664 142.629 314.671C151.063 328.651 176.177 329.356 188.242 319.672C191.973 316.675 195.039 313.54 193.541 308.4C191.209 300.402 181.029 312.389 177.358 313.748C172.039 315.722 162.732 315.206 157.622 312.567C153.107 310.225 149.555 303.478 144.703 304.917H144.713Z" fill="#FDDE68"/>
<path d="M244.295 529.023C222.554 545.047 185.137 523.635 165.58 510.994C133.103 489.998 106.779 461.908 91.9845 425.831C89.0673 418.716 81.6254 399.517 82.7665 392.789C83.7984 386.707 89.9901 380.783 86.5767 374.681C80.0577 370.345 74.3026 382.877 72.4372 387.441C67.6248 399.209 67.6943 411.155 64.2214 422.884C63.0902 426.704 61.7606 432.34 57.226 432.766C50.3002 433.421 45.6465 428.004 43.0865 422.149C33.4617 400.181 41.6874 363.399 56.7498 344.964C61.5324 339.109 68.0614 334.952 73.4791 329.941C74.0149 321.398 73.2707 312.795 73.5882 304.252C75.1857 261.09 82.5681 212.53 106.541 175.47C117.535 158.463 132.736 144.314 153.553 141.119C156.907 140.603 160.559 141.893 163.734 139.889L183.767 94.4346C192.648 100.785 202.253 106.153 213.525 106.341L196.657 151.984L195.605 153.939C193.809 152.659 191.438 153.363 189.701 152.5C188.808 152.054 188.024 150.218 187.151 150.029C185.851 149.742 185.127 151.567 184.085 151.885C183.271 152.133 176.554 150.099 175.79 149.513C174.222 148.313 175.958 145.882 170.551 147.211C167.207 148.035 159.199 154.365 156.471 156.945C126.058 185.651 113.457 251.128 110.301 291.363C103.425 379.166 144.802 458.098 214.567 509.654C220.471 514.02 232.011 522.672 237.974 525.937C240.544 527.346 242.856 526.155 244.295 529.043L244.295 529.023Z" fill="#F9CE2A"/>
<path d="M233.38 345.46L241.824 350.411C258.305 363.915 269.24 393.583 270.172 414.42C270.242 415.938 269.15 422.397 268.674 423.906C266.67 430.147 257.571 430.663 252.183 429.363L233.39 345.46L233.38 345.46Z" fill="#F9CE2A"/>
<path d="M142.282 545.712C145.328 548.758 155.091 547.19 158.525 552.836C159.487 554.424 155.24 558.214 153.722 559.008C146.677 562.689 124.967 562.808 119.251 557.321C117.674 555.803 118.091 547.24 118.329 544.452C119.192 534.123 121.752 522.98 123.191 512.601L124.233 496.279L147.937 515.776C147.114 525.004 144.504 533.944 141.289 542.596C141.23 543.281 141.875 545.305 142.282 545.712Z" fill="#F9CE2A"/>
<path d="M223.547 557.708L223.457 546.883C226.841 546.675 230.482 547.21 233.826 546.833C237.726 546.387 243.322 543.063 245.823 542.884C247.688 542.745 261.322 547.528 262.681 548.838C268.337 554.295 258.96 558.978 254.257 560.328C244.176 563.205 233.013 561.886 223.547 557.718L223.547 557.708Z" fill="#F9CE2A"/>
<path d="M144.713 304.917C149.565 303.478 153.107 310.225 157.632 312.567C162.742 315.216 172.049 315.722 177.367 313.748C181.039 312.389 191.219 300.392 193.551 308.4C195.049 313.54 191.983 316.675 188.252 319.672C176.177 329.356 151.063 328.651 142.639 314.671C140.823 311.664 140.823 306.068 144.722 304.917H144.713Z" fill="#4F380D"/>
<path d="M132.816 254.323C137.32 252.993 143.065 255.563 144.633 260.078C146.469 265.367 146.022 274.436 142.569 278.96C141.289 280.647 138.7 281.699 136.596 281.937C121.553 283.574 125.195 256.585 132.816 254.333V254.323Z" fill="#4F380D"/>
<path d="M198.433 256.387C203.265 261.001 203.98 280.617 195.158 281.937C188.887 282.88 185.008 280.508 183.966 274.317C183.063 268.968 183.579 257.637 189.671 255.623C191.884 254.889 196.746 254.779 198.433 256.387Z" fill="#4F380D"/>
</g>
<defs>
<clipPath id="clip0_1_279">
<rect width="308" height="574" fill="white"/>
</clipPath>
</defs>
</svg>
