<svg width="809" height="809" viewBox="0 0 809 809" fill="none" xmlns="http://www.w3.org/2000/svg">
<path d="M277.992 480.406C279.649 453.973 291.179 426.518 312.582 410.314C312.989 408.409 312.522 406.455 312.771 404.55C314.527 390.837 313.495 376.638 314.676 362.796C318.436 318.781 333.905 256.985 370.341 228.944C380.055 221.463 393.639 216.075 405.913 215.4C407.719 210.816 409.445 206.093 411.45 201.598C414.883 193.918 419.576 185.623 422.374 177.795C425.043 170.323 425.748 157.811 432.436 153.128C439.123 148.444 449.79 150.548 457.133 152.949C465.11 155.559 475.211 161.879 479.895 168.884C483.04 173.597 483.011 178.846 481.185 184.006C475.837 199.108 467.154 214.477 461.796 230.105C461.29 231.574 460.437 233.26 460.536 234.798C460.665 236.674 465.15 243.044 466.301 245.971C473.505 264.188 470.836 286.047 471.451 305.316C472.473 337.743 476.035 370.367 480.371 402.565C480.738 405.324 480.937 415.117 482.584 416.724C509.93 428.363 523.703 454.231 529.795 482.132C530.777 486.647 530.242 492.481 533 496.291V504.229L532.147 504.874C531.839 505.628 532.077 506.462 532.008 507.206C530.797 520.393 519.515 529.511 506.209 528.043C509.256 539.444 512.599 550.944 514.882 562.533C517.878 577.724 520.974 594.542 514.346 609.098L508.194 620.311C534.082 624.577 532.911 651.179 508.233 657.569C489.162 662.51 454.285 658.958 462.55 631.235C449.641 627.792 436.931 622.831 425.143 616.54C420.499 614.06 416.113 610.865 411.45 608.414C409.366 609.704 410.239 611.797 409.733 613.653C408.979 616.371 407.709 618.961 407.034 621.71C411.985 625.5 416.341 626.343 419.08 632.525C425.946 648.024 410.219 657.777 396.596 659.038C384.58 660.149 359.773 658.145 356.558 643.45C354.564 634.341 358.225 621.988 359.307 612.819C360.686 601.151 362.611 588.817 363.355 577.178C363.534 574.331 363.336 571.245 363.137 568.387C362.502 565.52 359.853 564.279 358.344 562.265C345.783 545.476 334.818 527.368 328.577 507.186L322.485 521.425C313.346 534.552 297.291 531.982 287.895 520.581C280.979 512.187 278.459 501.937 277.982 491.301C277.824 487.867 277.774 483.789 277.982 480.386L277.992 480.406ZM447.667 237.309L464.535 191.666C453.263 191.468 443.658 186.1 434.777 179.759L414.744 225.213C411.569 227.228 407.917 225.938 404.563 226.444C383.746 229.639 368.545 243.788 357.551 260.795C333.588 297.855 326.196 346.415 324.598 389.577C324.281 398.12 325.025 406.723 324.489 415.266C319.071 420.276 312.542 424.434 307.76 430.288C292.697 448.724 284.472 485.496 294.096 507.474C296.656 513.328 301.31 518.736 308.236 518.091C312.771 517.664 314.1 512.028 315.231 508.208C318.714 496.48 318.645 484.533 323.447 472.766C325.313 468.211 331.068 455.669 337.587 460.005C341 466.118 334.808 472.041 333.776 478.114C332.635 484.851 340.067 504.041 342.994 511.155C357.799 547.223 384.123 575.323 416.589 596.318C436.147 608.96 473.564 630.372 495.305 614.347C513.592 600.873 504.116 570.342 500.008 551.599C493.29 520.939 485.045 490.586 478.704 459.787C468.335 409.451 461.459 359.393 459.554 308.273C458.879 290.324 462.61 258.88 452.499 243.887C450.921 241.555 447.935 240.275 447.677 237.299L447.667 237.309ZM484.38 430.794L503.173 514.697C508.561 515.987 517.66 515.481 519.664 509.24C520.15 507.732 521.232 501.272 521.163 499.754C520.23 478.917 509.295 449.25 492.814 435.745L484.37 430.794H484.38ZM393.282 631.047C392.875 630.65 392.23 628.626 392.289 627.931C395.514 619.279 398.114 610.339 398.937 601.111L375.233 581.614L374.191 597.936C372.752 608.305 370.182 619.457 369.329 629.786C369.1 632.575 368.674 641.138 370.251 642.656C375.957 648.133 397.677 648.024 404.722 644.343C406.24 643.549 410.487 639.758 409.525 638.171C406.101 632.525 396.328 634.093 393.282 631.047ZM474.547 643.043C484.013 647.21 495.185 648.54 505.257 645.652C509.96 644.303 519.337 639.629 513.681 634.162C512.322 632.843 498.688 628.07 496.823 628.209C494.322 628.387 488.726 631.721 484.826 632.158C481.482 632.535 477.841 631.999 474.457 632.208L474.547 643.033V643.043Z" fill="#4F380D"/>
<path d="M277.992 491.32H277V480.406H277.992C277.784 483.809 277.833 487.887 277.992 491.32Z" fill="#CCC4BB"/>
<path d="M533 507.196H532.008C532.077 506.452 531.839 505.619 532.147 504.864L533 504.219V507.196Z" fill="#CCC4BB"/>
<path d="M495.295 614.357C493.856 611.47 491.544 612.651 488.974 611.252C483.011 607.997 471.471 599.335 465.567 594.969C395.802 543.413 354.425 464.481 361.301 376.678C364.457 336.433 377.058 270.955 407.471 242.26C410.199 239.69 418.207 233.35 421.551 232.526C426.958 231.197 425.222 233.628 426.79 234.828C427.554 235.414 434.271 237.448 435.085 237.2C436.127 236.882 436.851 235.066 438.151 235.344C439.024 235.533 439.808 237.368 440.701 237.815C442.438 238.678 444.819 237.974 446.605 239.254L447.657 237.299C447.915 240.276 450.901 241.556 452.479 243.887C462.59 258.88 458.859 290.334 459.534 308.273C461.449 359.393 468.315 409.451 478.684 459.787C485.025 490.576 493.27 520.929 499.988 551.599C504.096 570.342 513.572 600.863 495.285 614.347L495.295 614.357ZM383.815 339.658C376.195 341.91 372.544 368.899 387.596 367.262C389.7 367.033 392.289 365.972 393.569 364.285C397.022 359.76 397.469 350.691 395.633 345.403C394.065 340.898 388.32 338.318 383.815 339.648V339.658ZM449.433 341.721C447.746 340.114 442.884 340.223 440.671 340.957C434.589 342.972 434.073 354.303 434.966 359.651C436.008 365.853 439.887 368.214 446.158 367.271C454.98 365.952 454.265 346.345 449.433 341.721ZM395.713 390.252C391.813 391.403 391.813 396.999 393.629 400.005C402.063 413.986 427.177 414.69 439.242 405.006C442.973 402.01 446.039 398.874 444.541 393.734C442.209 385.737 432.029 397.723 428.358 399.082C423.039 401.057 413.732 400.541 408.622 397.902C404.107 395.56 400.555 388.813 395.703 390.252H395.713Z" fill="#FDDE68"/>
<path d="M495.295 614.357C473.554 630.382 436.137 608.969 416.58 596.328C384.103 575.333 357.779 547.243 342.984 511.165C340.067 504.051 332.625 484.851 333.767 478.124C334.798 472.041 340.99 466.118 337.577 460.015C331.058 455.679 325.303 468.211 323.437 472.776C318.625 484.543 318.694 496.49 315.221 508.218C314.09 512.038 312.761 517.674 308.226 518.101C301.3 518.756 296.647 513.338 294.087 507.484C284.462 485.516 292.687 448.734 307.75 430.298C312.532 424.444 319.061 420.286 324.479 415.276C325.015 406.733 324.271 398.13 324.588 389.587C326.186 346.425 333.568 297.865 357.541 260.805C368.535 243.798 383.736 229.649 404.553 226.454C407.907 225.938 411.559 227.228 414.734 225.223L434.767 179.769C443.648 186.119 453.253 191.487 464.525 191.676L447.657 237.319L446.605 239.273C444.809 237.993 442.438 238.698 440.701 237.835C439.808 237.388 439.024 235.553 438.151 235.364C436.851 235.076 436.127 236.902 435.085 237.219C434.271 237.468 427.554 235.433 426.79 234.848C425.222 233.647 426.958 231.216 421.551 232.546C418.207 233.37 410.199 239.7 407.471 242.28C377.058 270.985 364.457 336.463 361.301 376.698C354.425 464.5 395.802 543.432 465.567 594.989C471.471 599.355 483.011 608.007 488.974 611.271C491.544 612.68 493.856 611.49 495.295 614.377V614.357Z" fill="#F9CE2A"/>
<path d="M484.38 430.794L492.824 435.745C509.305 449.25 520.24 478.917 521.172 499.754C521.242 501.272 520.15 507.732 519.674 509.24C517.67 515.481 508.571 515.997 503.183 514.697L484.39 430.794H484.38Z" fill="#F9CE2A"/>
<path d="M393.282 631.047C396.328 634.093 406.091 632.525 409.525 638.171C410.487 639.758 406.24 643.549 404.722 644.342C397.677 648.024 375.967 648.143 370.251 642.656C368.674 641.138 369.091 632.575 369.329 629.786C370.192 619.457 372.752 608.315 374.191 597.936L375.233 581.614L398.937 601.111C398.114 610.339 395.504 619.279 392.289 627.931C392.23 628.616 392.875 630.64 393.282 631.047Z" fill="#F9CE2A"/>
<path d="M474.547 643.043L474.457 632.217C477.841 632.009 481.482 632.545 484.826 632.168C488.726 631.721 494.322 628.397 496.823 628.219C498.688 628.08 512.322 632.862 513.681 634.172C519.337 639.629 509.96 644.313 505.257 645.662C495.175 648.54 484.013 647.22 474.547 643.053V643.043Z" fill="#F9CE2A"/>
<path d="M395.713 390.252C400.565 388.813 404.107 395.56 408.632 397.902C413.742 400.551 423.049 401.057 428.367 399.082C432.039 397.723 442.219 385.727 444.551 393.734C446.049 398.874 442.983 402.01 439.252 405.006C427.177 414.69 402.063 413.986 393.639 400.005C391.823 396.999 391.823 391.403 395.722 390.252H395.713Z" fill="#4F380D"/>
<path d="M383.816 339.658C388.32 338.328 394.065 340.898 395.633 345.412C397.469 350.701 397.022 359.77 393.569 364.295C392.289 365.981 389.7 367.033 387.596 367.271C372.553 368.909 376.195 341.92 383.816 339.667V339.658Z" fill="#4F380D"/>
<path d="M449.433 341.721C454.265 346.335 454.98 365.952 446.158 367.271C439.887 368.214 436.008 365.843 434.966 359.651C434.063 354.303 434.579 342.972 440.671 340.957C442.884 340.223 447.746 340.114 449.433 341.721Z" fill="#4F380D"/>
<path d="M404.092 236.974C403.712 236.894 403.307 236.919 402.927 236.839L403.063 235.666C403.44 235.769 403.847 235.721 404.228 235.8L404.092 236.974Z" fill="#483018"/>
<path d="M391.128 165.309C400.766 160.655 411.052 159.072 421.136 155.671C427.194 149.212 437.909 111.644 442.55 108.862C450.552 104.067 483.659 114.802 489.355 122.513C497.946 138.359 479.149 153.42 475.875 168.371C485.858 177.79 492.967 188.59 496.372 202.124C498.273 209.682 497.708 217.43 500.465 224.42C511.715 229.003 524.298 234.001 533.315 242.381C536.929 245.736 540.035 249.805 540.112 255.059C537.653 258.164 538.5 262.068 536.546 266.004C530.811 277.531 507.153 282.885 495.355 284.982C462.327 290.822 428.123 286.822 395.467 281.169C395.086 281.101 394.684 281.103 394.303 281.035L372.595 274.411C355.541 268.266 338.616 261.208 324.799 249.218C324.435 248.795 324.095 248.363 323.77 247.909C316.851 237.096 318.686 227.758 327.16 218.569C327.591 218.215 328.01 217.859 328.461 217.53L358.469 207.892C362.999 198.212 367.813 188.624 374.11 179.992C379.47 172.631 382.786 169.364 391.151 165.312L391.128 165.309ZM479.521 125.586L456.715 118.765C462.671 124.828 469.148 127.206 477.516 127.721C479.777 127.864 479.327 128.085 479.51 125.585L479.521 125.586ZM428.807 166.095C425.672 170.24 415.829 169.317 410.6 170.544C397.422 173.659 387.091 183.692 378.419 193.572C375.985 196.347 370.578 201.264 372.404 204.769C370.568 208.91 367.181 216.974 369.34 221.065C370.308 222.902 375.304 226.452 377.444 226.723L378.251 225.663C379.4 226.45 380.341 227.7 381.475 228.414C389.899 233.752 393.01 234.718 402.927 236.839L403.508 237.941C410.102 238.382 417.117 243.046 423.757 240.436C424.92 240.594 426.088 240.693 427.252 240.839C427.915 244.091 429.504 243.109 431.676 243.206C446.561 243.915 462.951 245.999 477.597 242.233C490.894 238.81 489.686 236.292 489.045 223.957C488.649 216.359 486.786 209.805 485.964 202.408L484.686 203.462C484.001 203.466 479.826 192.708 479.054 190.918C479.025 190.855 480.039 190.461 479.735 189.82C476.304 182.537 468.782 176.947 462.172 172.758C462.022 166.401 474.787 150.62 477.042 143.056C477.639 141.055 476.704 141.185 476.586 140.672C476.491 140.268 476.857 139.752 476.721 139.498L475.183 138.107C470.152 138.941 464.699 134.042 460.55 136.44C456.023 134.763 452.431 131.625 448.414 129.722C447.329 129.204 446.334 130.052 445.951 129.996C445.892 129.989 445.25 127.584 444.857 129.346L428.798 166.07L428.807 166.095ZM503.018 238.891L502.135 236.423C500.966 239.594 499.773 243.987 497.07 246.137C491.737 250.408 471.922 253.648 464.724 254.149C437.163 256.089 409.087 250.847 383.26 241.357C381.607 240.75 379.105 238.808 377.655 241.042C368.912 237.023 359.674 231.888 355.363 222.923C348.948 222.36 343.412 225.728 337.837 228.116C337.701 228.172 337.472 226.469 335.475 228.331C330.752 232.732 332.239 236.924 336.345 241.026C339.339 244.024 345.639 248.129 349.373 250.856C382.362 274.969 473.099 286.263 511.065 269.969C513.685 268.845 514.456 267.792 516.343 266.583C522.054 262.914 524.075 262.589 525.852 255.789C525.896 255.616 527.247 255.261 527.06 254.324C526.864 252.755 525.377 252.547 525.094 252.134C524.804 251.684 524.406 251.246 524.065 250.826C520.793 246.761 517.609 243.777 512.862 241.135C511.265 240.249 509.156 238.174 507.543 240.592C506.099 239.913 504.529 239.399 503.019 238.88L503.018 238.891Z" fill="#483018"/>
<path d="M476.085 288.107L474.784 289.146C469.45 289.445 464.443 288.545 459.507 288.57L457.042 289.474C436.076 289.192 415.877 285.954 395.308 282.34L395.444 281.167C428.111 286.821 462.304 290.819 495.331 284.979C507.128 282.894 530.788 277.529 536.523 266.001C538.488 262.066 537.64 258.174 540.089 255.056C540.266 266.601 532.848 273.902 523.093 278.542C507.032 286.177 493.214 286.958 476.074 288.094L476.085 288.107Z" fill="#241D15"/>
<path d="M391.128 165.309C399.604 159.985 410.38 155.795 420.481 155.512L440.219 109.937C442.439 106.863 445.755 105.641 449.483 105.56C459.671 105.334 483.882 113.591 490.041 121.985C491.448 123.908 494.079 130.456 494.065 132.714L479.014 163.275C475.571 170.595 483.178 173.615 486.471 178.11C495.014 189.777 501.844 208.501 500.183 223.079C512.48 226.058 524.863 232.996 533.324 242.405C524.307 234.026 511.724 229.027 500.474 224.445C497.73 217.444 498.293 209.708 496.381 202.149C492.976 188.614 485.867 177.815 475.884 168.396C479.16 153.433 497.955 138.384 489.363 122.537C483.668 114.827 450.561 104.091 442.559 108.887C437.918 111.669 427.203 149.236 421.145 155.696C411.061 159.097 400.775 160.679 391.137 165.333L391.128 165.309Z" fill="#241D15"/>
<path d="M394.279 281.032C393.134 280.828 391.931 280.82 390.785 280.628C389.257 280.368 387.65 280.385 386.126 280.09L385.468 279.039L382.767 278.512C362.456 273.489 338.717 265.335 324.776 249.215C338.593 261.206 355.517 268.263 372.571 274.409L394.279 281.032Z" fill="#241D15"/>
<path d="M323.747 247.906C323.198 247.141 321.989 246.669 321.178 245.207C314.809 233.934 317.498 226.396 327.137 218.566C318.663 227.755 316.828 237.093 323.747 247.906Z" fill="#241D15"/>
<path d="M328.437 217.528C337.196 211.191 347.014 208.353 357.741 207.654C361.22 197.674 366.399 187.177 374.087 179.99C367.8 188.635 362.975 198.21 358.446 207.89L328.437 217.528Z" fill="#241D15"/>
<path d="M386.126 280.09C383.598 279.596 382.962 278.559 382.767 278.513L385.468 279.039L386.126 280.09Z" fill="#56402F"/>
<path d="M459.507 288.569C459.377 288.566 459.292 289.508 457.041 289.474L459.507 288.569Z" fill="#56402F"/>
<path d="M474.784 289.146L476.085 288.107C476.002 288.109 475.818 289.087 474.784 289.146Z" fill="#9A8872"/>
<path d="M460.559 136.465C466.026 138.488 470.916 139.077 476.73 139.523C476.866 139.777 476.5 140.293 476.595 140.697L460.267 171.372C460.508 174.492 468.666 177.647 470.815 179.988L479.052 190.93C479.825 192.72 484 203.478 484.685 203.473C486.493 214.79 488.829 226.548 486.421 237.984C467.426 243.841 446.789 243.371 427.252 240.839C426.088 240.693 424.92 240.594 423.757 240.436C418.251 239.668 413.011 238.444 407.586 237.378L406.929 236.326C406.084 235.872 405.114 235.998 404.228 235.8C403.847 235.721 403.44 235.769 403.063 235.666C395.719 233.747 388.677 230.745 381.475 228.414C380.341 227.7 379.4 226.45 378.251 225.663C375.693 223.904 372.212 222.36 369.34 221.065C367.181 216.974 370.568 208.91 372.404 204.769C374.127 200.889 377.152 197.695 378.419 193.572C387.091 183.692 397.422 173.659 410.6 170.544C415.83 169.305 425.672 170.24 428.807 166.095C430.941 163.262 434.444 156.745 436.232 153.324C439.907 146.34 443.755 137.556 445.96 130.021C446.344 130.065 447.338 129.229 448.423 129.747C452.452 131.651 456.032 134.788 460.559 136.465Z" fill="#F4BD34"/>
<path d="M507.541 240.603C513.713 243.481 519.115 245.758 524.064 250.837C524.405 251.257 524.803 251.696 525.093 252.145L525.851 255.801C524.074 262.6 522.053 262.926 516.341 266.594C504.648 271.57 491.668 273.983 479.036 275.032C444.534 277.896 396.879 271.402 364.769 258.272C359.764 256.231 354.768 252.383 349.372 250.867C345.638 248.141 339.338 244.035 336.344 241.037C335.078 236.871 332.672 230.218 337.835 228.127C343.411 225.739 348.948 222.359 355.362 222.934C359.672 231.9 368.911 237.035 377.653 241.054C403.902 253.125 447.225 259.309 475.723 254.67C486.309 252.944 498.54 249.755 503.018 238.891C504.528 239.41 506.097 239.925 507.541 240.603Z" fill="#F4BD34"/>
<path d="M349.372 250.868C354.768 252.384 359.764 256.232 364.769 258.273C396.881 271.391 444.523 277.895 479.036 275.033C491.668 273.984 504.648 271.571 516.341 266.595C514.455 267.804 513.684 268.857 511.063 269.981C473.099 286.264 382.362 274.969 349.372 250.868Z" fill="#241D15"/>
<path d="M503.018 238.891C498.54 249.755 486.32 252.957 475.723 254.67C447.226 259.298 403.902 253.126 377.653 241.054C379.104 238.819 381.617 240.763 383.259 241.369C409.085 250.859 437.162 256.101 464.722 254.16C471.922 253.649 491.737 250.408 497.069 246.148C499.773 243.987 500.964 239.606 502.133 236.434L503.017 238.903L503.018 238.891Z" fill="#241D15"/>
<path d="M427.252 240.839C446.787 243.382 467.426 243.841 486.421 237.984C488.829 226.548 486.493 214.79 484.685 203.473L485.963 202.42C486.784 209.817 488.647 216.371 489.044 223.969C489.683 236.316 490.891 238.834 477.596 242.245C462.961 246.012 446.561 243.915 431.675 243.218C429.504 243.109 427.915 244.091 427.25 240.851L427.252 240.839Z" fill="#241D15"/>
<path d="M479.521 125.586C479.339 128.086 479.789 127.865 477.527 127.722C469.159 127.207 462.683 124.829 456.726 118.766L479.533 125.587L479.521 125.586Z" fill="#7B4928"/>
<path d="M403.063 235.666L402.927 236.839C393.01 234.718 389.899 233.752 381.475 228.414C388.677 230.745 395.719 233.747 403.063 235.666Z" fill="#241D15"/>
<path d="M407.586 237.377C413.011 238.444 418.251 239.668 423.758 240.435C417.118 243.046 410.101 238.393 403.508 237.941L402.927 236.839C403.308 236.919 403.712 236.894 404.092 236.974C405.233 237.213 406.444 237.15 407.586 237.377Z" fill="#241D15"/>
<path d="M445.96 130.021C443.767 137.557 439.907 146.34 436.232 153.324C434.434 156.732 430.941 163.261 428.807 166.095L444.866 129.371C445.26 127.597 445.903 130.002 445.96 130.021Z" fill="#241D15"/>
<path d="M476.73 139.523C470.916 139.077 466.026 138.488 460.559 136.465C464.708 134.066 470.173 138.967 475.192 138.132L476.73 139.523Z" fill="#241D15"/>
<path d="M476.595 140.697C476.714 141.198 477.65 141.068 477.051 143.08C474.796 150.645 462.029 166.438 462.181 172.782C468.791 176.971 476.313 182.562 479.744 189.844C480.048 190.486 479.034 190.88 479.062 190.943L470.825 180.001C468.688 177.661 460.519 174.505 460.277 171.385L476.605 140.71L476.595 140.697Z" fill="#241D15"/>
<path d="M337.835 228.127C332.672 230.218 335.078 236.871 336.344 241.037C332.238 236.935 330.739 232.742 335.474 228.342C337.471 226.48 337.711 228.184 337.835 228.127Z" fill="#241D15"/>
<path d="M524.064 250.837C519.115 245.758 513.713 243.481 507.542 240.603C509.153 238.197 511.275 240.262 512.861 241.146C517.608 243.788 520.793 246.761 524.064 250.837Z" fill="#241D15"/>
<path d="M378.252 225.663L377.444 226.723C375.304 226.452 370.308 222.901 369.34 221.065C372.212 222.36 375.693 223.904 378.252 225.663Z" fill="#241D15"/>
<path d="M372.404 204.769C370.578 201.264 375.985 196.347 378.419 193.572C377.152 197.695 374.127 200.889 372.404 204.769Z" fill="#241D15"/>
<path d="M525.851 255.801L525.093 252.145C525.374 252.57 526.863 252.766 527.059 254.335C527.259 255.262 525.894 255.627 525.851 255.801Z" fill="#241D15"/>
<path d="M407.586 237.378C406.444 237.151 405.233 237.213 404.092 236.974L404.228 235.8C405.114 235.998 406.084 235.872 406.929 236.327L407.586 237.378Z" fill="#7B4928"/>
</svg>
