Head=default, accessory=bowtie.svg

<svg width="809" height="809" viewBox="0 0 809 809" fill="none" xmlns="http://www.w3.org/2000/svg">
<g clip-path="url(#clip0_7_217)">
<path d="M277.992 480.406C279.649 453.973 291.179 426.518 312.582 410.314C312.989 408.409 312.522 406.455 312.771 404.55C314.527 390.837 313.495 376.638 314.676 362.796C318.436 318.781 333.905 256.985 370.341 228.944C380.055 221.463 393.639 216.075 405.913 215.4C407.719 210.816 409.445 206.093 411.45 201.598C414.883 193.918 419.576 185.623 422.374 177.795C425.043 170.323 425.748 157.811 432.436 153.128C439.123 148.444 449.79 150.548 457.133 152.949C465.11 155.559 475.211 161.879 479.895 168.884C483.04 173.597 483.011 178.846 481.185 184.006C475.837 199.108 467.154 214.477 461.796 230.105C461.29 231.574 460.437 233.26 460.536 234.798C460.665 236.674 465.15 243.044 466.301 245.971C473.505 264.188 470.836 286.047 471.451 305.316C472.473 337.743 476.035 370.367 480.371 402.565C480.738 405.324 480.937 415.117 482.584 416.724C509.93 428.363 523.703 454.231 529.795 482.132C530.777 486.647 530.242 492.481 533 496.291V504.229L532.147 504.874C531.839 505.628 532.077 506.462 532.008 507.206C530.797 520.393 519.515 529.511 506.209 528.043C509.255 539.444 512.599 550.944 514.882 562.533C517.878 577.724 520.974 594.542 514.346 609.098L508.194 620.311C534.082 624.577 532.911 651.179 508.233 657.569C489.162 662.51 454.285 658.958 462.55 631.235C449.641 627.792 436.931 622.831 425.143 616.54C420.499 614.06 416.113 610.865 411.45 608.414C409.366 609.704 410.239 611.797 409.733 613.653C408.979 616.371 407.709 618.961 407.034 621.71C411.985 625.5 416.341 626.343 419.08 632.525C425.946 648.024 410.219 657.777 396.596 659.037C384.58 660.149 359.773 658.144 356.558 643.449C354.564 634.341 358.225 621.987 359.307 612.819C360.686 601.151 362.611 588.817 363.355 577.178C363.534 574.331 363.335 571.245 363.137 568.387C362.502 565.52 359.853 564.279 358.344 562.265C345.783 545.476 334.818 527.368 328.577 507.186L322.485 521.425C313.346 534.552 297.291 531.982 287.895 520.581C280.979 512.187 278.459 501.937 277.982 491.3C277.824 487.867 277.774 483.789 277.982 480.386L277.992 480.406ZM447.667 237.309L464.535 191.666C453.263 191.468 443.658 186.1 434.777 179.759L414.744 225.213C411.569 227.228 407.917 225.938 404.563 226.444C383.746 229.639 368.545 243.788 357.551 260.795C333.588 297.855 326.196 346.415 324.598 389.577C324.281 398.12 325.025 406.723 324.489 415.266C319.071 420.276 312.542 424.434 307.76 430.288C292.697 448.724 284.472 485.496 294.096 507.474C296.656 513.328 301.31 518.736 308.236 518.091C312.771 517.664 314.1 512.028 315.231 508.208C318.714 496.48 318.645 484.533 323.447 472.766C325.313 468.211 331.068 455.669 337.587 460.005C341 466.118 334.808 472.041 333.776 478.114C332.635 484.851 340.067 504.041 342.994 511.155C357.799 547.223 384.123 575.323 416.589 596.318C436.147 608.959 473.564 630.372 495.304 614.347C513.592 600.873 504.116 570.342 500.008 551.598C493.29 520.938 485.045 490.586 478.704 459.787C468.335 409.451 461.459 359.393 459.554 308.273C458.879 290.324 462.61 258.88 452.499 243.887C450.921 241.555 447.935 240.275 447.677 237.299L447.667 237.309ZM484.38 430.794L503.173 514.697C508.561 515.987 517.66 515.481 519.664 509.24C520.15 507.732 521.232 501.272 521.162 499.754C520.23 478.917 509.295 449.25 492.814 435.745L484.37 430.794H484.38ZM393.282 631.047C392.875 630.65 392.23 628.625 392.289 627.931C395.514 619.279 398.114 610.339 398.937 601.111L375.233 581.613L374.191 597.936C372.752 608.305 370.182 619.457 369.329 629.786C369.1 632.575 368.674 641.138 370.251 642.656C375.957 648.133 397.677 648.024 404.722 644.342C406.24 643.549 410.487 639.758 409.525 638.171C406.101 632.525 396.328 634.093 393.282 631.047ZM474.547 643.043C484.013 647.21 495.185 648.54 505.257 645.652C509.96 644.303 519.337 639.629 513.681 634.162C512.322 632.842 498.688 628.07 496.823 628.209C494.322 628.387 488.726 631.721 484.826 632.158C481.482 632.535 477.841 631.999 474.457 632.207L474.547 643.033V643.043Z" fill="#4F380D"/>
<path d="M277.992 491.32H277V480.406H277.992C277.784 483.809 277.833 487.887 277.992 491.32Z" fill="#CCC4BB"/>
<path d="M533 507.196H532.008C532.077 506.452 531.839 505.619 532.147 504.864L533 504.219V507.196Z" fill="#CCC4BB"/>
<path d="M495.295 614.357C493.856 611.47 491.544 612.651 488.974 611.252C483.011 607.997 471.471 599.335 465.567 594.969C395.802 543.413 354.425 464.481 361.301 376.678C364.457 336.433 377.058 270.955 407.471 242.26C410.199 239.69 418.207 233.35 421.551 232.526C426.958 231.197 425.222 233.628 426.79 234.828C427.554 235.414 434.271 237.448 435.085 237.2C436.127 236.882 436.851 235.066 438.151 235.344C439.024 235.533 439.808 237.368 440.701 237.815C442.437 238.678 444.819 237.974 446.605 239.254L447.657 237.299C447.915 240.276 450.901 241.556 452.479 243.887C462.59 258.88 458.859 290.334 459.534 308.273C461.449 359.393 468.315 409.451 478.684 459.787C485.025 490.576 493.27 520.929 499.988 551.599C504.096 570.342 513.572 600.863 495.285 614.347L495.295 614.357ZM383.815 339.658C376.195 341.91 372.544 368.899 387.596 367.262C389.699 367.033 392.289 365.972 393.569 364.285C397.022 359.76 397.469 350.691 395.633 345.403C394.065 340.898 388.32 338.318 383.815 339.648V339.658ZM449.433 341.721C447.746 340.114 442.884 340.223 440.671 340.957C434.589 342.972 434.073 354.303 434.966 359.651C436.008 365.853 439.887 368.214 446.158 367.271C454.979 365.952 454.265 346.345 449.433 341.721ZM395.713 390.252C391.813 391.403 391.813 396.999 393.629 400.005C402.063 413.986 427.177 414.69 439.242 405.006C442.973 402.01 446.039 398.874 444.541 393.734C442.209 385.737 432.029 397.723 428.357 399.082C423.039 401.057 413.732 400.541 408.622 397.902C404.107 395.56 400.555 388.813 395.703 390.252H395.713Z" fill="#FDDE68"/>
<path d="M495.295 614.357C473.554 630.382 436.137 608.969 416.58 596.328C384.103 575.333 357.779 547.243 342.985 511.165C340.067 504.051 332.625 484.851 333.767 478.124C334.798 472.041 340.99 466.118 337.577 460.015C331.058 455.679 325.303 468.211 323.437 472.776C318.625 484.543 318.694 496.49 315.221 508.218C314.09 512.038 312.761 517.674 308.226 518.101C301.3 518.756 296.647 513.338 294.087 507.484C284.462 485.516 292.687 448.734 307.75 430.298C312.532 424.444 319.061 420.286 324.479 415.276C325.015 406.733 324.271 398.13 324.588 389.587C326.186 346.425 333.568 297.865 357.541 260.805C368.535 243.798 383.736 229.649 404.554 226.454C407.907 225.938 411.559 227.228 414.734 225.223L434.767 179.769C443.648 186.119 453.253 191.487 464.525 191.676L447.657 237.319L446.605 239.273C444.809 237.993 442.438 238.698 440.701 237.835C439.808 237.388 439.024 235.553 438.151 235.364C436.851 235.076 436.127 236.902 435.085 237.219C434.271 237.468 427.554 235.433 426.79 234.848C425.222 233.647 426.958 231.216 421.551 232.546C418.207 233.37 410.199 239.7 407.471 242.28C377.058 270.985 364.457 336.463 361.301 376.698C354.425 464.5 395.802 543.432 465.567 594.989C471.471 599.355 483.011 608.007 488.974 611.271C491.544 612.68 493.856 611.49 495.295 614.377V614.357Z" fill="#F9CE2A"/>
<path d="M484.38 430.794L492.824 435.745C509.305 449.25 520.24 478.917 521.172 499.754C521.242 501.272 520.15 507.732 519.674 509.24C517.67 515.481 508.571 515.997 503.183 514.697L484.39 430.794H484.38Z" fill="#F9CE2A"/>
<path d="M393.282 631.047C396.328 634.093 406.091 632.525 409.525 638.171C410.487 639.758 406.24 643.549 404.722 644.342C397.677 648.024 375.967 648.143 370.251 642.656C368.674 641.138 369.091 632.575 369.329 629.786C370.192 619.457 372.752 608.315 374.191 597.936L375.233 581.614L398.937 601.111C398.114 610.339 395.504 619.279 392.289 627.931C392.23 628.616 392.875 630.64 393.282 631.047Z" fill="#F9CE2A"/>
<path d="M474.547 643.043L474.457 632.217C477.841 632.009 481.483 632.545 484.826 632.168C488.726 631.721 494.322 628.397 496.823 628.219C498.688 628.08 512.322 632.862 513.681 634.172C519.337 639.629 509.96 644.313 505.257 645.662C495.176 648.54 484.013 647.22 474.547 643.053V643.043Z" fill="#F9CE2A"/>
<path d="M395.713 390.252C400.565 388.813 404.107 395.56 408.632 397.902C413.742 400.551 423.049 401.057 428.367 399.082C432.039 397.723 442.219 385.727 444.551 393.734C446.049 398.874 442.983 402.01 439.252 405.006C427.177 414.69 402.063 413.986 393.639 400.005C391.823 396.999 391.823 391.403 395.722 390.252H395.713Z" fill="#4F380D"/>
<path d="M383.815 339.658C388.32 338.328 394.065 340.898 395.633 345.412C397.469 350.701 397.022 359.77 393.569 364.295C392.289 365.981 389.7 367.033 387.596 367.271C372.553 368.909 376.195 341.92 383.815 339.667V339.658Z" fill="#4F380D"/>
<path d="M449.433 341.721C454.265 346.335 454.979 365.952 446.158 367.271C439.887 368.214 436.008 365.843 434.966 359.651C434.063 354.303 434.579 342.972 440.671 340.957C442.884 340.223 447.746 340.114 449.433 341.721Z" fill="#4F380D"/>
<path d="M372.071 483.851C371.241 483.416 370.326 483.774 369.002 482.529C365.293 479.062 363.436 472.494 362.491 467.629C360.59 457.891 359.547 439.758 364.213 430.995C369.862 420.378 388.29 425.648 397.157 429.92C400.753 431.65 406.707 437.095 410.116 435.81C414.333 434.222 413.767 432.434 420.535 432.72C424.666 432.897 426.547 435.72 429.526 435.405C431.569 435.189 440.296 428.506 443.476 427.031C451.075 423.509 465.577 418.485 471.743 426.123C477.255 432.957 477.513 451.943 477.095 460.809C476.738 468.5 474.421 480.288 465.499 481.844C453.973 483.86 440.132 476.025 430.626 470.84C424.232 474.702 417.545 474.913 410.911 471.388C399.845 479.33 390.155 486.674 375.594 485.775L373.143 485.307C372.491 485.045 372.286 483.972 372.071 483.861C383.141 488.16 402.325 476.884 411.081 470.19C413.708 469.82 417.185 472.776 420.218 472.779C423.691 472.793 428.802 469.135 430.781 469.532C437.842 473.689 444.554 477.641 452.725 479.179C457.689 480.111 468.572 481.615 471.763 477.057C475.974 471.035 476.318 449.461 475.403 441.983C474.795 437.044 473.024 431.354 471.226 426.675C467.935 421.969 456.357 424.398 451.49 425.753C443.249 428.052 435.984 432.831 428.835 437.295C421.691 431.65 415.39 434.127 407.861 437.166C401.368 433.186 395.069 429.547 387.512 427.873C381.976 426.644 368.58 424.635 365.577 430.347C361.99 437.163 362.218 453.048 363.042 460.76C363.65 466.409 366.312 481.621 372.071 483.851Z" fill="#241D15"/>
<path d="M372.071 483.851C366.311 481.611 363.65 466.409 363.042 460.76C362.208 453.048 361.99 437.163 365.577 430.347C368.58 424.635 381.976 426.644 387.512 427.873C395.059 429.547 401.368 433.186 407.861 437.166C415.39 434.127 421.691 431.65 428.835 437.295C435.974 432.831 443.249 428.052 451.49 425.753C456.357 424.398 467.935 421.969 471.226 426.675C473.024 431.344 474.794 437.034 475.403 441.983C476.328 449.461 475.984 471.034 471.763 477.057C468.572 481.615 457.689 480.111 452.725 479.179C444.544 477.641 437.841 473.679 430.781 469.532C428.802 469.125 423.692 472.793 420.218 472.779C417.185 472.766 413.708 469.819 411.081 470.19C402.325 476.894 383.142 488.17 372.071 483.861L372.071 483.851ZM375.259 437.797C372.464 449.414 373.415 462.025 377.558 473.191C381.082 475.605 398.967 465.585 402.255 462.134C403.864 459.704 402.77 455.116 402.751 452.034C402.735 449.753 404.475 448.058 402.596 445.975C399.804 442.89 378.404 435.472 375.259 437.797ZM463.06 435.025C459.653 434.938 456.626 435.086 453.326 436.085C451.398 436.667 436.469 444.611 435.501 445.633C434.121 447.102 434.552 455.431 435.036 457.663C436.329 463.664 457.582 469.006 463.549 469.996C465.205 458.436 465.543 446.471 463.05 435.026L463.06 435.025ZM422.384 444.803L415.966 445.924C414.836 451.436 414.238 456.485 416.276 461.875L422.549 461.571L423.985 460.009L422.384 444.793L422.384 444.803Z" fill="#442D16"/>
<path d="M375.259 437.797C378.404 435.472 399.804 442.89 402.596 445.975C404.475 448.048 402.735 449.753 402.751 452.034C402.77 455.116 403.864 459.704 402.255 462.134C398.967 465.585 381.082 475.605 377.558 473.191C373.405 462.036 372.465 449.424 375.259 437.797Z" fill="#FBC5C6"/>
<path d="M463.06 435.025C465.553 446.481 465.215 458.436 463.559 469.995C457.592 469.005 436.339 463.663 435.046 457.662C434.562 455.431 434.131 447.101 435.511 445.632C436.479 444.611 451.408 436.666 453.336 436.085C456.636 435.085 459.663 434.948 463.07 435.025L463.06 435.025Z" fill="#FBC5C6"/>
<path d="M422.384 444.803L423.985 460.019L422.549 461.581L416.277 461.885C414.228 456.486 414.836 451.436 415.966 445.933L422.385 444.813L422.384 444.803Z" fill="#FBC5C6"/>
</g>
<defs>
<clipPath id="clip0_7_217">
<rect width="809" height="809" fill="white"/>
</clipPath>
</defs>
</svg>
