<svg width="809" height="809" viewBox="0 0 809 809" fill="none" xmlns="http://www.w3.org/2000/svg">
<g clip-path="url(#clip0_7_41)">
<path d="M277.992 480.406C279.649 453.973 291.179 426.518 312.582 410.314C312.989 408.409 312.522 406.455 312.771 404.55C314.527 390.837 313.495 376.638 314.676 362.796C318.436 318.781 333.905 256.985 370.341 228.944C380.055 221.463 393.639 216.075 405.913 215.4C407.719 210.816 409.445 206.093 411.45 201.598C414.883 193.918 419.576 185.623 422.374 177.795C425.043 170.323 425.748 157.811 432.436 153.128C439.123 148.444 449.79 150.548 457.133 152.949C465.11 155.559 475.211 161.879 479.895 168.884C483.04 173.597 483.011 178.846 481.185 184.006C475.837 199.108 467.154 214.477 461.796 230.105C461.29 231.574 460.437 233.26 460.536 234.798C460.665 236.674 465.15 243.044 466.301 245.971C473.505 264.188 470.836 286.047 471.451 305.316C472.473 337.743 476.035 370.367 480.371 402.565C480.738 405.324 480.937 415.117 482.584 416.724C509.93 428.363 523.703 454.231 529.795 482.132C530.777 486.647 530.242 492.481 533 496.291V504.229L532.147 504.874C531.839 505.628 532.077 506.462 532.008 507.206C530.797 520.393 519.515 529.511 506.209 528.043C509.256 539.444 512.599 550.944 514.882 562.533C517.878 577.724 520.974 594.542 514.346 609.098L508.194 620.311C534.082 624.577 532.911 651.179 508.233 657.569C489.162 662.51 454.285 658.958 462.55 631.235C449.641 627.792 436.931 622.831 425.143 616.54C420.499 614.06 416.113 610.865 411.45 608.414C409.366 609.704 410.239 611.797 409.733 613.653C408.979 616.371 407.709 618.961 407.034 621.71C411.985 625.5 416.341 626.343 419.08 632.525C425.946 648.024 410.219 657.777 396.596 659.038C384.58 660.149 359.773 658.145 356.558 643.45C354.564 634.341 358.225 621.988 359.307 612.819C360.686 601.151 362.611 588.817 363.355 577.178C363.534 574.331 363.336 571.245 363.137 568.387C362.502 565.52 359.853 564.279 358.345 562.265C345.783 545.476 334.818 527.368 328.577 507.186L322.485 521.425C313.346 534.552 297.291 531.982 287.895 520.581C280.979 512.187 278.459 501.937 277.982 491.301C277.824 487.867 277.774 483.789 277.982 480.386L277.992 480.406ZM447.667 237.309L464.535 191.666C453.263 191.468 443.658 186.1 434.777 179.759L414.744 225.213C411.569 227.228 407.917 225.938 404.563 226.444C383.746 229.639 368.545 243.788 357.551 260.795C333.588 297.855 326.196 346.415 324.598 389.577C324.281 398.12 325.025 406.723 324.489 415.266C319.071 420.276 312.542 424.434 307.76 430.288C292.697 448.724 284.472 485.496 294.096 507.474C296.656 513.328 301.31 518.736 308.236 518.091C312.771 517.664 314.1 512.028 315.231 508.208C318.714 496.48 318.645 484.533 323.447 472.766C325.313 468.211 331.068 455.669 337.587 460.005C341 466.118 334.808 472.041 333.776 478.114C332.635 484.851 340.067 504.041 342.994 511.155C357.799 547.223 384.123 575.323 416.589 596.318C436.147 608.96 473.564 630.372 495.305 614.347C513.592 600.873 504.116 570.342 500.008 551.599C493.29 520.939 485.045 490.586 478.704 459.787C468.335 409.451 461.459 359.393 459.554 308.273C458.879 290.324 462.61 258.88 452.499 243.887C450.921 241.556 447.935 240.276 447.677 237.299L447.667 237.309ZM484.38 430.794L503.173 514.697C508.561 515.987 517.66 515.481 519.664 509.24C520.15 507.732 521.232 501.272 521.163 499.754C520.23 478.917 509.295 449.25 492.814 435.745L484.37 430.794H484.38ZM393.282 631.047C392.875 630.65 392.23 628.626 392.289 627.931C395.514 619.279 398.114 610.339 398.937 601.111L375.233 581.614L374.191 597.936C372.752 608.305 370.182 619.457 369.329 629.786C369.1 632.575 368.674 641.138 370.251 642.656C375.957 648.133 397.677 648.024 404.722 644.343C406.24 643.549 410.487 639.758 409.525 638.171C406.101 632.525 396.328 634.093 393.282 631.047ZM474.547 643.043C484.013 647.21 495.185 648.54 505.257 645.652C509.96 644.303 519.337 639.629 513.681 634.162C512.322 632.843 498.688 628.07 496.823 628.209C494.322 628.387 488.726 631.721 484.826 632.158C481.483 632.535 477.841 631.999 474.457 632.208L474.547 643.033V643.043Z" fill="#4F380D"/>
<path d="M277.992 491.32H277V480.406H277.992C277.784 483.809 277.833 487.887 277.992 491.32Z" fill="#CCC4BB"/>
<path d="M533 507.196H532.008C532.077 506.452 531.839 505.619 532.147 504.864L533 504.219V507.196Z" fill="#CCC4BB"/>
<path d="M495.295 614.357C493.856 611.47 491.544 612.651 488.974 611.252C483.011 607.997 471.471 599.335 465.567 594.969C395.802 543.413 354.425 464.481 361.301 376.678C364.457 336.433 377.058 270.955 407.471 242.26C410.199 239.69 418.207 233.35 421.551 232.526C426.958 231.197 425.222 233.628 426.79 234.828C427.554 235.414 434.271 237.448 435.085 237.2C436.127 236.882 436.851 235.066 438.151 235.344C439.024 235.533 439.808 237.368 440.701 237.815C442.438 238.678 444.819 237.974 446.605 239.254L447.657 237.299C447.915 240.276 450.901 241.556 452.479 243.887C462.59 258.88 458.859 290.334 459.534 308.273C461.449 359.393 468.315 409.451 478.684 459.787C485.025 490.576 493.27 520.929 499.988 551.599C504.096 570.342 513.572 600.863 495.285 614.347L495.295 614.357ZM383.815 339.658C376.195 341.91 372.544 368.899 387.596 367.262C389.7 367.033 392.289 365.972 393.569 364.285C397.022 359.76 397.469 350.691 395.633 345.403C394.065 340.898 388.32 338.318 383.815 339.648V339.658ZM449.433 341.721C447.746 340.114 442.884 340.223 440.671 340.957C434.589 342.972 434.073 354.303 434.966 359.651C436.008 365.853 439.887 368.214 446.158 367.271C454.98 365.952 454.265 346.345 449.433 341.721ZM395.713 390.252C391.813 391.403 391.813 396.999 393.629 400.005C402.063 413.986 427.177 414.69 439.242 405.006C442.973 402.01 446.039 398.874 444.541 393.734C442.209 385.737 432.029 397.723 428.358 399.082C423.039 401.057 413.732 400.541 408.622 397.902C404.107 395.56 400.555 388.813 395.703 390.252H395.713Z" fill="#FDDE68"/>
<path d="M495.295 614.357C473.554 630.382 436.137 608.969 416.58 596.328C384.103 575.333 357.779 547.243 342.984 511.165C340.067 504.051 332.625 484.851 333.767 478.124C334.798 472.041 340.99 466.118 337.577 460.015C331.058 455.679 325.303 468.211 323.437 472.776C318.625 484.543 318.694 496.49 315.221 508.218C314.09 512.038 312.761 517.674 308.226 518.101C301.3 518.756 296.647 513.338 294.087 507.484C284.462 485.516 292.687 448.734 307.75 430.298C312.532 424.444 319.061 420.286 324.479 415.276C325.015 406.733 324.271 398.13 324.588 389.587C326.186 346.425 333.568 297.865 357.541 260.805C368.535 243.798 383.736 229.649 404.553 226.454C407.907 225.938 411.559 227.228 414.734 225.223L434.767 179.769C443.648 186.119 453.253 191.487 464.525 191.676L447.657 237.319L446.605 239.273C444.809 237.993 442.438 238.698 440.701 237.835C439.808 237.388 439.024 235.553 438.151 235.364C436.851 235.076 436.127 236.902 435.085 237.219C434.271 237.468 427.554 235.433 426.79 234.848C425.222 233.647 426.958 231.216 421.551 232.546C418.207 233.37 410.199 239.7 407.471 242.28C377.058 270.985 364.457 336.463 361.301 376.698C354.425 464.5 395.802 543.432 465.567 594.989C471.471 599.355 483.011 608.007 488.974 611.271C491.544 612.68 493.856 611.49 495.295 614.377V614.357Z" fill="#F9CE2A"/>
<path d="M484.38 430.794L492.824 435.745C509.305 449.25 520.24 478.917 521.172 499.754C521.242 501.272 520.15 507.732 519.674 509.24C517.67 515.481 508.571 515.997 503.183 514.697L484.39 430.794H484.38Z" fill="#F9CE2A"/>
<path d="M393.282 631.047C396.328 634.093 406.091 632.525 409.525 638.171C410.487 639.758 406.24 643.549 404.722 644.342C397.677 648.024 375.967 648.143 370.251 642.656C368.674 641.138 369.091 632.575 369.329 629.786C370.192 619.457 372.752 608.315 374.191 597.936L375.233 581.614L398.937 601.111C398.114 610.339 395.504 619.279 392.289 627.931C392.23 628.616 392.875 630.64 393.282 631.047Z" fill="#F9CE2A"/>
<path d="M474.547 643.043L474.457 632.217C477.841 632.009 481.482 632.545 484.826 632.168C488.726 631.721 494.322 628.397 496.823 628.219C498.688 628.08 512.322 632.862 513.681 634.172C519.337 639.629 509.96 644.313 505.257 645.662C495.175 648.54 484.013 647.22 474.547 643.053V643.043Z" fill="#F9CE2A"/>
<path d="M395.713 390.252C400.565 388.813 404.107 395.56 408.632 397.902C413.742 400.551 423.049 401.057 428.367 399.082C432.039 397.723 442.219 385.727 444.551 393.734C446.049 398.874 442.983 402.01 439.252 405.006C427.177 414.69 402.063 413.986 393.639 400.005C391.823 396.999 391.823 391.403 395.722 390.252H395.713Z" fill="#4F380D"/>
<path d="M383.816 339.658C388.32 338.328 394.065 340.898 395.633 345.412C397.469 350.701 397.022 359.77 393.569 364.295C392.289 365.981 389.7 367.033 387.596 367.271C372.553 368.909 376.195 341.92 383.816 339.667V339.658Z" fill="#4F380D"/>
<path d="M449.433 341.721C454.265 346.335 454.98 365.952 446.158 367.271C439.887 368.214 436.008 365.843 434.966 359.651C434.063 354.303 434.579 342.972 440.671 340.957C442.884 340.223 447.746 340.114 449.433 341.721Z" fill="#4F380D"/>
<path d="M353.618 220.695C353.663 220.521 354.811 219.768 355.046 218.341C355.547 215.26 355.547 212.059 356.369 209.032C358.011 202.988 361.692 197.252 362.459 191.196C360.206 187.076 354.375 184.248 351.159 180.221C336.845 162.234 337.579 132.283 351.105 114.153C356.513 106.907 364.805 103.021 370.128 112.722L369.178 121.385L370.336 120.474L371.292 121.143C370.885 123.993 371.75 126.815 372.596 129.466C373.36 131.862 375.241 137.177 376.261 139.239C377.765 142.263 380.039 145.212 382.542 147.485C387.23 149.693 388.212 154.623 394.292 154.357C396.534 154.259 401.62 150.879 404.385 149.89C407.327 148.841 414.823 147.552 416.5 146.246C418.06 145.031 418.17 142.89 419.421 141.528C429.631 130.261 444.296 130.111 455.347 140.429C459.47 145.181 459.065 148.402 460.567 150.423C461.059 151.081 470.374 155.648 472.789 157.401C476.618 160.181 479.985 163.722 483.025 167.335C484.972 168.021 499.351 159.125 501.685 157.264C507.252 152.819 511.268 147.191 513.399 140.263C514.364 137.118 513.552 133.437 515.851 130.652C516.237 130.376 516.616 129.92 517.029 129.755C528.344 125.241 533.635 136.502 535.745 145.748C539.173 160.709 536.266 175.087 529.164 188.454C529.009 188.739 529.178 189.206 529.023 189.492C525.854 191.282 524.286 194.905 521.586 197.446C515.87 202.832 508.899 206.56 501.469 208.999C501.347 223.955 507.991 249.357 485.18 248.014L419.81 239.17C419.467 239.124 419.114 239.076 418.772 239.03L367.928 232.151C363.608 231.281 360.412 230.458 356.935 227.494C355.481 225.67 352.878 223.743 353.627 220.706L353.618 220.695ZM518.083 153.132C517.624 153.947 517.706 155.448 516.766 156.853C511.018 165.437 500.615 174.152 490.564 176.903L498.369 197.316C497.997 198.343 499.766 198.392 500.351 198.281C516.753 194.277 528.442 175.825 528.747 159.435C528.87 152.827 525.832 146.774 525.04 140.369L521.993 139.925L518.083 153.132ZM355.589 167.073C355.947 167.713 358.65 171.555 359.213 172.234C360.039 173.233 368.139 180.922 368.55 180.46L381.148 164.508L381.15 162.068C376.228 157.524 370.245 151.685 366.854 145.901C366.211 144.8 366.44 143.573 366.221 143.163C364.838 138.232 362.74 133.436 361.831 128.358C361.38 125.835 362.212 120.231 360.467 119.15C358.587 117.976 357.264 123.302 355.724 123.907C347.012 136.676 346.799 154.261 355.578 167.082L355.589 167.073ZM448 147.877C445.12 142.923 434.453 141.48 430.36 145.491L448 147.877ZM417.731 199.783C417.518 201.519 417.231 203.245 417.028 204.982L444.017 208.633C444.354 206.217 444.653 203.774 445.001 201.359C447.255 198.209 447.43 192.39 447.799 188.488C447.987 186.474 449.431 184.471 446.21 184.617C446.355 183.231 446.626 181.852 446.771 180.466C448.644 179.663 448.335 176.641 448.59 174.911C449.217 170.59 450.788 164.833 449.438 160.751C449.454 160.405 449.553 160.059 449.579 159.714L424.103 156.203C421.924 168.873 419.065 181.177 417.465 193.946C417.249 195.692 416.148 198.523 417.742 199.785L417.731 199.783ZM460.561 164.369C460.512 164.341 460.233 162.264 459.594 163.71C458.834 170.655 457.489 177.552 456.782 184.494C456.573 186.505 455.161 188.512 458.371 188.365C458.284 189.399 458.039 190.433 457.95 191.478L455.388 202.764L456.546 201.854L457.501 202.533C457.504 203.051 457.319 203.565 457.293 204.068C453.681 202.808 454.724 208.528 454.823 210.137L455.945 211.145L490.93 217.072C492.494 216.84 490.566 216.019 490.552 215.964C487.735 196.099 480.317 172.98 460.552 164.357L460.561 164.369ZM372.552 197.897C372.406 198.194 372.559 198.627 372.411 198.935C372.098 199.611 370.39 200.679 371.612 200.94C379.249 201.741 386.835 203.306 394.471 204.033C396.485 204.22 398.487 205.664 398.342 202.443C400.409 202.702 402.489 203.11 404.568 203.285C405.257 203.347 405.951 203.525 406.643 203.566L407.572 188.888C408.205 184.758 408.563 180.548 409.257 176.437C412.313 177.431 411.484 175.122 411.818 173.127C412.436 169.492 413.097 165.312 413.367 161.672C413.466 160.396 414.463 158.185 412.809 157.909C394.047 163.665 381.031 180.913 372.531 197.894L372.552 197.897ZM489.688 238.047C489.991 234.401 491.744 231.521 492.13 227.811C492.21 227.061 492.884 225.673 491.801 225.632L366.723 209.196L364.358 220.425L366.577 222.458L489.688 238.047Z" fill="#483018"/>
<path d="M356.926 227.482C360.403 230.446 363.599 231.269 367.919 232.139C383.997 235.371 402.294 236.726 418.763 239.018C419.105 239.064 419.458 239.112 419.801 239.158C440.533 242.037 464.668 246.792 485.171 248.002C507.982 249.345 501.338 223.943 501.46 208.987C508.89 206.548 515.861 202.821 521.577 197.434C524.277 194.893 525.845 191.27 529.014 189.48C523.544 199.295 512.265 205.662 502.403 210.14C504.676 229.266 507.234 251.283 481.295 249.633C446.366 247.423 409.5 237.902 374.325 235.161C366.369 232.194 362.555 234.53 356.928 227.472L356.926 227.482Z" fill="#241D15"/>
<path d="M370.348 120.466L369.19 121.376L370.14 112.713C364.817 103.012 356.523 106.909 351.117 114.144C337.591 132.274 336.868 162.216 351.17 180.212C354.375 184.249 360.217 187.068 362.471 191.187C361.694 197.242 358.011 202.988 356.381 209.023C355.559 212.05 355.559 215.252 355.058 218.333C354.822 219.759 353.674 220.512 353.63 220.686C353.664 209.966 358.602 200.723 360.716 190.643C341.898 175.175 333.234 149.478 342.618 126.202C344.909 120.511 349.851 112.8 354.573 108.906C364.575 100.655 373.812 109.311 370.359 120.467L370.348 120.466Z" fill="#241D15"/>
<path d="M529.155 188.442C536.267 175.077 539.175 160.688 535.736 145.736C533.616 136.489 528.333 125.24 517.02 129.743C523.607 123.385 530.205 130.227 533.486 136.281C541.484 151.047 541.045 175.998 529.155 188.442Z" fill="#241D15"/>
<path d="M501.676 157.252C508.273 150.041 511.733 141.644 513.752 132.111C514.011 130.9 515.34 130.995 515.842 130.64C513.532 133.424 514.356 137.096 513.39 140.251C511.268 147.191 507.242 152.817 501.676 157.252Z" fill="#241D15"/>
<path d="M455.349 140.418C444.297 130.1 429.643 130.252 419.423 141.517C418.18 142.892 418.06 145.031 416.502 146.236C414.825 147.541 407.318 148.829 404.386 149.88C401.621 150.869 396.536 154.249 394.293 154.347C398.331 151.364 403.977 148.684 408.67 146.952C410.852 146.137 413.359 146.582 415.096 145.613C416.627 144.763 420.806 138.556 423.135 136.567C433.536 127.641 446.784 130.542 455.359 140.42L455.349 140.418Z" fill="#241D15"/>
<path d="M382.543 147.475C380.04 145.202 377.766 142.253 376.263 139.228L382.543 147.475Z" fill="#241D15"/>
<path d="M439.351 219.614L439.732 220.701L440.388 219.755C446.417 220.57 452.622 222.424 458.925 223.319C463.404 223.957 467.934 224.527 472.415 225.144C474.148 225.379 475.87 225.612 477.603 225.846L492.13 227.811C491.744 231.521 489.991 234.401 489.688 238.047L365.172 221.201L366.576 210.825C380.405 212.643 394.258 214.665 408.082 216.44C415.683 217.426 423.313 218.512 430.909 219.529C434.074 219.957 437.172 219.319 439.351 219.614Z" fill="#B4AB9B"/>
<path d="M449.568 159.712C449.543 160.057 449.443 160.403 449.428 160.75C449.211 166.965 447.412 174.087 446.761 180.465C446.615 181.851 446.344 183.23 446.199 184.615C445.588 190.302 445.828 195.48 444.991 201.358C444.643 203.773 444.354 206.217 444.008 208.621L417.019 204.97C417.231 203.245 417.519 201.509 417.721 199.782C418.312 194.948 419.003 190.076 419.686 185.255C421.761 183.824 421.477 179.675 421.847 177.094C422.833 170.201 423.68 163.236 424.655 156.342L449.558 159.711L449.568 159.712Z" fill="#B4AB9B"/>
<path d="M490.561 215.976L456.458 210.316C456.612 208.245 457.211 206.16 457.302 204.08C457.329 203.566 457.513 203.063 457.51 202.544L456.555 201.866C456.896 198.414 457.671 194.948 457.959 191.489C458.048 190.445 458.293 189.411 458.38 188.377C458.512 186.704 457.859 184.735 458.066 182.575C458.634 176.503 459.983 170.441 460.572 164.371C480.337 172.994 487.754 196.112 490.571 215.978L490.561 215.976Z" fill="#9A8872"/>
<path d="M409.687 173.336C409.62 173.675 409.603 174.032 409.546 174.373C409.423 175.054 409.38 175.756 409.266 176.449C408.572 180.56 408.214 184.77 407.581 188.9C407.157 191.643 407.003 194.496 406.458 197.201C402.684 195.729 404.552 201.445 403.679 202.119L372.55 197.908C381.052 180.915 394.066 163.678 412.83 157.912C412.952 163.338 410.594 168.429 409.687 173.336Z" fill="#9A8872"/>
<path d="M500.351 198.282C499.766 198.393 498.008 198.345 498.369 197.316L490.564 176.903C500.615 174.152 511.008 165.436 516.766 156.853C517.706 155.448 517.624 153.947 518.083 153.132C518.359 152.652 519.596 152.101 520.279 150.566C521.476 147.886 522.498 145.097 522.75 142.141C527.08 146.457 527.741 158.518 527.161 164.441C526.263 173.734 517.686 187.926 509.996 193.225C508.62 194.18 501.511 198.069 500.351 198.282Z" fill="#F5EAC8"/>
<path d="M366.222 143.153C366.431 143.562 366.212 144.789 366.855 145.891C370.247 151.675 376.23 157.514 381.152 162.058L381.149 164.498L368.551 180.45C368.14 180.912 360.041 173.223 359.214 172.224C358.651 171.545 355.947 167.713 355.591 167.063C348.754 154.568 349.348 138.619 355.538 126.059C356.209 124.692 358.012 121.364 359.682 121.125C360.31 129.758 362.285 135.625 366.225 143.132L366.222 143.153Z" fill="#F5EAC8"/>
<path d="M489.688 238.048L366.577 222.459L364.358 220.426L366.723 209.197L491.801 225.633C492.873 225.672 492.2 227.06 492.13 227.812L484.866 226.829L484.305 225.897C482.42 225.23 480.386 224.955 478.391 225.097L477.603 225.846C475.87 225.612 474.148 225.379 472.415 225.144L471.845 224.201C467.862 223.725 462.424 221.595 458.925 223.319C452.622 222.424 446.417 220.57 440.388 219.755C440.046 219.709 439.693 219.661 439.351 219.614C437.172 219.32 434.076 219.947 430.909 219.529C430.106 217.656 427.085 217.966 425.355 217.71C421.552 217.154 417.734 216.637 413.92 216.163C412.174 215.948 409.355 214.838 408.081 216.441C394.249 214.654 380.396 212.631 366.576 210.825L365.171 221.212L489.687 238.058L489.688 238.048Z" fill="#241D15"/>
<path d="M485.171 248.003C464.668 246.792 440.533 242.037 419.801 239.158L485.171 248.003Z" fill="#56402F"/>
<path d="M457.302 204.08C457.202 206.148 456.601 208.244 456.458 210.316L490.561 215.976C490.575 216.031 492.503 216.852 490.939 217.084L455.954 211.157L454.832 210.149C454.735 208.53 453.69 202.82 457.302 204.08Z" fill="#402914"/>
<path d="M395.239 202.023L396.136 203.201L397.314 202.304C397.657 202.35 398.01 202.398 398.352 202.445C398.497 205.666 396.495 204.222 394.481 204.034C386.845 203.307 379.248 201.741 371.622 200.941C370.4 200.681 372.108 199.612 372.422 198.936L395.25 202.025L395.239 202.023Z" fill="#241D15"/>
<path d="M418.763 239.018C402.294 236.727 383.997 235.371 367.919 232.139L418.763 239.018Z" fill="#56402F"/>
<path d="M449.568 159.712L424.665 156.343C423.701 163.239 422.853 170.204 421.858 177.096C419.783 178.527 420.067 182.676 419.697 185.256C419.013 190.077 418.322 194.95 417.731 199.783C416.139 198.511 417.24 195.681 417.454 193.945C419.055 181.176 421.913 168.872 424.093 156.202L449.568 159.712Z" fill="#241D15"/>
<path d="M518.083 153.132L521.993 139.925L525.04 140.369C525.832 146.774 528.87 152.827 528.747 159.436C528.432 175.824 516.752 194.287 500.351 198.282C501.511 198.069 508.609 194.179 509.996 193.225C517.686 187.926 526.263 173.734 527.161 164.441C527.741 158.518 527.069 146.455 522.75 142.141C522.508 145.098 521.485 147.897 520.279 150.566C519.596 152.101 518.36 152.642 518.083 153.132Z" fill="#241D15"/>
<path d="M448 147.877L430.36 145.491C434.453 141.48 445.12 142.923 448 147.877Z" fill="#B4AB9B"/>
<path d="M366.222 143.153C362.284 135.636 360.308 129.779 359.679 121.146C358.011 121.375 356.217 124.714 355.536 126.08C349.347 138.63 348.741 154.588 355.588 167.084C346.809 154.263 347.024 136.667 355.734 123.909C357.274 123.304 358.587 117.976 360.477 119.151C362.223 120.233 361.39 125.836 361.842 128.359C362.749 133.448 364.848 138.234 366.231 143.165L366.222 143.153Z" fill="#241D15"/>
<path d="M406.458 197.201C406.034 199.321 404.97 201.174 404.578 203.287C402.499 203.111 400.42 202.703 398.352 202.444C398.01 202.398 397.657 202.35 397.315 202.304C396.972 202.258 396.619 202.21 396.277 202.164C395.934 202.117 395.582 202.07 395.239 202.023L372.411 198.935C372.559 198.627 372.406 198.194 372.552 197.897L403.681 202.109C404.552 201.445 402.684 195.729 406.458 197.201Z" fill="#B4AB9B"/>
<path d="M460.561 164.369C459.972 170.439 458.624 176.502 458.056 182.574C457.859 184.735 458.51 186.714 458.37 188.375C455.159 188.522 456.582 186.517 456.78 184.504C457.487 177.563 458.834 170.655 459.592 163.721C460.232 162.275 460.511 164.352 460.56 164.38L460.561 164.369Z" fill="#241D15"/>
<path d="M412.83 157.912C414.483 158.188 413.476 160.398 413.388 161.675C413.116 165.326 412.447 169.493 411.838 173.13C411.505 175.125 412.334 177.434 409.277 176.44C409.392 175.747 409.434 175.045 409.558 174.364L410.645 173.983L409.699 173.327C410.605 168.42 412.964 163.329 412.842 157.903L412.83 157.912Z" fill="#241D15"/>
<path d="M446.199 184.616C449.42 184.47 447.977 186.473 447.789 188.486C447.419 192.388 447.245 198.208 444.991 201.358C445.828 195.48 445.588 190.302 446.199 184.616Z" fill="#241D15"/>
<path d="M446.761 180.465C447.412 174.087 449.211 166.965 449.428 160.75C450.778 164.832 449.206 170.589 448.579 174.91C448.324 176.64 448.633 179.672 446.761 180.465Z" fill="#241D15"/>
<path d="M407.581 188.9L406.652 203.578C405.961 203.527 405.277 203.35 404.577 203.297C404.968 201.184 406.032 199.331 406.456 197.212C407.002 194.507 407.156 191.653 407.58 188.911L407.581 188.9Z" fill="#241D15"/>
<path d="M456.545 201.864L455.386 202.775L457.949 191.488C457.661 194.947 456.885 198.413 456.545 201.864Z" fill="#402914"/>
<path d="M430.909 219.529C423.313 218.512 415.683 217.426 408.082 216.44C409.355 214.837 412.184 215.949 413.92 216.163C417.734 216.637 421.552 217.153 425.355 217.71C427.085 217.965 430.117 217.657 430.909 219.529Z" fill="#483018"/>
<path d="M472.415 225.144C467.934 224.527 463.404 223.957 458.925 223.319C462.434 221.596 467.873 223.727 471.845 224.201L472.415 225.144Z" fill="#483018"/>
<path d="M484.866 226.829L477.603 225.846L478.391 225.097C480.386 224.955 482.42 225.23 484.305 225.897L484.866 226.829Z" fill="#483018"/>
<path d="M439.351 219.614C439.693 219.661 440.046 219.708 440.389 219.755L439.732 220.701L439.351 219.614Z" fill="#483018"/>
<path d="M419.697 185.257C420.067 182.676 419.783 178.527 421.858 177.096C421.487 179.677 421.771 183.825 419.697 185.257Z" fill="#56402F"/>
<path d="M409.546 174.373C409.603 174.032 409.62 173.675 409.687 173.336L410.633 173.992L409.546 174.373Z" fill="#483018"/>
<path d="M396.137 203.201L395.239 202.023C395.582 202.07 395.934 202.117 396.277 202.164L396.137 203.201Z" fill="#56402F"/>
<path d="M396.137 203.201L396.277 202.164C396.619 202.21 396.972 202.258 397.315 202.304L396.137 203.201Z" fill="#483018"/>
</g>
<defs>
<clipPath id="clip0_7_41">
<rect width="809" height="809" fill="white"/>
</clipPath>
</defs>
</svg>
