<svg width="262" height="555" viewBox="0 0 262 555" fill="none" xmlns="http://www.w3.org/2000/svg">
<g id="Head=Viking, Accessory=Default, Clothes=Default">
<g id="banana_base" clip-path="url(#clip0_12_23)">
<g id="banana_base_2">
<g id="Isolation_Mode" clip-path="url(#clip1_12_23)">
<path id="Vector" d="M215.93 499.35C209.95 496.07 198.36 487.37 192.43 482.98C122.39 431.12 80.8499 351.72 87.7599 263.41C90.9299 222.93 103.58 157.07 134.11 128.2C136.85 125.61 144.89 119.24 148.24 118.41C153.67 117.08 151.93 119.52 153.5 120.73C154.26 121.32 161.01 123.36 161.83 123.12C162.87 122.8 163.61 120.97 164.91 121.26C165.79 121.45 166.57 123.3 167.47 123.75C169.21 124.62 171.6 123.91 173.4 125.2L174.46 123.23L176.26 118.35C172.91 117.5 169.62 116.29 166.43 114.98C163.38 113.73 159.68 112.4 156.18 110.72C151.89 109.32 147.48 108.28 143.27 106.8L141.39 111.07C138.2 113.09 134.53 111.79 131.17 112.31C110.27 115.52 95.0099 129.76 83.9699 146.86C59.9099 184.14 52.4999 232.98 50.8899 276.4C50.5699 284.99 51.3199 293.65 50.7799 302.24C45.3399 307.28 38.7899 311.46 33.9799 317.35C18.8599 335.89 10.5999 372.89 20.2599 394.99C22.8299 400.87 27.4999 406.32 34.4499 405.67C39.0099 405.24 40.3399 399.57 41.4799 395.73C44.9799 383.93 44.8999 371.92 49.7299 360.08C51.5999 355.49 57.3799 342.89 63.9199 347.25C67.3399 353.39 61.1299 359.35 60.0899 365.47C58.9399 372.24 66.4099 391.55 69.3399 398.71C84.1999 434.99 110.63 463.25 143.23 484.37C162.87 497.09 200.43 518.63 222.25 502.5C220.81 499.59 218.48 500.79 215.9 499.37L215.93 499.35Z" fill="#F9CE2A"/>
<path id="Vector_2" d="M235.23 508.46L241.4 497.18C247.39 484.29 245.43 468.97 242.96 455.3C240.56 441.98 236.55 428.75 233.23 415.64C250.2 417.12 261.15 403.54 260.16 387.15C259.57 377.31 255.8 363.22 252.67 353.74C245.52 332.09 230.79 312.69 209.51 303.67C207.86 302.05 207.66 292.2 207.29 289.43C202.94 257.04 199.36 224.22 198.33 191.61C197.72 172.22 200.39 150.24 193.16 131.91C192 128.97 187.5 122.56 187.37 120.67C187.34 120.27 187.38 119.86 187.46 119.45C183.68 119.74 179.93 119.25 176.26 118.32L174.46 123.2C174.72 126.2 177.72 127.48 179.3 129.83C189.45 144.91 185.71 176.55 186.38 194.6C188.3 246.02 195.2 296.37 205.61 347C211.98 377.97 220.25 408.5 227 439.35C231.12 458.2 240.64 488.91 222.28 502.46C200.45 518.58 162.89 497.04 143.26 484.33C110.66 463.21 84.2301 434.95 69.3701 398.67C66.4401 391.51 58.9701 372.2 60.1201 365.43C61.1501 359.32 67.3701 353.36 63.9501 347.21C57.4001 342.85 51.6301 355.46 49.7601 360.04C44.9301 371.88 45.0001 383.89 41.5101 395.69C40.3701 399.53 39.0401 405.2 34.4801 405.63C27.5301 406.28 22.8601 400.84 20.2901 394.95C10.6301 372.85 18.8901 335.85 34.0101 317.31C38.8101 311.42 45.3701 307.24 50.8101 302.2C51.3501 293.61 50.6001 284.95 50.9201 276.36C52.5201 232.94 59.9401 184.1 84.0001 146.82C95.0401 129.72 110.3 115.48 131.2 112.27C134.57 111.75 138.24 113.05 141.42 111.03L143.3 106.76C139.52 105.43 135.91 103.73 132.72 101.07C132.68 101.04 132.66 101.01 132.62 100.98C132.6 101.04 132.58 101.09 132.55 101.15C120.22 101.83 106.59 107.25 96.8401 114.77C60.2701 142.98 44.7401 205.13 40.9601 249.41C39.7701 263.33 40.8101 277.62 39.0501 291.41C38.8001 293.33 39.2701 295.3 38.8601 297.21C17.3601 313.54 5.79011 341.14 4.12011 367.74C3.92011 370.88 4.00011 374.55 4.12011 377.72C4.50011 387.61 5.95011 395.48 11.2601 404C20.0201 418.04 37.7401 424.3 48.8001 409.02L54.9201 394.69C60.6501 413.08 70.2401 429.95 81.3901 445.52C84.0301 449.2 87.5901 452.23 89.6101 456.25C89.8101 459.12 90.0101 462.22 89.8301 465.09C88.6901 483.04 83.8101 502.2 82.7801 519.91C82.2401 529.31 82.6601 537.22 91.4301 542.26C101.53 548.07 118.62 548.86 129.66 545.92C141.61 542.73 151.62 533.99 145.77 520.76C143.02 514.54 138.65 513.68 133.68 509.88C134.36 507.12 135.64 504.51 136.39 501.77C136.9 499.91 136.03 497.79 138.11 496.5C142.79 498.97 147.2 502.19 151.86 504.68C163.62 510.97 176.57 515.94 189.41 519.46C186.21 530.5 189.17 539.68 200.09 544.18C212.63 549.35 234.96 549.2 246.15 540.88C261.95 529.12 252.8 510.25 235.23 508.47V508.46ZM136.17 526.43C137.13 528.02 132.87 531.84 131.35 532.64C124.28 536.35 102.48 536.46 96.7501 530.95C95.1701 529.43 95.5901 520.81 95.8201 518C96.6801 507.61 99.2601 496.4 100.71 485.97L101.76 469.55L125.53 489.16C126.1 491.09 124.87 495.43 124.4 497.74C123.54 501.97 118.81 514.49 118.97 517.01C119.27 521.76 132.88 521.01 136.18 526.45L136.17 526.43ZM230.18 402.23L211.32 317.84L219.79 322.82C236.33 336.4 247.32 366.25 248.25 387.2C248.32 388.73 247.23 395.22 246.74 396.74C244.73 403.02 235.59 403.53 230.18 402.23ZM232.28 533.96C222.16 536.86 210.95 535.53 201.45 531.33L201.36 520.44C204.76 520.23 208.41 520.77 211.77 520.39C215.69 519.94 221.31 516.59 223.81 516.41C225.68 516.27 239.37 521.08 240.74 522.4C246.42 527.89 237 532.6 232.28 533.95V533.96Z" fill="#4F380D"/>
<path id="Vector_3" d="M222.28 502.48C220.84 499.57 218.51 500.77 215.93 499.35C209.95 496.07 198.36 487.37 192.43 482.98C122.39 431.12 80.85 351.72 87.76 263.41C90.93 222.93 103.58 157.07 134.11 128.2C136.85 125.61 144.89 119.24 148.24 118.41C153.67 117.08 151.93 119.52 153.5 120.73C154.26 121.32 161.01 123.36 161.83 123.12C162.87 122.8 163.61 120.97 164.91 121.26C165.79 121.45 166.57 123.3 167.47 123.75C169.21 124.62 171.6 123.91 173.4 125.2L174.46 123.23C174.72 126.23 177.72 127.51 179.3 129.86C189.45 144.94 185.71 176.58 186.38 194.63C188.3 246.05 195.2 296.4 205.61 347.03C211.98 378 220.25 408.53 227 439.38C231.12 458.23 240.64 488.94 222.28 502.49V502.48ZM110.35 226.17C102.7 228.44 99.04 255.58 114.14 253.94C116.25 253.71 118.85 252.64 120.14 250.95C123.6 246.4 124.05 237.28 122.21 231.96C120.64 227.42 114.87 224.83 110.35 226.17ZM176.24 228.24C174.55 226.62 169.67 226.73 167.44 227.47C161.33 229.5 160.81 240.9 161.72 246.27C162.77 252.5 166.66 254.88 172.95 253.94C181.81 252.61 181.09 232.89 176.24 228.24ZM122.3 277.05C118.39 278.21 118.39 283.84 120.21 286.86C128.67 300.92 153.89 301.63 166.01 291.89C169.76 288.88 172.83 285.72 171.33 280.55C168.99 272.5 158.77 284.56 155.08 285.93C149.74 287.91 140.4 287.4 135.27 284.74C130.73 282.38 127.18 275.6 122.3 277.04V277.05Z" fill="#FDDE68"/>
<path id="Vector_4" d="M211.32 317.84L219.79 322.82C236.33 336.4 247.32 366.25 248.25 387.2C248.32 388.73 247.23 395.22 246.74 396.74C244.73 403.02 235.59 403.53 230.18 402.23L211.32 317.84Z" fill="#F9CE2A"/>
<path id="Vector_5" d="M101.75 469.54L125.52 489.15C126.09 491.08 124.86 495.42 124.39 497.73C123.53 501.96 118.8 514.48 118.96 517C119.26 521.75 132.87 521 136.17 526.44C137.13 528.03 132.87 531.85 131.35 532.65C124.28 536.36 102.48 536.47 96.7499 530.96C95.1699 529.44 95.5899 520.82 95.8199 518.01C96.6799 507.62 99.2599 496.41 100.71 485.98L101.76 469.56L101.75 469.54Z" fill="#F9CE2A"/>
<path id="Vector_6" d="M201.45 531.33L201.36 520.44C204.76 520.23 208.41 520.77 211.77 520.39C215.69 519.94 221.31 516.59 223.81 516.41C225.68 516.27 239.37 521.08 240.74 522.4C246.42 527.89 237 532.6 232.28 533.95C222.16 536.85 210.95 535.52 201.45 531.32V531.33Z" fill="#F9CE2A"/>
<path id="Vector_7" d="M122.3 277.05C127.17 275.6 130.73 282.39 135.27 284.75C140.4 287.41 149.74 287.92 155.08 285.94C158.76 284.57 168.99 272.51 171.33 280.56C172.83 285.73 169.76 288.89 166.01 291.9C153.89 301.64 128.68 300.94 120.21 286.87C118.39 283.85 118.39 278.22 122.3 277.06V277.05Z" fill="#4F380D"/>
<path id="Vector_8" d="M110.35 226.17C114.87 224.83 120.64 227.42 122.21 231.96C124.05 237.28 123.6 246.4 120.14 250.95C118.85 252.64 116.26 253.71 114.14 253.94C99.03 255.58 102.7 228.44 110.35 226.17Z" fill="#4F380D"/>
<path id="Vector_9" d="M176.24 228.24C181.09 232.89 181.81 252.61 172.95 253.94C166.66 254.89 162.76 252.51 161.72 246.27C160.82 240.89 161.33 229.49 167.44 227.47C169.67 226.73 174.54 226.62 176.24 228.24Z" fill="#4F380D"/>
</g>
</g>
<path id="Vector_10" d="M235.23 508.46L241.4 497.18C247.39 484.29 245.43 468.97 242.96 455.3C240.56 441.98 236.55 428.75 233.23 415.64C250.2 417.12 261.15 403.54 260.16 387.15C259.57 377.31 255.8 363.22 252.67 353.74C245.52 332.09 230.79 312.69 209.51 303.67C207.86 302.05 207.66 292.2 207.29 289.43C202.94 257.04 199.36 224.22 198.33 191.61C197.72 172.22 200.39 150.24 193.16 131.91C192 128.97 187.5 122.56 187.37 120.67C187.34 120.27 187.38 119.86 187.46 119.45C183.68 119.74 179.93 119.25 176.26 118.32L174.46 123.2C174.72 126.2 177.72 127.48 179.3 129.83C189.45 144.91 185.71 176.55 186.38 194.6C188.3 246.02 195.2 296.37 205.61 347C211.98 377.97 220.25 408.5 227 439.35C231.12 458.2 240.64 488.91 222.28 502.46C200.45 518.58 162.89 497.04 143.26 484.33C110.66 463.21 84.2301 434.95 69.3701 398.67C66.4401 391.51 58.9701 372.2 60.1201 365.43C61.1501 359.32 67.3701 353.36 63.9501 347.21C57.4001 342.85 51.6301 355.46 49.7601 360.04C44.9301 371.88 45.0001 383.89 41.5101 395.69C40.3701 399.53 39.0401 405.2 34.4801 405.63C27.5301 406.28 22.8601 400.84 20.2901 394.95C10.6301 372.85 18.8901 335.85 34.0101 317.31C38.8101 311.42 45.3701 307.24 50.8101 302.2C51.3501 293.61 50.6001 284.95 50.9201 276.36C52.5201 232.94 59.9401 184.1 84.0001 146.82C95.0401 129.72 110.3 115.48 131.2 112.27C134.57 111.75 138.24 113.05 141.42 111.03L143.3 106.76C139.52 105.43 135.91 103.73 132.72 101.07C132.68 101.04 132.66 101.01 132.62 100.98C132.6 101.04 132.58 101.09 132.55 101.15C120.22 101.83 106.59 107.25 96.8401 114.77C60.2701 142.98 44.7401 205.13 40.9601 249.41C39.7701 263.33 40.8101 277.62 39.0501 291.41C38.8001 293.33 39.2701 295.3 38.8601 297.21C17.3601 313.54 5.79011 341.14 4.12011 367.74C3.92011 370.88 4.00011 374.55 4.12011 377.72C4.50011 387.61 5.95011 395.48 11.2601 404C20.0201 418.04 37.7401 424.3 48.8001 409.02L54.9201 394.69C60.6501 413.08 70.2401 429.95 81.3901 445.52C84.0301 449.2 87.5901 452.23 89.6101 456.25C89.8101 459.12 90.0101 462.22 89.8301 465.09C88.6901 483.04 83.8101 502.2 82.7801 519.91C82.2401 529.31 82.6601 537.22 91.4301 542.26C101.53 548.07 118.62 548.86 129.66 545.92C141.61 542.73 151.62 533.99 145.77 520.76C143.02 514.54 138.65 513.68 133.68 509.88C134.36 507.12 135.64 504.51 136.39 501.77C136.9 499.91 136.03 497.79 138.11 496.5C142.79 498.97 147.2 502.19 151.86 504.68C163.62 510.97 176.57 515.94 189.41 519.46C186.21 530.5 189.17 539.68 200.09 544.18C212.63 549.35 234.96 549.2 246.15 540.88C261.95 529.12 252.8 510.25 235.23 508.47V508.46ZM136.17 526.43C137.13 528.02 132.87 531.84 131.35 532.64C124.28 536.35 102.48 536.46 96.7501 530.95C95.1701 529.43 95.5901 520.81 95.8201 518C96.6801 507.61 99.2601 496.4 100.71 485.97L101.76 469.55L125.53 489.16C126.1 491.09 124.87 495.43 124.4 497.74C123.54 501.97 118.81 514.49 118.97 517.01C119.27 521.76 132.88 521.01 136.18 526.45L136.17 526.43ZM230.18 402.23L211.32 317.84L219.79 322.82C236.33 336.4 247.32 366.25 248.25 387.2C248.32 388.73 247.23 395.22 246.74 396.74C244.73 403.02 235.59 403.53 230.18 402.23ZM232.28 533.96C222.16 536.86 210.95 535.53 201.45 531.33L201.36 520.44C204.76 520.23 208.41 520.77 211.77 520.39C215.69 519.94 221.31 516.59 223.81 516.41C225.68 516.27 239.37 521.08 240.74 522.4C246.42 527.89 237 532.6 232.28 533.95V533.96Z" fill="#4F380D"/>
</g>
<g id="bananavec2 1">
<g id="Group">
<path id="Vector_11" d="M61.0778 164.086C61.1204 163.921 62.2152 163.202 62.4396 161.842C62.9177 158.904 62.9177 155.85 63.7012 152.963C65.2671 147.199 68.7784 141.729 69.5095 135.953C67.3605 132.024 61.8 129.327 58.7322 125.485C45.0806 108.331 45.7809 79.7661 58.6812 62.4754C63.8385 55.5648 71.7468 51.8581 76.8235 61.1106L75.9174 69.3723L77.0225 68.504L77.9339 69.1413C77.5459 71.8601 78.3709 74.5514 79.1777 77.0791C79.9065 79.3645 81.6996 84.4341 82.6732 86.3999C84.1069 89.2845 86.2759 92.0973 88.6633 94.2644C93.1347 96.3709 94.0707 101.073 99.8692 100.819C102.008 100.726 106.858 97.502 109.495 96.5588C112.301 95.5578 119.451 94.3283 121.05 93.0834C122.537 91.9242 122.642 89.8826 123.836 88.5829C133.573 77.8378 147.559 77.6944 158.099 87.5349C162.031 92.0675 161.645 95.1393 163.078 97.0664C163.547 97.6942 172.43 102.05 174.733 103.722C178.386 106.373 181.597 109.75 184.496 113.196C186.353 113.85 200.067 105.366 202.292 103.591C207.602 99.3515 211.432 93.9846 213.465 87.3768C214.385 84.3773 213.61 80.8664 215.803 78.2105C216.172 77.9479 216.533 77.513 216.927 77.3547C227.718 73.0504 232.764 83.7904 234.776 92.608C238.045 106.876 235.273 120.589 228.5 133.338C228.352 133.61 228.513 134.055 228.366 134.327C225.343 136.035 223.848 139.49 221.273 141.913C215.821 147.051 209.173 150.605 202.087 152.932C201.971 167.196 208.307 191.422 186.552 190.142L124.206 181.707C123.88 181.663 123.543 181.617 123.217 181.573L74.7256 175.012C70.6054 174.183 67.5574 173.398 64.2415 170.571C62.8544 168.831 60.3721 166.994 61.0864 164.098L61.0778 164.086ZM217.931 99.6506C217.494 100.428 217.572 101.859 216.675 103.199C211.194 111.386 201.272 119.698 191.686 122.321L199.13 141.789C198.776 142.769 200.462 142.816 201.021 142.71C216.663 138.891 227.811 121.293 228.102 105.662C228.219 99.3595 225.322 93.5863 224.566 87.478L221.661 87.0547L217.931 99.6506ZM62.958 112.947C63.2987 113.557 65.8765 117.221 66.4137 117.868C67.2018 118.821 74.9265 126.155 75.3187 125.714L87.3333 110.5L87.3358 108.173C82.6416 103.839 76.9355 98.2706 73.7013 92.7541C73.0876 91.7037 73.3063 90.5341 73.0972 90.143C71.7785 85.4399 69.7773 80.8661 68.9109 76.0227C68.4806 73.6165 69.2742 68.272 67.6099 67.2407C65.8164 66.1213 64.5548 71.2009 63.086 71.7781C54.7774 83.956 54.5742 100.727 62.9468 112.955L62.958 112.947ZM151.092 94.6386C148.345 89.9136 138.172 88.5372 134.268 92.3625L151.092 94.6386ZM122.224 144.143C122.02 145.798 121.747 147.444 121.553 149.101L147.293 152.583C147.615 150.278 147.9 147.949 148.232 145.646C150.382 142.641 150.548 137.091 150.9 133.37C151.08 131.449 152.457 129.539 149.384 129.678C149.523 128.357 149.781 127.041 149.92 125.72C151.706 124.954 151.411 122.072 151.654 120.422C152.252 116.301 153.751 110.81 152.464 106.917C152.478 106.586 152.573 106.257 152.598 105.927L128.301 102.58C126.223 114.663 123.496 126.397 121.97 138.576C121.764 140.241 120.714 142.941 122.234 144.144L122.224 144.143ZM163.072 110.368C163.025 110.341 162.759 108.36 162.149 109.739C161.424 116.362 160.141 122.941 159.467 129.561C159.268 131.479 157.921 133.393 160.983 133.253C160.9 134.239 160.666 135.225 160.582 136.222L158.138 146.986L159.243 146.118L160.153 146.765C160.157 147.259 159.979 147.749 159.955 148.229C156.51 147.028 157.505 152.483 157.6 154.018L158.669 154.979L192.036 160.632C193.527 160.41 191.688 159.627 191.675 159.575C188.988 140.629 181.914 118.58 163.063 110.356L163.072 110.368ZM79.1353 142.344C78.9962 142.627 79.1419 143.04 79.0014 143.334C78.7026 143.978 77.0732 144.997 78.2388 145.246C85.5221 146.009 92.7572 147.502 100.04 148.195C101.961 148.375 103.87 149.752 103.732 146.679C105.704 146.926 107.687 147.315 109.67 147.483C110.327 147.541 110.989 147.712 111.649 147.75L112.535 133.752C113.138 129.813 113.48 125.798 114.142 121.877C117.057 122.825 116.266 120.622 116.584 118.72C117.174 115.253 117.804 111.267 118.062 107.795C118.156 106.578 119.107 104.47 117.53 104.206C99.6356 109.696 87.222 126.145 79.1155 142.341L79.1353 142.344ZM190.851 180.636C191.14 177.158 192.812 174.411 193.179 170.874C193.256 170.158 193.899 168.835 192.866 168.796L73.5759 153.12L71.3208 163.83L73.4367 165.768L190.851 180.636Z" fill="#483018"/>
<path id="Vector_12" d="M64.2328 170.559C67.5487 173.386 70.5967 174.172 74.7169 175.001C90.0507 178.083 107.501 179.376 123.208 181.562C123.535 181.606 123.871 181.651 124.198 181.695C143.971 184.441 166.988 188.976 186.543 190.13C208.298 191.411 201.962 167.184 202.078 152.921C209.165 150.594 215.813 147.039 221.264 141.902C223.839 139.479 225.335 136.023 228.357 134.316C223.14 143.677 212.383 149.75 202.977 154.02C205.145 172.261 207.584 193.259 182.846 191.686C149.534 189.577 114.373 180.497 80.8268 177.883C73.2386 175.053 69.6015 177.282 64.2342 170.55L64.2328 170.559Z" fill="#241D15"/>
<path id="Vector_13" d="M77.0338 68.4955L75.9288 69.3638L76.8349 61.1021C71.7582 51.8496 63.8485 55.5662 58.6925 62.4669C45.7923 79.7575 45.1032 108.314 58.7435 125.477C61.8001 129.327 67.3718 132.015 69.5209 135.944C68.7799 141.719 65.2672 147.199 63.7126 152.955C62.929 155.842 62.9291 158.895 62.4509 161.833C62.2266 163.194 61.1317 163.912 61.0892 164.078C61.122 153.854 65.8316 145.039 67.8477 135.425C49.9007 120.673 41.6376 96.1656 50.5865 73.9668C52.772 68.5386 57.4854 61.185 61.9885 57.4711C71.5282 49.6015 80.3374 57.8575 77.0437 68.4969L77.0338 68.4955Z" fill="#241D15"/>
<path id="Vector_14" d="M228.491 133.326C235.274 120.579 238.048 106.857 234.767 92.5967C232.746 83.7777 227.708 73.049 216.918 77.3434C223.2 71.2803 229.493 77.8051 232.621 83.5795C240.249 97.6615 239.831 121.458 228.491 133.326Z" fill="#241D15"/>
<path id="Vector_15" d="M202.284 103.58C208.575 96.7019 211.876 88.6936 213.801 79.6023C214.048 78.4466 215.316 78.5375 215.795 78.1992C213.592 80.8538 214.377 84.3561 213.456 87.3655C211.432 93.9845 207.592 99.3502 202.284 103.58Z" fill="#241D15"/>
<path id="Vector_16" d="M158.1 87.5249C147.561 77.6844 133.584 77.8291 123.837 88.5729C122.652 89.8838 122.537 91.9241 121.051 93.0734C119.452 94.3182 112.292 95.5464 109.496 96.5487C106.859 97.4919 102.009 100.716 99.8705 100.809C103.722 97.9644 109.106 95.4076 113.582 93.7559C115.663 92.9792 118.054 93.4036 119.711 92.4789C121.171 91.6687 125.156 85.7484 127.378 83.8521C137.297 75.3385 149.932 78.106 158.11 87.5262L158.1 87.5249Z" fill="#241D15"/>
<path id="Vector_17" d="M88.6646 94.2546C86.2773 92.0875 84.1083 89.2747 82.6746 86.3901L88.6646 94.2546Z" fill="#241D15"/>
<path id="Vector_18" d="M142.843 163.056L143.207 164.093L143.833 163.19C149.582 163.968 155.5 165.736 161.512 166.589C165.783 167.197 170.103 167.742 174.377 168.33C176.03 168.553 177.672 168.776 179.325 168.999L193.18 170.874C192.812 174.411 191.14 177.158 190.851 180.636L72.0976 164.569L73.4364 154.673C86.6248 156.407 99.8371 158.336 113.021 160.029C120.27 160.969 127.547 162.004 134.792 162.974C137.811 163.383 140.765 162.775 142.843 163.056Z" fill="#B4AB9B"/>
<path id="Vector_19" d="M152.588 105.926C152.563 106.255 152.468 106.585 152.454 106.916C152.246 112.843 150.531 119.635 149.91 125.718C149.772 127.04 149.513 128.355 149.374 129.677C148.792 135.1 149.021 140.039 148.222 145.644C147.89 147.948 147.615 150.279 147.285 152.572L121.545 149.089C121.747 147.444 122.022 145.788 122.214 144.141C122.777 139.532 123.436 134.884 124.089 130.287C126.067 128.922 125.796 124.965 126.149 122.504C127.089 115.929 127.897 109.287 128.827 102.711L152.578 105.925L152.588 105.926Z" fill="#B4AB9B"/>
<path id="Vector_20" d="M191.683 159.586L159.159 154.188C159.305 152.213 159.876 150.224 159.963 148.24C159.989 147.75 160.165 147.27 160.161 146.776L159.251 146.129C159.576 142.837 160.315 139.531 160.59 136.233C160.675 135.236 160.909 134.25 160.992 133.264C161.117 131.668 160.494 129.79 160.692 127.731C161.234 121.939 162.52 116.158 163.082 110.369C181.932 118.593 189.006 140.641 191.693 159.587L191.683 159.586Z" fill="#9A8872"/>
<path id="Vector_21" d="M114.552 118.919C114.488 119.243 114.472 119.583 114.418 119.909C114.3 120.558 114.259 121.228 114.15 121.888C113.488 125.809 113.147 129.824 112.543 133.763C112.139 136.379 111.993 139.1 111.472 141.68C107.873 140.276 109.655 145.727 108.822 146.37L79.1339 142.354C87.2417 126.148 99.654 109.708 117.55 104.209C117.666 109.384 115.417 114.239 114.552 118.919Z" fill="#9A8872"/>
<path id="Vector_22" d="M201.021 142.71C200.462 142.816 198.786 142.771 199.13 141.79L191.687 122.321C201.272 119.698 211.184 111.385 216.675 103.199C217.572 101.859 217.494 100.428 217.931 99.6506C218.195 99.1924 219.375 98.6668 220.026 97.203C221.168 94.6467 222.143 91.9872 222.383 89.1678C226.512 93.2837 227.142 104.787 226.59 110.436C225.733 119.299 217.553 132.834 210.219 137.888C208.906 138.799 202.126 142.507 201.021 142.71Z" fill="#F5EAC8"/>
<path id="Vector_23" d="M73.0985 90.1329C73.2977 90.5226 73.0889 91.6936 73.7026 92.744C76.9367 98.2605 82.6428 103.829 87.337 108.163L87.3345 110.49L75.3199 125.704C74.9277 126.145 67.203 118.811 66.4149 117.858C65.8777 117.211 63.2986 113.557 62.9592 112.937C56.4391 101.02 57.0056 85.8092 62.9091 73.8299C63.5491 72.5259 65.2683 69.3523 66.8611 69.1244C67.4603 77.358 69.3435 82.9537 73.1012 90.1131L73.0985 90.1329Z" fill="#F5EAC8"/>
<path id="Vector_24" d="M190.851 180.636L73.4367 165.769L71.3208 163.83L73.5758 153.12L192.866 168.796C193.889 168.834 193.246 170.157 193.179 170.874L186.252 169.937L185.717 169.048C183.919 168.412 181.979 168.149 180.077 168.285L179.325 169C177.672 168.776 176.029 168.554 174.377 168.33L173.833 167.43C170.035 166.977 164.848 164.945 161.512 166.59C155.5 165.736 149.582 163.968 143.833 163.19C143.506 163.146 143.17 163.1 142.843 163.056C140.765 162.775 137.812 163.373 134.792 162.975C134.026 161.188 131.144 161.483 129.495 161.24C125.868 160.709 122.226 160.216 118.589 159.765C116.924 159.56 114.235 158.5 113.021 160.029C99.8284 158.325 86.616 156.396 73.4363 154.674L72.0961 164.58L190.85 180.646L190.851 180.636Z" fill="#241D15"/>
<path id="Vector_25" d="M186.543 190.131C166.988 188.976 143.971 184.441 124.198 181.696L186.543 190.131Z" fill="#56402F"/>
<path id="Vector_26" d="M159.963 148.241C159.868 150.213 159.295 152.211 159.159 154.188L191.683 159.586C191.697 159.638 193.536 160.421 192.044 160.643L158.677 154.99L157.608 154.029C157.515 152.485 156.518 147.039 159.963 148.241Z" fill="#402914"/>
<path id="Vector_27" d="M100.773 146.279L101.629 147.403L102.752 146.547C103.079 146.591 103.415 146.637 103.742 146.681C103.88 149.753 101.971 148.376 100.05 148.197C92.7672 147.504 85.5222 146.01 78.2488 145.247C77.0832 144.999 78.7125 143.98 79.0114 143.335L100.783 146.28L100.773 146.279Z" fill="#241D15"/>
<path id="Vector_28" d="M123.208 181.562C107.501 179.376 90.0507 178.084 74.717 175.001L123.208 181.562Z" fill="#56402F"/>
<path id="Vector_29" d="M152.588 105.926L128.837 102.713C127.917 109.29 127.109 115.932 126.159 122.505C124.181 123.87 124.452 127.827 124.099 130.288C123.446 134.886 122.787 139.533 122.224 144.143C120.705 142.929 121.756 140.23 121.96 138.574C123.486 126.396 126.213 114.662 128.291 102.578L152.588 105.926Z" fill="#241D15"/>
<path id="Vector_30" d="M217.931 99.6506L221.661 87.0547L224.566 87.4781C225.322 93.5864 228.219 99.3596 228.102 105.662C227.802 121.292 216.662 138.901 201.021 142.71C202.126 142.507 208.896 138.798 210.218 137.888C217.553 132.834 225.733 119.299 226.59 110.436C227.142 104.787 226.502 93.2824 222.383 89.1678C222.152 91.9885 221.176 94.658 220.026 97.203C219.374 98.6668 218.196 99.1826 217.931 99.6506Z" fill="#241D15"/>
<path id="Vector_31" d="M151.092 94.6386L134.268 92.3625C138.172 88.5372 148.345 89.9136 151.092 94.6386Z" fill="#B4AB9B"/>
<path id="Vector_32" d="M73.0986 90.1332C69.3423 82.964 67.4577 77.3781 66.8585 69.1445C65.2671 69.3626 63.5564 72.5473 62.9065 73.8501C57.0043 85.8194 56.4266 101.039 62.9566 112.957C54.5841 100.729 54.7886 83.9476 63.0959 71.7796C64.5647 71.2024 65.8164 66.1215 67.6198 67.2422C69.2841 68.2735 68.4905 73.618 68.9208 76.0242C69.7858 80.8775 71.7884 85.4414 73.1071 90.1445L73.0986 90.1332Z" fill="#241D15"/>
<path id="Vector_33" d="M111.472 141.68C111.068 143.701 110.053 145.469 109.679 147.484C107.697 147.317 105.714 146.927 103.742 146.681C103.415 146.636 103.079 146.591 102.752 146.547C102.426 146.503 102.089 146.457 101.763 146.413C101.436 146.369 101.099 146.323 100.773 146.279L79.0014 143.333C79.1419 143.04 78.9962 142.627 79.1353 142.344L108.824 146.36C109.655 145.727 107.873 140.276 111.472 141.68Z" fill="#B4AB9B"/>
<path id="Vector_34" d="M163.072 110.368C162.51 116.157 161.224 121.938 160.682 127.73C160.494 129.791 161.116 131.678 160.982 133.263C157.92 133.403 159.277 131.49 159.466 129.571C160.14 122.95 161.424 116.362 162.148 109.749C162.758 108.37 163.024 110.351 163.07 110.377L163.072 110.368Z" fill="#241D15"/>
<path id="Vector_35" d="M117.55 104.209C119.126 104.473 118.166 106.58 118.082 107.798C117.822 111.28 117.184 115.254 116.604 118.723C116.286 120.625 117.076 122.828 114.161 121.879C114.271 121.219 114.311 120.549 114.429 119.9L115.466 119.537L114.563 118.911C115.428 114.231 117.677 109.376 117.561 104.2L117.55 104.209Z" fill="#241D15"/>
<path id="Vector_36" d="M149.374 129.677C152.447 129.538 151.07 131.448 150.89 133.369C150.538 137.09 150.372 142.64 148.222 145.644C149.021 140.039 148.792 135.1 149.374 129.677Z" fill="#241D15"/>
<path id="Vector_37" d="M149.91 125.718C150.532 119.635 152.246 112.843 152.454 106.916C153.741 110.809 152.242 116.299 151.645 120.421C151.401 122.071 151.695 124.962 149.91 125.718Z" fill="#241D15"/>
<path id="Vector_38" d="M112.543 133.763L111.657 147.762C110.999 147.713 110.346 147.544 109.678 147.494C110.051 145.479 111.066 143.711 111.471 141.69C111.991 139.11 112.138 136.389 112.542 133.773L112.543 133.763Z" fill="#241D15"/>
<path id="Vector_39" d="M159.242 146.128L158.137 146.996L160.58 136.231C160.305 139.53 159.566 142.836 159.242 146.128Z" fill="#402914"/>
<path id="Vector_40" d="M134.792 162.974C127.547 162.004 120.27 160.969 113.021 160.029C114.235 158.5 116.934 159.561 118.589 159.764C122.226 160.216 125.868 160.709 129.495 161.24C131.145 161.483 134.036 161.189 134.792 162.974Z" fill="#483018"/>
<path id="Vector_41" d="M174.377 168.33C170.103 167.742 165.783 167.197 161.512 166.589C164.858 164.946 170.045 166.978 173.834 167.43L174.377 168.33Z" fill="#483018"/>
<path id="Vector_42" d="M186.252 169.937L179.325 168.999L180.077 168.285C181.979 168.149 183.919 168.412 185.717 169.048L186.252 169.937Z" fill="#483018"/>
<path id="Vector_43" d="M142.843 163.056C143.17 163.1 143.506 163.146 143.833 163.19L143.207 164.093L142.843 163.056Z" fill="#483018"/>
<path id="Vector_44" d="M124.099 130.288C124.452 127.827 124.181 123.87 126.159 122.505C125.806 124.967 126.077 128.923 124.099 130.288Z" fill="#56402F"/>
<path id="Vector_45" d="M114.418 119.909C114.472 119.584 114.488 119.243 114.552 118.919L115.455 119.545L114.418 119.909Z" fill="#483018"/>
<path id="Vector_46" d="M101.629 147.403L100.773 146.279C101.1 146.323 101.436 146.369 101.763 146.413L101.629 147.403Z" fill="#56402F"/>
<path id="Vector_47" d="M101.629 147.402L101.762 146.413C102.089 146.457 102.425 146.503 102.752 146.547L101.629 147.402Z" fill="#483018"/>
</g>
</g>
</g>
<defs>
<clipPath id="clip0_12_23">
<rect width="264" height="555" fill="white"/>
</clipPath>
<clipPath id="clip1_12_23">
<rect width="256.23" height="446.67" fill="white" transform="translate(4 101)"/>
</clipPath>
</defs>
</svg>
