<svg width="308" height="574" viewBox="0 0 308 574" fill="none" xmlns="http://www.w3.org/2000/svg">
<g clip-path="url(#clip0_10_195)">
<path d="M254.543 351.067C252.023 348.113 238.046 335.252 234.19 331.259C232.138 330.671 230.207 327.774 228.489 327.631C223.603 326.545 221.475 328.626 219.852 329.574C183.018 356.126 119.877 336.597 80.2283 324.448C73.9115 324.172 68.1532 323.274 63.4079 328.05C57.4048 337.809 32.1662 355.208 29.9698 368.919C28.0135 376.733 36.759 389.643 44.8479 391.253C44.8481 391.243 44.8482 391.233 44.8485 391.213L71.8614 403.701C72.8254 415.936 75.9728 432.35 85.1138 449.276C89.8745 458.091 96.2198 469.528 109.441 479.139C120.869 487.445 132.257 490.619 139.109 491.963C144.197 493.652 151.847 495.866 161.34 496.435C167.456 496.798 172.767 496.03 183.426 495.425C192.897 494.723 235.243 490.148 242.386 488.465C269.694 482.885 269.248 477.498 262.784 463.019C259.509 453.734 256.551 446.933 254.057 436.918C247.742 413.661 242.984 407.625 246.786 401.586C248.932 398.255 266.157 388.398 270.583 386.508C265.312 364.435 258.577 355.192 254.553 351.057L254.543 351.067ZM259.972 381.374C259.064 384.192 246.632 388.623 243.375 390.639C242.372 384.205 240.189 354.222 229.419 368.128C233.763 396.609 242.723 426.104 245.907 454.569C246.317 458.235 248.025 470.9 245.847 472.99C241.489 477.181 235.44 478.529 211.824 479.559C193.992 480.337 185.076 480.736 180.206 480.68C152.458 480.383 138.578 480.234 130.786 475.928C116.75 468.157 122.145 460.499 102.188 446.137C96.7703 442.243 89.9746 438.201 84.9213 429.571C82.6146 425.629 80.132 421.385 79.9903 415.623C79.7513 405.969 86.2353 398.356 89.5425 385.33C90.0288 383.396 90.8591 379.697 88.8547 377.8C88.203 377.181 87.2285 376.768 85.8195 376.688C79.5737 376.334 77.8185 393.641 75.1166 393.765C73.5955 393.834 50.5858 383.351 47.7086 381.651C37.4599 375.592 39.6052 373.741 45.4282 364.729C48.5949 359.831 70.6026 333.638 74.9224 332.946C119.928 350.499 180.865 364.408 225.612 340.623C227.892 340.644 242.108 354.269 244.424 356.85C247.832 360.657 261.194 377.58 259.962 381.363L259.972 381.374Z" fill="#4F380D"/>
<path d="M243.375 390.639C242.372 384.205 240.189 354.223 229.419 368.128C235.286 400.76 235.202 403.319 247.282 442.397C254.855 466.542 255.809 468.445 254.138 471.483C251.451 476.367 246.137 476.635 213.477 481.552C204.699 482.873 189.2 486.332 172.039 486.299C155.288 486.262 147.429 483.915 144.096 482.64C143.967 482.588 143.708 482.484 143.082 482.236C134.418 478.758 130.091 477.009 127.914 476.039C125.399 474.915 120.678 472.801 115.845 469.275C112.538 466.86 107.664 462.663 103.107 455.811C98.4511 450.297 95.0296 445.23 92.6031 441.277C90.6562 438.09 87.9952 433.723 85.4093 427.518C82.7941 421.252 81.3193 415.701 80.4552 411.579C81.2009 408.959 82.3647 405.004 83.9303 400.185C85.1618 396.401 85.6175 395.247 86.5078 392.279C90.2382 379.759 88.7926 377.949 88.1299 377.41C87.1706 376.617 85.9291 376.72 85.8192 376.709C79.5735 376.354 77.8083 393.661 75.1164 393.785C73.5953 393.854 50.5855 383.371 47.7083 381.671C37.4596 375.612 39.605 373.761 45.4279 364.749C48.5947 359.852 70.6024 333.658 74.9222 332.967C119.928 350.519 180.865 364.428 225.612 340.643C227.892 340.664 242.108 354.289 244.423 356.87C247.832 360.677 261.193 377.6 259.962 381.384C259.053 384.202 246.622 388.633 243.364 390.649L243.375 390.639ZM71.8444 365.918C80.8713 360.32 72.4534 350.535 66.3672 352.422C65.8851 352.576 60.4139 359.252 60.1055 359.868C57.886 364.238 65.4582 368.541 70.4719 367.569C71.3944 367.392 71.4408 366.182 71.8544 365.918L71.8444 365.918ZM113.816 360.907C109.764 358.102 103.876 361.572 103.516 365.268C102.654 374.277 123.675 367.722 113.816 360.907ZM190.007 365.042C188.734 363.065 180.048 361.957 177.193 363.068C174.338 364.179 170.002 371.921 171.628 374.423C172.784 376.199 186.976 378.342 187.603 377.841C188.948 376.749 191.222 366.919 190.007 365.032L190.007 365.042ZM208.692 379.577C205.081 375.198 198.036 376.952 194.735 380.688C189.332 386.795 185.445 404.214 194.471 408.957C197.361 410.476 199.998 410.012 201.898 410.758C203.231 411.286 202.245 413.173 203.392 414.148C205.428 415.906 211.549 417.32 213.947 415.332C218.913 411.219 212.964 404.438 213.659 401.917C214.553 398.679 221.312 398.76 220.729 393.132C220.029 386.462 211.618 387.228 210.4 385.611C209.565 384.5 210.394 381.641 208.702 379.577L208.692 379.577ZM135.116 397.89C132.876 386.068 118.042 384.817 117.389 398.299C117.238 401.317 119.574 406.05 118.878 408.72C117.801 412.856 108.174 414.826 108.496 422.041C108.98 432.808 122.156 425.796 126.446 428.765C128.457 430.152 126.5 440.227 137.522 439.436C147.803 438.696 142.785 426.717 144.295 425.317C145.014 424.647 161.717 424.494 161.104 417.385C160.447 409.785 152.795 410.641 151.597 408.995C151.116 408.338 159.294 398.198 153.017 394.283C150.835 392.923 137.671 392.384 137.595 397.233L135.116 397.89ZM189.454 444.072C195.121 445.809 204.466 439.585 203.072 434.756C202.565 433.019 197.454 425.719 195.439 425.342C187.149 423.789 182.383 441.906 189.464 444.072L189.454 444.072ZM208.349 454.149C209.652 455.417 222.329 458.66 224.646 457.421C228.766 455.227 232.48 435.825 218.316 438.213C215.57 438.676 215.821 440.77 215.006 441.149C213.527 441.839 211.653 441.333 209.909 442.41C205.774 444.954 204.983 450.853 208.359 454.15L208.349 454.149ZM162.907 445.182C161.655 444.515 155.993 448.378 155.692 449.904C152.91 464.038 172.068 462.818 167.478 450.264C166.841 448.535 162.869 447.951 162.907 445.182Z" fill="#B9DAD9"/>
<path d="M135.116 397.89L137.595 397.233C137.681 392.384 150.835 392.923 153.017 394.283C159.294 398.198 151.116 408.338 151.597 408.995C152.795 410.641 160.447 409.785 161.104 417.385C161.717 424.504 145.024 424.657 144.295 425.317C142.775 426.717 147.803 438.696 137.522 439.436C126.5 440.227 128.447 430.152 126.446 428.765C122.156 425.796 108.979 432.818 108.496 422.041C108.174 414.826 117.801 412.856 118.878 408.72C119.574 406.05 117.248 401.318 117.389 398.299C118.042 384.817 132.876 386.068 135.116 397.89Z" fill="#FBDA42"/>
<path d="M208.692 379.577C210.394 381.64 209.555 384.499 210.39 385.611C211.608 387.227 220.019 386.462 220.719 393.132C221.312 398.76 214.543 398.678 213.649 401.917C212.954 404.437 218.913 411.219 213.937 415.332C211.539 417.319 205.418 415.906 203.382 414.148C202.245 413.163 203.231 411.276 201.888 410.758C199.988 410.012 197.351 410.476 194.461 408.957C185.435 404.214 189.322 386.805 194.725 380.688C198.026 376.952 205.071 375.198 208.682 379.577L208.692 379.577Z" fill="#45A9AC"/>
<path d="M208.349 454.149C204.973 450.853 205.763 444.963 209.899 442.409C211.653 441.333 213.517 441.838 214.996 441.148C215.811 440.77 215.56 438.676 218.306 438.213C232.47 435.825 228.756 455.227 224.636 457.421C222.319 458.66 209.632 455.417 208.339 454.149L208.349 454.149Z" fill="#D66B23"/>
<path d="M189.454 444.072C182.373 441.906 187.139 423.789 195.429 425.341C197.454 425.719 202.555 433.019 203.062 434.756C204.457 439.575 195.121 445.799 189.444 444.072L189.454 444.072Z" fill="#F38671"/>
<path d="M190.007 365.042C191.222 366.929 188.948 376.749 187.603 377.851C186.976 378.352 172.784 376.209 171.628 374.434C170.002 371.931 174.468 364.131 177.193 363.078C179.917 362.025 188.734 363.075 190.007 365.052L190.007 365.042Z" fill="#85A829"/>
<path d="M71.8444 365.918C71.431 366.172 71.3844 367.392 70.4619 367.569C65.4584 368.531 57.876 364.238 60.0955 359.868C60.4039 359.252 65.8751 352.576 66.3572 352.422C72.4532 350.545 80.8613 360.32 71.8344 365.918L71.8444 365.918Z" fill="#45A9AC"/>
<path d="M162.907 445.182C162.869 447.951 166.841 448.535 167.478 450.264C172.068 462.818 152.91 464.038 155.692 449.904C155.993 448.378 161.655 444.515 162.907 445.182Z" fill="#FBDA42"/>
<path d="M113.816 360.907C123.675 367.722 102.654 374.287 103.516 365.268C103.876 361.572 109.764 358.102 113.816 360.907Z" fill="#F38671"/>
</g>
<defs>
<clipPath id="clip0_10_195">
<rect width="241.08" height="171.1" fill="white" transform="translate(30.3352 323.6) rotate(0.778027)"/>
</clipPath>
</defs>
</svg>
