<svg width="308" height="574" viewBox="0 0 308 574" fill="none" xmlns="http://www.w3.org/2000/svg">
<g clip-path="url(#clip0_21_208)">
<path d="M241.8 341.36C240.34 340.76 236.92 339.59 233.21 336.59C229.04 333.21 229.72 331.74 227.17 330.3C223.44 328.21 216.99 330.07 204.66 335.21C199.93 337.18 197.64 338.34 196.43 339.09C184.68 346.42 183.83 354.54 177.1 356.15C171.85 357.4 167.6 353.47 161.47 349.42C151.23 342.66 133.96 338.24 99.38 329.51C93.63 328.06 85.4 326.08 75.35 324.01C68.32 326.85 63.1 330.39 59.65 333.1C57.43 334.85 50.88 340.24 44.98 349.37C42.96 352.49 43.76 351.82 38.85 361.1C31.61 374.81 28.95 378.02 30.37 381.43C31.66 384.52 35.36 385.74 39.64 386.78C50.72 389.46 61.79 392.13 72.87 394.81C72.06 397.87 70.72 402.81 69.01 408.89C66.67 417.17 63.71 427.25 61.05 439.61C58.51 451.44 58.46 455.11 60.73 458.49C63.25 462.24 67.74 464.56 70.48 465.7C73.35 466.9 78.13 467.87 81.93 468.98C96.86 471.85 109.61 473.86 119.37 475.26C165.64 481.89 173.02 476.66 179.57 474.28C183.24 472.95 189.07 467.79 190.59 467.57C193.37 467.18 194.17 470.06 197.3 472.24C202.34 475.75 207.38 474.31 225.11 472.45C225.11 472.45 255.55 469.26 258.81 464.09C258.88 463.97 258.95 463.85 258.95 463.85C259.18 463.45 259.57 462.61 259.75 461.19C260.4 455.86 255.6 446.48 254.78 444.9C251.25 438.11 249.4 434.06 248.15 430.13C247.38 427.7 247.05 426 246.68 424.35C242.2 404.35 236.45 396.72 240.75 391.08C241.08 390.65 242.77 389.58 246.13 387.46C257.35 380.39 259.7 380.02 261 378.7C261 378.7 261.28 378.38 261.51 378.05C264.15 374.33 256.54 347.42 241.8 341.38V341.36ZM179.54 464.03C173.04 468.9 147.6 467.97 138.49 467.46C116.51 466.23 92.44 460.63 71.8 453.66C73.58 427.98 82.06 403.49 90.95 379.35C90.73 373.79 85.36 372.86 81.3 376.61C79.92 379.57 78.09 382.38 77.67 385.69C72.76 383.33 68.04 382.53 63.23 381.15C56.94 379.35 50.64 376.47 43.94 376.61C42.88 375.7 48.27 364.69 49.3 362.93C50.83 360.33 52.82 359.53 53.58 358.45C57.65 352.74 64.03 343.3 69.19 338.78C70.78 337.39 72.51 338.24 72.86 338.02C72.98 337.95 72.56 336.45 73.11 336.05C74.91 334.74 85.18 337.17 88.11 337.85C106.34 342.07 127.22 348.36 145.17 353.91C149.49 355.25 153.13 356.96 157.22 358.45C159.47 359.27 163.12 358.67 166.51 360.49C176.05 365.62 174.99 392.74 176.5 402.71C177.89 411.85 180.06 420.73 181.32 429.95C182.53 438.78 187.42 458.12 179.54 464.02V464.03ZM243.99 450.39C245.02 452.98 246.76 455.3 246.41 458.33C237.3 458.44 201.33 469.78 197.03 459.73C194.59 445.44 192.04 431.11 189.91 416.78C187.94 403.55 184.32 384.15 183.76 371.5C183.27 360.42 188.56 356.83 197.62 350.54C201.06 348.15 218.75 336.7 221.08 342.02C222.51 345.27 218.38 344.69 218.68 345.4C219.08 346.37 220.55 346.85 221.09 349.39C221.77 352.57 221.74 356.5 222.3 359.6C223.51 366.43 224.55 374.69 225.92 381.16C228.24 392.19 231.69 404.03 234.36 415.21C235.17 418.6 235.96 422.03 236.77 425.42L244 450.39H243.99ZM252.24 374.19L239.77 382.26C238.27 382.26 234.93 365.63 234.35 362.99C233.5 359.11 232.38 355.24 231.62 351.36C231.33 349.87 229.35 349.14 232.52 349.38C239.99 355.62 245.27 361.5 250.01 369.8C250.33 370.37 253.85 371.5 252.24 374.19Z" fill="#4F380D"/>
<path d="M145.17 353.91C128.58 370.27 162.15 385.79 157.22 358.45C158.85 358.31 162.92 358.16 166.51 360.49C168.04 361.48 169.21 362.75 169.52 363.1C169.52 363.1 171.08 364.83 172.2 367.19C173.66 370.24 175.63 383.93 176.5 402.71C172.83 393.77 164.83 390.34 159.96 392.07C157.21 393.05 154.96 396.18 153.84 402.44C152.1 412.14 163.72 411.24 163.06 415.54C162.35 420.15 153.06 421 153.65 429.24C154.48 440.94 168.85 442.05 176.14 435.29C177.74 433.8 177.24 429.72 181.32 429.95C182.53 438.78 187.42 458.12 179.54 464.02C173.04 468.89 147.6 467.96 138.49 467.45C116.51 466.22 92.44 460.62 71.8 453.65C73.58 427.97 82.06 403.48 90.95 379.34C90.73 373.78 85.36 372.85 81.3 376.6C81.67 375.8 81.44 374.04 82.23 372.42C85.96 364.79 104.87 344.58 87.65 341.7C80.85 340.56 74.76 345.07 72.87 338.02C72.99 337.95 72.57 336.45 73.12 336.05C74.92 334.74 85.19 337.17 88.12 337.85C106.35 342.07 127.23 348.36 145.18 353.91H145.17ZM122.49 384.37C124.07 386.46 131.21 387.21 134.3 385.09C144.01 378.44 135.81 360.58 128.28 355.63C124.88 353.4 113.95 352.53 112.23 356.44C106.74 368.87 118.68 365.38 121.09 367.54C121.43 367.84 120.01 370.03 120.27 371.32C120.45 372.22 121.65 373.09 121.78 373.99C122.09 376.22 121.57 383.14 122.5 384.37H122.49ZM114.62 414.81C120.38 408.39 124.55 390.01 112.02 390.17C100.27 390.32 93.69 405.75 96.96 415.2C95.44 416.58 78.42 409.61 81.54 424.58C82.75 430.41 88.55 427.16 89.6 430.71C90.53 433.83 84.8 445.98 92.18 448.76C98.3 451.07 103.89 434.53 108.4 434.49C112.76 458.52 138.56 455.72 125.89 429.97C154.32 431.12 137.39 419.96 133.06 406.18C128.48 402.46 114.43 420.63 112.66 421.49C110.68 422.44 107.77 421.6 107.84 420.32C107.91 419.04 113.62 415.94 114.62 414.82V414.81Z" fill="#5E8B30"/>
<path d="M243.99 450.39C245.02 452.98 246.76 455.3 246.41 458.33C237.3 458.44 201.33 469.78 197.03 459.73C194.59 445.44 192.04 431.11 189.91 416.78C187.94 403.55 184.32 384.15 183.76 371.5C183.27 360.42 188.56 356.83 197.62 350.54C201.06 348.15 218.75 336.7 221.08 342.01C222.51 345.26 218.38 344.68 218.68 345.39C219.08 346.36 220.55 346.84 221.09 349.38C218.17 349.71 214.93 346.57 213.04 346.29C208.45 345.6 192.45 355.78 193.38 361.86C199.24 358.88 203.32 362.92 207.04 362.95C211.4 362.99 217.87 360.46 222.3 359.6C223.51 366.43 224.55 374.69 225.92 381.16C220.95 380.13 219.47 373.92 213.47 377.67C212.88 378.04 205.75 388.15 205.62 388.81C204.9 392.53 208.17 395.05 207.84 396.44C207.03 399.91 191.08 397 193.54 405.32C195.48 411.85 210.09 410.48 215.04 407.81C209.43 416.86 207.3 431.93 222.95 430.02C233.29 428.76 225.77 417.22 234.35 415.2C235.16 418.59 235.95 422.02 236.76 425.41C239.12 435.29 240.11 440.64 243.99 450.38V450.39Z" fill="#5E8B30"/>
<path d="M225.91 381.15C228.23 392.18 231.68 404.02 234.35 415.2C225.77 417.22 233.29 428.76 222.95 430.02C207.3 431.93 209.43 416.86 215.04 407.81C210.09 410.47 195.47 411.85 193.54 405.32C191.08 397 207.03 399.91 207.84 396.44C208.17 395.04 204.9 392.53 205.62 388.81C205.75 388.15 212.88 378.04 213.47 377.67C219.47 373.92 220.95 380.13 225.92 381.16L225.91 381.15Z" fill="#85A829"/>
<path d="M72.87 338.02C74.76 345.07 80.85 340.56 87.65 341.7C104.87 344.59 85.97 364.8 82.23 372.42C81.44 374.04 81.68 375.8 81.3 376.6C79.92 379.56 78.09 382.37 77.67 385.68C72.76 383.32 68.04 382.52 63.23 381.14V367.52C54.71 370.41 52.93 365.87 53.59 358.44C57.66 352.73 64.04 343.29 69.2 338.77C70.79 337.38 72.52 338.23 72.87 338.01V338.02Z" fill="#85A829"/>
<path d="M176.5 402.72C177.89 411.86 180.06 420.74 181.32 429.96C177.24 429.73 177.74 433.82 176.14 435.3C168.85 442.06 154.48 440.95 153.65 429.25C153.06 421.01 162.36 420.15 163.06 415.55C163.72 411.25 152.09 412.15 153.84 402.45C154.05 401.26 154.77 394.26 159.96 392.08C165.06 389.94 170.64 393.99 173.11 396.67C175.12 398.85 176.05 401.21 176.5 402.73V402.72Z" fill="#85A829"/>
<path d="M221.09 349.37C221.77 352.55 221.74 356.48 222.3 359.58C217.87 360.44 211.4 362.97 207.04 362.93C203.32 362.9 199.24 358.86 193.38 361.84C192.44 355.76 208.45 345.58 213.04 346.27C214.94 346.55 218.18 349.69 221.09 349.36V349.37Z" fill="#85A829"/>
<path d="M157.22 358.45C162.15 385.79 128.57 370.27 145.17 353.91C149.49 355.25 153.13 356.96 157.22 358.45Z" fill="#85A829"/>
<path d="M53.59 358.45C52.93 365.88 54.71 370.43 63.22 367.53V381.15C56.94 379.35 50.64 376.47 43.94 376.6C42.88 375.69 48.27 364.68 49.3 362.92C50.83 360.32 52.82 359.52 53.58 358.44L53.59 358.45Z" fill="#5E8B30"/>
<path d="M234.35 362.99C238.49 361.87 235.9 368.42 238.57 368.64C240 368.76 238.11 361.89 244.71 366.34C245.57 366.92 247.62 372.53 250.02 369.8C250.34 370.37 253.86 371.5 252.25 374.19L239.78 382.26C238.28 382.26 234.94 365.63 234.36 362.99H234.35Z" fill="#85A829"/>
<path d="M250.01 369.8C247.61 372.53 245.56 366.92 244.7 366.34C238.1 361.89 239.99 368.76 238.56 368.64C235.89 368.42 238.48 361.87 234.34 362.99C233.49 359.11 232.37 355.24 231.61 351.36C231.32 349.87 229.34 349.14 232.51 349.38C239.98 355.63 245.26 361.5 250 369.8H250.01Z" fill="#5E8B30"/>
<path d="M243.99 450.39C240.11 440.65 239.12 435.3 236.76 425.42L243.99 450.39Z" fill="#85A829"/>
<path d="M114.62 414.81C113.62 415.93 107.91 419 107.84 420.31C107.77 421.62 110.69 422.43 112.66 421.48C114.42 420.63 128.48 402.46 133.06 406.17C137.4 419.96 154.32 431.11 125.89 429.96C138.56 455.71 112.76 458.51 108.4 434.48C103.89 434.53 98.3 451.06 92.18 448.75C84.81 445.97 90.53 433.82 89.6 430.7C88.55 427.16 82.75 430.4 81.54 424.57C78.42 409.6 95.44 416.57 96.96 415.19C93.69 405.74 100.27 390.31 112.02 390.16C124.55 390 120.38 408.38 114.62 414.8V414.81Z" fill="#85A829"/>
<path d="M122.49 384.37C121.56 383.14 122.08 376.22 121.77 373.99C121.64 373.09 120.45 372.22 120.26 371.32C120 370.02 121.42 367.84 121.08 367.54C118.67 365.38 106.74 368.88 112.22 356.44C113.94 352.54 124.87 353.4 128.27 355.63C135.8 360.58 144 378.43 134.29 385.09C131.2 387.21 124.06 386.46 122.48 384.37H122.49Z" fill="#85A829"/>
</g>
<defs>
<clipPath id="clip0_21_208">
<rect width="232.03" height="154.49" fill="white" transform="translate(30 324)"/>
</clipPath>
</defs>
</svg>
