<svg width="308" height="574" viewBox="0 0 308 574" fill="none" xmlns="http://www.w3.org/2000/svg">
<path d="M71.8308 320C103.764 329.252 160.481 356.574 193.415 349.35C204.086 347.007 216.614 333.919 224.765 327.305C225.64 327.568 227.294 328.096 229.307 328.918C231.992 330.297 235.766 332.489 239.851 335.796C240.23 336.1 244.17 339.306 248.041 343.74C266.143 364.436 273.331 400.858 273.856 404.226C274.089 405.707 274.002 408.497 273.856 409.42C273.584 411.125 273.224 412.139 272.835 412.89C272.835 412.89 272.183 414.27 271.181 415.426C269.479 417.394 263.575 418.612 256.212 416.938C253.848 416.501 251.494 416.075 249.13 415.639C249.49 418.277 249.84 420.915 250.2 423.552L266.045 506.662C266.045 581.321 144.5 521.941 114.823 496.142C109.357 491.394 68.3972 446.339 67.5413 442.991C66.1115 437.401 69.2046 423.999 65.8586 420.093L30.0835 414.625C29.7528 405.666 30.3169 394.456 33.3711 382.058C41.493 348.934 62.0846 328.481 71.8308 320ZM81.0226 436.305C93.5604 440.951 104.999 428.899 109.114 419.342C122.284 388.693 98.2779 352.302 73.6497 332.529C53.739 351.623 41.9015 376.499 41.3568 403.181L74.0971 406.316L79.3788 379.431L84.2519 379.796C94.6109 398.585 76.4218 416.867 81.0323 436.315L81.0226 436.305ZM140.687 403.191C139.422 374.977 134.15 346.296 98.9296 340.798C114.347 358.684 125.727 380.76 126.019 404.226L140.687 403.191ZM223.063 344.967C212.665 336.111 222.732 395.897 220.816 397.469L230.98 400.076L223.063 344.967ZM206.128 356.401C185.264 368.667 162.523 359.343 140.687 355.366L152.456 400.147L209.455 397.936L206.128 356.411V356.401ZM237.76 356.391L246.154 406.356C282.007 416.573 247.243 364.852 237.76 356.391ZM237.731 413.6C228.49 415.578 218.306 409.369 210.097 409.339C203.872 409.319 193.62 413.285 186.364 413.549C165.344 414.31 144.295 412.616 123.383 415.842C116.02 431.77 108.841 444.32 89.874 450.508C106.614 475.689 133.936 496.862 161.784 511.136C182.414 521.697 251.65 551.697 254.723 510.862C256.727 484.272 236.418 442.23 237.731 413.61V413.6Z" fill="#4F380D"/>
<path d="M81.0226 436.305C76.4121 416.857 94.6011 398.585 84.2421 379.786L79.369 379.421L74.0874 406.305L41.347 403.171C41.8917 376.489 53.7292 351.613 73.6496 332.519C98.2778 352.292 122.274 388.683 109.113 419.332C105.009 428.889 93.5604 440.941 81.0225 436.295L81.0226 436.305Z" fill="white"/>
<path d="M206.128 356.401L209.455 397.926L152.456 400.137L140.687 355.356C162.523 359.333 185.265 368.657 206.128 356.391L206.128 356.401Z" fill="white"/>
<path d="M140.687 403.191L126.019 404.226C125.737 380.76 114.347 358.684 98.9296 340.798C134.15 346.296 139.422 374.977 140.687 403.191Z" fill="#5C71A8"/>
<path d="M246.154 406.356C282.007 416.573 247.243 364.852 237.76 356.391L246.154 406.356Z" fill="white"/>
<path d="M223.063 344.967L230.98 400.076L220.816 397.469C222.732 395.897 212.665 336.111 223.063 344.967Z" fill="#5C71A8"/>
<path d="M237.731 413.6C236.418 442.22 256.717 484.262 254.723 510.852C251.65 551.677 182.414 521.687 161.784 511.126C133.936 496.862 106.604 475.689 89.8739 450.498C108.841 444.32 116.019 431.76 123.383 415.832C139.84 412.068 154.304 410.232 165.869 409.329C175.294 408.588 190.381 407.482 210.097 409.329C221.283 410.374 230.698 412.068 237.731 413.59L237.731 413.6ZM199.154 422.223C192.18 422.142 154.129 422.447 151.337 424.963C130.532 486.382 243.528 485.367 214.026 423.481C209.396 420.57 204.086 422.284 199.154 422.223Z" fill="#5C71A8"/>
<path d="M199.154 422.223C204.095 422.284 209.396 420.57 214.026 423.481C243.528 485.378 130.532 486.382 151.337 424.963C154.129 422.436 192.17 422.132 199.154 422.223ZM164.79 452.73C180.391 469.602 213.735 458.422 207.908 434.317L158.74 434.377C158.564 440.059 160.792 448.398 164.79 452.73Z" fill="#4F380D"/>
<path d="M164.79 452.73C160.782 448.398 158.555 440.059 158.74 434.377L207.908 434.317C213.744 458.422 180.391 469.602 164.79 452.73Z" fill="#5C71A8"/>
</svg>
