<svg width="308" height="574" viewBox="0 0 308 574" fill="none" xmlns="http://www.w3.org/2000/svg">
<g clip-path="url(#clip0_22_235)">
<path d="M270.278 378.619C272.329 370.201 261.475 359.512 239.78 338.124C238.713 337.066 236.486 334.915 232.797 333.358C227.785 331.243 222.89 331.399 220.071 331.71C205.935 341.987 190.624 351.283 179.39 364.257C178.448 364.671 171.838 361.031 164.892 356.995C156.318 352.017 150.032 348.393 148.398 347.368C136.98 340.239 94.8843 313.92 67.6603 325.422C64.4645 326.77 60.3044 328.573 55.1572 334.652C33.8372 359.786 29.4152 364.959 30.8187 372.297C32.3477 380.267 41.2592 385.816 42.3947 386.549C45.5787 388.594 48.89 389.763 51.2761 390.6C56.4487 392.426 60.7174 393.068 63.0548 393.41C66.6805 393.939 69.7702 394.093 72.0503 394.114C71.3916 397.259 70.903 400.772 70.7322 404.628C70.1985 417.253 73.482 427.607 76.3998 434.375C77.3792 438.668 79.5825 445.072 84.8297 450.869C84.8297 450.869 88.5861 454.87 93.949 457.71C128.025 475.705 232.469 465.552 232.469 465.552C236.549 465.16 252.131 463.444 254.348 456.337C254.747 455.044 254.805 453.458 254.385 450.321C253.362 442.694 251.985 438.401 251.985 438.401C250.972 435.214 252.594 439.621 245.178 408.434C244.537 405.737 243.274 400.415 242.659 397.842C247.292 396.627 267.245 390.986 270.257 378.618L270.278 378.619ZM208.716 351.711C212.406 349.055 224.955 339.97 228.929 345.683C231.321 349.134 221.116 356.767 218.223 358.971C215.82 360.799 193.609 375.216 191.81 373.322C192.46 364.456 201.314 357.053 208.716 351.711ZM190.377 390.761C194.686 390.381 216.247 415.751 203.435 421.09C202.497 421.228 192.817 414.934 191.707 413.884C187.011 409.427 182.117 391.478 190.377 390.761ZM176.411 372.608C189.747 369.98 188.076 392.421 175.546 385.574C169.158 382.089 169.626 373.941 176.411 372.608ZM169.456 390.623C170.297 390.552 173.507 392.485 174.02 393.116C178.299 398.383 173.823 407.807 169.098 411.919C166.889 413.839 153.713 420.812 151.315 420.221C148.286 419.476 151.322 412.286 152.125 410.235C153.814 405.951 164.822 391.008 169.446 390.612L169.456 390.623ZM82.624 332.153C113.09 336.672 140.202 353.317 166.614 366.759C164.962 373.043 157.737 371.679 152.152 370.776C129.368 367.069 101.092 350.265 85.0797 335.587C83.8989 334.503 81.9192 334.333 82.6345 332.154L82.624 332.153ZM240.968 387.454C239.342 386.071 239.788 354.999 228.072 368.821L241.58 454.041C233.548 456.071 225.387 457.521 217.155 458.506C205.829 459.85 196.827 460.12 192.253 460.148C183.785 460.199 181.717 459.696 162.055 458.647C145.054 457.729 145.186 458.033 142.105 457.706C131.582 456.577 116.664 451.653 98.8243 433.952C97.7591 433.489 80.3655 425.54 77.6602 406.716C75.7854 393.705 81.6777 380.64 92.8459 373.004C93.0264 372.951 96.1491 372.02 96.1946 370.474C96.2177 369.798 95.6581 369.268 93.5928 367.874C89.8476 365.33 87.975 364.057 86.6273 364.226C84.7316 364.47 83.4839 366.202 82.2266 368.129C80.1532 371.316 77.2848 376.812 76.0451 385.116C71.3351 383.457 44.7885 375.237 43.2453 372.813C39.5967 367.065 63.2457 338.233 71.3787 335.869C95.7081 357.112 117.268 371.973 151.439 378.173C154.207 378.68 158.218 377.998 160.53 378.84C162.195 379.456 163.53 385.213 163.047 385.876C162.902 386.073 160.575 386.573 159.585 387.323C150.355 394.276 142.301 402.416 141.747 413.983C140.402 442.489 170.596 423.886 179.693 411.606C183.071 417.32 188.791 421.603 194.68 425.217C206.155 432.247 212.214 435.613 214.609 420.283C216.404 408.797 213.778 401.224 205.797 392.113L195.883 383.356C210.645 374.361 227.373 366.028 237.198 352.379C239.672 351.026 258.501 374.496 258.689 377.878C258.963 382.68 242.422 388.726 240.946 387.474L240.968 387.454Z" fill="#4F380D"/>
<path d="M163.048 385.865C162.902 386.063 160.575 386.562 159.585 387.313C150.356 394.266 142.302 402.406 141.747 413.973C140.403 442.479 170.596 423.876 179.693 411.595C183.071 417.31 188.792 421.592 194.681 425.207C206.156 432.236 212.214 435.603 214.61 420.262C216.405 408.777 213.779 401.203 205.798 392.092L195.884 383.336C210.646 374.341 227.374 366.007 237.199 352.358C239.673 351.005 258.502 374.476 258.69 377.858C258.964 382.659 242.423 388.706 240.947 387.453C239.321 386.07 239.767 354.998 228.051 368.819L241.56 454.04C225.508 457.619 205.853 460.62 183.362 461.131C149.293 461.918 120.639 456.73 99.7349 451.2C93.3726 445.102 89.3818 439.08 86.9782 434.808C85.3719 431.971 80.7414 423.242 78.8424 410.927C77.8466 404.439 77.1503 399.924 78.5678 393.936C80.771 384.562 86.4793 378.561 88.1415 376.911C89.925 375.134 91.6111 373.844 92.8255 372.992C95.0511 372.426 95.3924 371.664 95.4619 371.319C95.8063 369.655 91.874 367.716 90.0974 366.828C87.7584 365.677 85.8164 364.75 84.2178 365.542C83.4454 365.923 83.1445 366.503 82.2166 368.118C81.1757 369.901 79.9411 371.583 78.9821 373.401C77.4349 376.317 75.3383 380.181 72.8018 384.894C57.9221 386.153 45.7506 380.719 43.2457 372.803C40.8305 365.188 47.8012 356.739 52.9128 350.534C59.3385 342.734 66.6233 338.278 71.3896 335.86C74.9393 338.968 98.1235 359.672 121.948 369.602C130.826 373.303 140.488 376.183 151.449 378.173C154.218 378.68 158.228 377.998 160.54 378.841C162.205 379.457 163.541 385.213 163.058 385.876L163.048 385.865Z" fill="#FEFDFE"/>
<path d="M166.614 366.759C164.962 373.043 157.737 371.679 152.152 370.776C129.368 367.069 101.092 350.265 85.0797 335.587C83.8989 334.503 81.9192 334.333 82.6344 332.154C113.101 336.673 140.212 353.317 166.625 366.759L166.614 366.759Z" fill="#5084AD"/>
<path d="M174.02 393.116C178.299 398.383 173.823 407.808 169.098 411.919C166.889 413.839 153.713 420.812 151.315 420.221C148.286 419.476 151.322 412.286 152.125 410.235C153.814 405.951 164.822 391.008 169.446 390.612C170.287 390.541 173.497 392.475 174.01 393.105L174.02 393.116Z" fill="#5084AD"/>
<path d="M191.809 373.322C192.46 364.456 201.314 357.053 208.716 351.711C212.406 349.055 224.955 339.97 228.929 345.683C231.321 349.134 221.116 356.767 218.223 358.971C215.819 360.799 193.609 375.216 191.809 373.322Z" fill="#5084AD"/>
<path d="M190.377 390.761C194.686 390.381 216.247 415.751 203.435 421.091C202.497 421.228 192.816 414.934 191.707 413.884C187.011 409.427 182.117 391.478 190.377 390.761Z" fill="#5084AD"/>
<path d="M176.411 372.608C189.747 369.98 188.076 392.421 175.546 385.574C169.158 382.089 169.626 373.941 176.411 372.608Z" fill="#5084AD"/>
</g>
<defs>
<clipPath id="clip0_22_235">
<rect width="240" height="142" fill="white" transform="translate(33.0533 320) rotate(2.8471)"/>
</clipPath>
</defs>
</svg>
