<svg width="308" height="574" viewBox="0 0 308 574" fill="none" xmlns="http://www.w3.org/2000/svg">
<path fill-rule="evenodd" clip-rule="evenodd" d="M247.564 390.325L262.721 382.437C244.602 332.689 235.016 336.618 212.347 345.91C189.16 355.415 152.284 370.53 78.5888 339.553C59.9178 351.839 43.6362 372.049 44.4074 395.076L82.2113 403.209L87.4549 384.281C102.991 382.148 97.9515 395.472 92.3747 410.215C87.4242 423.302 82.0508 437.507 90.2725 443.011C111.374 464.042 220.777 463.73 244.508 438.41L231.257 365.503L240.425 365.118L247.564 390.325Z" fill="#4F380D"/>
<path d="M234.574 321.376C224.328 322.064 217.428 326.945 209.993 332.205C198.112 340.61 184.861 349.984 154.395 344.773C141.387 345.754 127.864 340.687 114.722 335.763C96.2987 328.86 78.623 322.237 64.163 332.948C26.6498 363.133 11.1301 417.272 77.0971 416.205C48.1373 492.695 216.241 475.694 254.789 450.45C259.006 440.932 256.069 427.719 253.369 415.566C252.281 410.672 251.232 405.951 250.703 401.712C303.423 398.931 258.848 336.927 234.574 321.376ZM262.721 382.437L247.564 390.325L240.425 365.118L231.257 365.503L244.508 438.41C220.777 463.73 111.374 464.042 90.2725 443.011C82.0508 437.507 87.4242 423.302 92.3747 410.215C97.9515 395.472 102.991 382.148 87.4549 384.281L82.2113 403.209L44.4074 395.076C43.6362 372.049 59.9178 351.839 78.5888 339.553C152.284 370.53 189.16 355.415 212.347 345.91C235.016 336.618 244.602 332.689 262.721 382.437Z" fill="#4F380D"/>
<path d="M240.204 342.611C245.138 346.553 247.896 350.474 249.644 353C257.771 364.749 262.846 381.742 263.724 384.74L248.11 392.019L241.676 367.172L232.37 367.287L243.482 438.941C218.622 463.015 107.718 460.197 87.008 439.033L82.8684 432.809C78.9752 420.508 112.331 376.987 86.0211 381.538L80.1037 399.892L42.0431 390.862C41.9944 368.328 59.1411 349.036 78.4577 337.558C96.8896 345.844 102.88 348.641 102.821 348.751C102.702 348.97 78.0767 338.415 78.4577 337.558C78.9366 336.492 115.303 357.149 157.053 357.795C189.181 358.292 215.464 346.812 232.176 337.455C234.262 338.509 237.149 340.151 240.214 342.601L240.204 342.611Z" fill="#5782AD" fill-opacity="0.74"/>
</svg>
