<svg width="308" height="574" viewBox="0 0 308 574" fill="none" xmlns="http://www.w3.org/2000/svg">
<path d="M57.5451 410.42C91.0951 418.06 50.5552 454.69 108.785 459.94V459.88C154.695 465.9 212.995 472.72 252.985 445.59C250.895 435.63 246.845 424.24 246.295 413.97L262.235 411.93C266.505 410.41 270.775 408.88 275.045 407.36C286.915 372.83 234.735 328.72 210.985 327.95C170.755 356.57 121.065 333.56 79.4252 320H74.3551C44.2051 335.2 29.9952 372.19 31.0552 403.52M213.525 341.98C213.905 340.03 217.725 340.85 218.525 344.29C219.305 347.66 221.625 358.48 220.855 360.96C220.595 361.81 219.945 362.49 219.275 363.09L216.625 364.25L207.195 363C210.165 355.56 211.995 349.84 213.525 341.99V341.98ZM216.085 373.19C219.665 375.41 212.595 387.22 210.775 389.97C206.735 396.09 200.405 401.86 194.585 406.47L204.775 374.56C206.775 371.47 212.735 372.4 216.085 373.19ZM189.525 347.28L203.405 343.66L192.685 376.27C191.145 374.8 188.585 368.74 188.745 367.21C188.835 366.39 190.215 365.47 190.405 364.5C191.675 358.03 190.965 353.72 189.515 347.29L189.525 347.28ZM164.395 351L180.605 349.78C185.905 359.83 174.155 360.48 166.175 359.37C160.975 358.65 163.995 354.4 164.395 351ZM132.395 347.02C140.265 349.56 147.605 349.14 155.315 351.05C156.035 355.44 154.825 360.45 155.505 364.76C156.055 368.25 159.295 369.77 159.325 373.22C159.335 374.78 157.465 382.37 156.085 382.31L130.225 347.88C129.995 344.81 130.635 346.46 132.385 347.02H132.395ZM131.515 364.78C134.095 366.07 139.595 377.11 142.065 380.69C145.225 385.26 149.495 390.18 152.695 395.24C153.835 397.04 160.215 406.69 159.245 407.69L123.205 383.53C123.205 376.65 129.665 371.81 127.715 364.21C129.125 364.07 130.215 364.14 131.515 364.79V364.78ZM106.975 338.82C114.175 339.67 123.605 351.22 124.655 357.54C125.255 361.13 121.165 358.13 118.945 358.06C114.555 357.92 112.085 359.98 106.975 356.95V338.83V338.82ZM133.515 454.69C124.195 453.51 111.215 451.59 102.135 449.71C97.3652 448.72 91.6952 446.74 87.3352 444.56C86.3652 443.63 81.8951 427.6 81.3551 424.91C78.6751 411.46 83.9852 396.96 88.2552 383.79C90.5752 376.63 98.2752 367.32 83.6952 369.16L72.2852 402.33C69.0552 404.51 46.0552 397.88 41.2052 395.68C39.9452 394.01 43.0252 382.82 43.7852 379.87C46.6852 368.61 53.2752 350.84 60.8652 341.86C62.4852 339.95 72.6652 331.07 74.3152 330.59C76.6452 329.91 80.2052 330.23 82.6452 330.65C84.1452 330.91 94.8752 334.55 95.6352 335.11C98.8852 337.49 97.0352 346.23 97.4152 350.32C97.6152 352.48 98.7052 360.56 99.3252 361.78C101.965 367 110.915 368.54 116.355 367.83C114.875 376.14 107.935 380.95 114.435 388.39C118.295 392.82 134.865 404.53 140.425 408.2C150.635 414.95 162.375 420.84 172.915 427.22L175.655 456.01C161.555 456.05 147.505 456.46 133.515 454.69ZM177.555 412.51C174.515 411.21 165.885 400.18 164.885 396.86C163.025 390.72 166.905 385.28 167.985 379.19C168.515 376.22 167.405 373.05 168.635 370.15L180.695 367.8C179.465 375.08 187.305 387.88 186.975 393.69C186.775 397.29 181.815 407.52 179.685 410.96C179.255 411.65 179.635 413.38 177.555 412.5V412.51ZM241.115 443.79C239.685 445.72 203.765 454.2 198.865 454.68C196.075 454.96 185.155 455.78 184.575 452.89C187.955 442.79 182.295 432.4 185.035 422.09C186.195 420.53 191.505 420.65 193.665 419.71C197.845 417.88 218.285 397.63 221.635 393.12C223.575 390.51 225.255 386.64 226.125 383.52C227.715 383.17 227.705 384.77 228.015 385.91C230.665 395.55 232.905 405.31 235.555 414.94C238.145 424.36 243.105 433.3 241.105 443.78L241.115 443.79ZM265.215 401.63C260.695 401.07 245.655 407.93 243.105 404.1C240.405 391.14 235.875 378.55 232.725 365.72C232.285 363.94 231.895 362.07 232.125 360.26C232.725 355.32 226.275 339.09 227.385 337.62C227.895 345.32 229.965 354.63 237.225 359.68C242.805 363.56 246.355 361.37 251.585 365.79C254.805 368.51 254.935 371.88 261.405 389.01C262.945 393.09 266.445 396.47 265.215 401.64V401.63Z" fill="#1E140A"/>
<path d="M116.355 367.83C114.875 376.14 107.935 380.95 114.435 388.39C118.295 392.82 134.865 404.53 140.425 408.2C150.635 414.95 162.375 420.84 172.915 427.22L175.655 456.01C161.555 456.05 147.505 456.46 133.515 454.69C124.195 453.51 111.215 451.59 102.135 449.71C97.3652 448.72 91.6952 446.74 87.3352 444.56C86.3652 443.63 81.8951 427.6 81.3551 424.91C78.6751 411.46 83.9852 396.96 88.2552 383.79C90.5752 376.63 98.2752 367.32 83.6952 369.16L72.2852 402.33C69.0552 404.51 46.0552 397.88 41.2052 395.68C39.9452 394.01 43.0252 382.82 43.7852 379.87C46.6852 368.61 53.2751 350.84 60.8651 341.86C62.4851 339.95 72.6652 331.07 74.3152 330.59C76.6452 329.91 80.2052 330.23 82.6452 330.65C84.1452 330.91 94.8752 334.55 95.6452 335.11C98.8952 337.49 97.0451 346.23 97.4251 350.32C97.6251 352.48 98.7152 360.56 99.3352 361.78C101.975 367 110.925 368.54 116.365 367.83H116.355Z" fill="#473926"/>
<path d="M241.115 443.79C239.685 445.72 203.765 454.2 198.865 454.68C196.085 454.96 185.155 455.78 184.575 452.89C187.955 442.79 182.295 432.4 185.035 422.09C186.195 420.53 191.505 420.66 193.665 419.71C197.845 417.88 218.285 397.63 221.635 393.12C223.575 390.51 225.255 386.64 226.125 383.52C227.715 383.17 227.705 384.77 228.015 385.91C230.665 395.55 232.905 405.31 235.555 414.95C238.205 424.59 243.105 433.31 241.105 443.79H241.115Z" fill="#473926"/>
<path d="M267.215 401.48C265.265 402.96 260.695 405.99 254.045 406.76C249.055 407.33 245.025 406.39 242.755 405.68C240.375 393.87 237.475 384.63 235.235 378.3C232.715 371.21 230.315 365.79 228.085 356.68C226.455 350.03 225.655 344.48 225.225 340.85C229.705 343.65 235.985 347.99 242.885 354.25C243.345 354.67 244.235 355.48 245.245 356.45C251.025 362.01 261.495 372.09 265.545 386.8C266.435 390.03 267.445 395.04 267.215 401.48Z" fill="#473926"/>
<path d="M180.695 367.81C179.465 375.09 187.305 387.89 186.975 393.7C186.775 397.3 181.815 407.53 179.685 410.97C179.255 411.66 179.635 413.39 177.555 412.51C174.515 411.21 165.885 400.18 164.885 396.86C163.025 390.72 166.905 385.28 167.975 379.19C168.505 376.22 167.395 373.06 168.635 370.15L180.695 367.8V367.81Z" fill="#DE5C32"/>
<path d="M142.065 380.68C145.225 385.25 149.495 390.17 152.695 395.23C153.835 397.03 160.215 406.68 159.245 407.68L123.205 383.52C123.205 376.64 129.665 371.8 127.715 364.2C129.125 364.06 130.215 364.13 131.515 364.78C134.095 366.07 139.595 377.11 142.065 380.69V380.68Z" fill="#473926"/>
<path d="M155.325 351.04C156.045 355.43 154.835 360.44 155.515 364.75C156.065 368.24 159.305 369.76 159.335 373.21C159.345 374.77 157.475 382.36 156.095 382.3L130.235 347.87C130.005 344.8 130.645 346.45 132.395 347.01C140.265 349.55 147.605 349.13 155.315 351.04H155.325Z" fill="#FEFEFD"/>
<path d="M194.585 406.48L204.775 374.57C206.775 371.48 212.735 372.41 216.085 373.2C219.665 375.42 212.595 387.23 210.775 389.98C206.735 396.1 200.405 401.87 194.585 406.48Z" fill="#473926"/>
<path d="M106.975 338.82C114.175 339.67 123.605 351.22 124.655 357.54C125.255 361.13 121.165 358.13 118.945 358.06C114.555 357.92 112.085 359.98 106.975 356.95V338.83V338.82Z" fill="#473926"/>
<path d="M203.405 343.66L192.685 376.27C191.145 374.8 188.585 368.74 188.745 367.21C188.835 366.39 190.215 365.47 190.405 364.5C191.675 358.03 190.965 353.72 189.515 347.29L203.395 343.67L203.405 343.66Z" fill="#FEFEFD"/>
<path d="M207.195 362.98C210.165 355.54 211.995 349.82 213.525 341.97C213.905 340.02 217.725 340.84 218.525 344.28C219.325 347.72 221.625 358.47 220.855 360.95C220.595 361.8 219.945 362.48 219.275 363.08L216.625 364.24L207.195 362.99V362.98Z" fill="#473926"/>
<path d="M180.605 349.78C185.905 359.83 174.155 360.48 166.175 359.37C160.975 358.65 163.995 354.4 164.395 351L180.605 349.78Z" fill="#C8591D"/>
</svg>
