<svg width="308" height="574" viewBox="0 0 308 574" fill="none" xmlns="http://www.w3.org/2000/svg">
<path d="M94.3775 456.114C95.6275 452.044 93.6175 448.854 90.9075 440.994C90.0775 438.584 88.9775 435.144 87.9075 430.884L88.5275 428.794C95.8775 423.274 102.148 414.334 105.468 404.914C110.398 390.954 111.378 377.804 110.938 362.864C110.458 346.474 107.288 326.524 97.6375 313.784C91.1175 305.184 80.2475 301.544 71.1975 298.164C71.5775 293.804 71.7275 288.764 71.3875 283.184C70.9975 276.814 70.0675 271.194 68.9875 266.484C66.2775 265.334 63.4375 264.274 60.4775 263.314C60.2375 263.234 59.9875 263.154 59.7475 263.084C31.1275 261.584 18.0275 280.154 16.6075 313.094C16.3275 319.674 18.3775 329.574 17.7975 334.004C17.2075 338.494 10.0975 345.524 7.90752 350.694C-1.78248 373.504 -2.87248 403.914 6.33752 424.544C8.77752 430.014 13.0575 439.344 22.4075 448.074C46.4075 470.494 82.5675 469.054 91.0575 461.084C93.5875 458.714 94.3775 456.114 94.3775 456.114ZM101.108 378.814C99.4575 399.594 89.8975 419.174 72.2375 425.964C74.5275 412.314 84.3475 401.464 87.9975 388.864C93.2175 370.874 92.9675 347.224 82.9075 331.554C78.0475 323.994 69.9775 319.224 63.6175 313.224C62.3475 312.034 60.5975 313.204 61.3575 309.584C95.7975 307.884 103.718 345.994 101.118 378.814H101.108ZM12.9075 398.694C11.7775 375.734 13.2075 356.774 27.4575 339.694C28.2475 320.554 23.4375 289.064 41.5475 278.894C47.5975 275.494 54.7075 275.274 61.3575 274.514V296.954L54.1175 297.684L51.1075 301.184C47.8375 312.454 55.7575 320.254 61.3575 327.774C30.5775 349.054 15.5975 413.904 38.3475 447.724C19.5675 440.144 13.9575 419.814 12.9175 398.694H12.9075ZM54.2175 434.634C49.3675 435.364 43.4575 424.234 40.7775 417.204C28.7775 385.704 50.1475 354.054 54.1175 348.164C59.0075 340.924 64.5975 332.654 70.1375 333.584C77.8175 334.864 83.2475 353.574 80.4475 369.584C78.5175 380.624 74.1775 381.204 67.3775 397.214C57.9675 419.374 59.5875 433.824 54.2175 434.624V434.634ZM62.2475 455.074C61.2075 454.894 58.6075 454.444 58.9475 452.634C63.1975 451.734 65.6575 446.314 67.6475 442.324C69.5075 438.594 68.4175 435.144 75.2775 435.744C79.1575 436.084 83.0475 451.144 84.3375 455.414C76.8875 456.424 69.7275 456.354 62.2575 455.074H62.2475Z" fill="#4F380D"/>
<path d="M251.561 300.153C250.341 294.703 247.701 289.473 245.351 284.393C242.231 278.153 238.091 272.513 231.911 269.123C226.751 265.933 220.811 270.083 217.791 274.413C216.951 275.813 216.911 277.523 217.101 279.163C218.791 294.443 220.921 309.633 223.421 324.773C225.221 335.653 227.891 351.193 229.181 357.913C229.521 359.653 230.181 361.313 231.171 362.873C233.151 365.833 238.611 372.433 242.541 372.103C248.511 370.273 250.791 356.843 251.671 351.393C254.171 334.403 253.401 317.283 251.591 300.353L251.561 300.163V300.153ZM241.071 351.193C241.001 351.563 240.951 351.773 240.861 351.453C240.621 350.143 239.891 345.833 238.891 340.023C236.491 325.883 229.951 288.363 228.901 281.743C228.911 281.563 229.011 281.473 229.241 281.513C233.541 283.113 237.001 288.943 238.581 293.433C245.051 312.113 243.801 331.993 241.091 351.103L241.071 351.193Z" fill="#4F380D"/>
<path d="M72.2475 425.964C74.5375 412.314 84.3575 401.464 88.0075 388.864C93.2275 370.874 92.9775 347.224 82.9175 331.554C78.0575 323.994 69.9875 319.224 63.6275 313.224C62.3575 312.034 60.6075 313.204 61.3675 309.584C95.8075 307.884 103.728 345.994 101.128 378.814C99.4775 399.594 89.9175 419.174 72.2575 425.964H72.2475Z" fill="#4E853A"/>
<path d="M239.22 358.994L225.008 276.994C232.94 280.55 242.947 294.737 244.377 305.193C246.87 323.439 241.307 340.912 239.22 358.994Z" fill="#4E833A"/>
<path d="M84.3275 455.414C76.8775 456.424 69.7175 456.354 62.2475 455.074C61.2075 454.894 58.6075 454.444 58.9475 452.634C63.1975 451.734 65.6575 446.314 67.6475 442.324C69.5075 438.594 68.4175 435.144 75.2775 435.744C79.1575 436.084 83.0475 451.144 84.3375 455.414H84.3275Z" fill="#4E853A"/>
<path d="M61.3475 274.514V296.954L54.1075 297.684L51.0975 301.184C47.8275 312.454 55.7475 320.254 61.3475 327.774C30.5675 349.054 15.5875 413.904 38.3375 447.724C19.5575 440.144 13.9475 419.814 12.9075 398.694C11.7775 375.734 13.2075 356.774 27.4575 339.694C28.2475 320.554 23.4375 289.064 41.5475 278.894C47.5975 275.494 54.7075 275.274 61.3575 274.514H61.3475Z" fill="#4E833A"/>
</svg>
