<svg width="308" height="574" viewBox="0 0 308 574" fill="none" xmlns="http://www.w3.org/2000/svg">
<g clip-path="url(#clip0_10_180)">
<path d="M238.5 338.12C237.52 335.79 235.43 332.07 230.65 328.63C228.06 330.85 225.46 333.08 222.87 335.3C214.94 342.02 207.97 347.24 202.74 350.98C183.01 365.06 177.09 365.35 172.67 364.98C167.33 364.53 164.45 360.75 160.63 357.22C140.17 338.37 114.98 329.83 90.31 321.45C86.56 320.18 81.62 318.61 75.74 317.02C71.84 316.47 67.93 315.93 64.03 315.38C57.21 313.8 50.26 317.23 47.49 323.34C44.49 329.96 47.14 338.12 53.78 341.87C52.94 342.27 51.73 342.87 50.34 343.71C41.96 348.75 37.53 355.74 34.91 360.07C25.67 375.33 22.37 383.61 22.37 383.61C10.64 408.74 4.05 432.68 -13.52 455.13C-21.08 464.79 -33.52 470.47 -25.26 484.69C-18.54 496.25 2.75 505.65 15.66 507.31C28.47 508.96 29.15 497.76 39.44 498.83C48.41 499.76 53.3 504.79 78.96 513.58C83.04 514.98 87.29 516.26 90.52 514.2C93.4 512.36 92.88 509.49 95.43 499.57C98.21 488.73 101.53 481.69 103.12 478.49C104.47 475.78 105.73 473.66 106.54 472.37C102.97 468.5 98 462.45 93.54 454.22C84.49 437.51 78.89 418.84 78.27 419.04C77.97 419.14 79.91 423.52 77.84 426.35C76.82 427.74 75.16 428.31 73.75 428.56C74.25 435.43 75.8 445.04 80.71 455.29C84.62 463.46 88.68 466.03 89.64 472.8C90.98 482.24 85.4 492.27 84.86 501.69L82.79 503.5C68.52 501.66 56.97 489.79 42.13 488.79C48.67 471.27 55.21 453.75 61.75 436.24C59.59 439.75 57.97 440.36 56.9 440.3C54.81 440.18 53.19 437.35 51.96 437.92C51.53 438.12 51.36 438.64 51.28 438.94C48.18 447.45 45.61 454.43 43.83 459.24C34.5 484.48 30.32 489.71 24.13 495.04C20.4 498.25 15.91 497.32 11.5 496.37C4.65 494.9 -14.46 485.38 -17.16 478.94L-17.24 474.7C-12.12 468.12 -6.15 462.28 -1.18 455.58C14.93 433.84 22.26 407.53 34.32 383.61C36.58 379.12 39.02 374.51 41.75 370.08C41.76 370.06 41.77 370.04 41.78 370.01C41.93 369.78 42.07 369.55 42.22 369.33C43.6 367.16 44.95 364.98 46.26 362.81C47.24 360.76 48.55 358.39 50.33 355.9C52.03 353.51 53.76 351.56 55.31 350C55.43 349.55 55.94 347.88 57.55 346.95C59.38 345.89 61.9 346.23 63.75 347.86C79.35 354.83 95.06 361.77 110.89 368.67C115.49 370.68 120.09 372.67 124.68 374.66C142.62 386.5 184.55 392.36 214.36 380C219.37 377.93 223.21 375.68 225.55 374.19C237.93 363.37 243.02 348.83 238.5 338.1V338.12ZM163.64 373.18C156.02 370.86 148.25 370.56 140.48 368.42C125.23 364.22 111.33 355.47 96.8 349.45C86.87 345.34 64.19 341.03 59.76 331.4C59.2 330.19 58.49 328.81 58.78 327.45L59.54 326.23C60.6 326.16 61.7 326.51 62.73 326.47C72.18 326.09 83.01 328.21 92.05 331.37C112.42 338.49 142.74 357.71 161.36 369.81C163.07 370.92 164.58 369.85 163.65 373.18H163.64ZM183 373.41L210.61 358.8L229.46 340.94C230.54 366.58 204.94 376.41 182.99 373.41H183Z" fill="#4F380D"/>
<path d="M43.29 433.85C38.57 428.78 36.56 420.63 36.56 420.63C34.19 412.57 34.11 404.32 34.75 397.63C35.19 393 36.02 389.32 37.25 383.96C40.28 370.71 43.19 364.12 42.75 363.93C42.05 363.63 34.62 380.49 25.59 399.47C7.47 437.52 -2.44 453.04 -10.33 464.32C-14.31 470.01 -17.71 474.35 -19.35 476.41C-18.84 477.71 -18.33 479.02 -17.82 480.33C-6.29 490.44 4.01 494.71 10.27 496.67C14.24 497.92 16.82 498.3 19.63 497.69C26.54 496.18 30.24 489.64 35.8 479.48C40.98 470 43.9 461.58 47.03 452.42C48.92 446.88 50.34 442.23 51.29 438.97C47.14 437.46 44.71 435.39 43.29 433.86V433.85Z" fill="#AA0400"/>
<path d="M95.72 474.02C98.37 470.83 100.69 469.34 100.66 466.36C100.63 463.77 98.85 462.39 96.06 458.7C94.05 456.04 92.45 453.01 89.25 446.95C85.93 440.66 83.88 435.36 82.95 432.82C81.42 428.63 79.69 423.12 78.35 416.48C78.06 419.18 76.89 426.8 70.69 433.33C66.86 437.37 62.66 439.35 60.14 440.31C59.02 442.55 57.52 445.68 55.88 449.5C54.39 452.98 53.36 455.65 52.82 457.16C48.75 468.48 43.1 485.82 42.13 488.8C48.17 490.94 54.56 493.44 61.21 496.38C69.46 500.03 76.95 503.85 83.7 507.62C84.06 506 84.66 503.46 85.5 500.39C89.34 486.37 91.26 479.35 95.71 474.01L95.72 474.02Z" fill="#AA0400"/>
<path d="M100.95 332.97C108.44 335.57 114.59 337.7 122.71 341.58C128.37 344.29 132.33 346.62 140.24 351.28C144.17 353.6 151.31 357.9 159.18 364.74C164.82 369.64 165.73 371.42 165.28 372.41C164.44 374.27 158.77 373.41 156.67 373.04C151.88 372.24 144.55 370.79 135.85 368.03C129.11 365.89 126.29 364.48 113.94 359.58C101.95 354.82 102.27 355.22 89.61 350.19C83.18 347.64 72.93 343.62 63.4 335.52C59.5 332.21 57.13 329.42 57.73 326.75C58.24 324.49 60.7 323.17 62.22 322.53C65.09 323.09 68.88 323.88 73.29 324.93C85.17 327.75 94.7 330.81 100.95 332.97Z" fill="#AA0400"/>
<path d="M183 373.41C192.43 367.59 201.86 361.76 211.29 355.94C217.35 350.94 223.41 345.94 229.47 340.95C230.55 366.59 204.95 376.42 183 373.42V373.41Z" fill="#AA0400"/>
</g>
<defs>
<clipPath id="clip0_10_180">
<rect width="308" height="574" fill="white"/>
</clipPath>
</defs>
</svg>
