<svg width="308" height="574" viewBox="0 0 308 574" fill="none" xmlns="http://www.w3.org/2000/svg">
<g clip-path="url(#clip0_10_192)">
<path d="M231.49 244.79C228.4 240.6 222.18 237.54 221.39 237.16C218.43 235.73 215.76 234.48 212.52 235.22C209.71 235.86 207.84 237.69 206.91 238.76C206.92 238.7 206.91 238.66 206.9 238.65C206.7 238.49 204.97 240.27 201.72 244.01C200.49 242.9 198.83 241.66 196.71 240.65C190.77 237.85 185.09 238.75 182.73 239.27C175.45 241.31 172.86 244.29 171.9 246.76C171.03 249.01 170.86 251.68 168.72 253.78C168.03 254.46 166.96 254.91 165.13 255.08C158.55 243.69 150.32 234.43 136.14 238.07C132.8 238.93 130.89 243.12 128.51 243.23C123.07 241 120.16 238.83 113.94 239.64C106.18 240.65 95.75 248.22 95.4 256.96C93.85 257.07 92.25 257.16 90.6 257.2C84.68 257.35 79.21 256.96 74.3 256.27C74.61 257.71 74.91 260.02 74.41 262.77C74.09 264.57 73.52 266.03 73 267.1C73.79 267.29 74.59 267.47 75.4 267.63C82.63 269.1 89.46 269.35 95.66 268.92C95.81 273.76 99.4 280.69 102.41 284.34C106.41 289.2 120.93 301.21 126.67 302.78C131.26 304.03 132.52 302.85 136.32 300.77C149.08 293.77 156.9 280.67 164.44 268.47L171.12 268.39C173.96 275.45 177.47 280.51 180.12 283.76C180.12 283.76 185.42 290.28 195.96 297.79C197.06 298.57 197.88 299.09 198.31 299.36C201.26 301.17 203.93 302.28 205.81 302.95C208.38 301.17 211.97 298.43 215.7 294.53C229.44 280.18 239.7 255.94 231.49 244.8V244.79ZM154.46 262.55C153.96 268.39 137.08 290.11 131.84 291.3C122.56 291.55 106.65 276.75 104.83 267.66C103.07 258.86 106.29 249.75 116.05 249.96C123.33 250.11 125.53 259.2 131.09 257.37C134.56 256.04 135.9 249.44 138.86 248.43C146.63 245.78 155.12 254.86 154.46 262.56V262.55ZM216.08 280.39C212.88 284.17 206.63 291.04 201.85 289.17C198.25 287.76 188.51 279.1 185.89 275.75C179.46 267.55 174.35 251.19 187.98 248.62C195.45 247.21 198.05 253.42 202.84 253.35C208.72 253.26 213.53 243.58 221.68 248.8C232.59 255.78 222.08 273.31 216.09 280.39H216.08Z" fill="#4F380D"/>
<path d="M138.86 248.42C146.63 245.77 155.12 254.85 154.46 262.55C153.96 268.39 137.08 290.11 131.84 291.3C122.56 291.55 106.65 276.75 104.83 267.66C103.07 258.86 106.29 249.75 116.05 249.96C123.33 250.11 125.53 259.2 131.09 257.37C134.56 256.04 135.9 249.44 138.86 248.43V248.42Z" fill="#DE5C32"/>
<path d="M187.97 248.62C195.44 247.21 198.04 253.42 202.83 253.35C208.71 253.26 213.52 243.58 221.67 248.8C232.58 255.78 222.07 273.31 216.08 280.39C212.88 284.17 206.63 291.04 201.85 289.17C198.25 287.76 188.51 279.1 185.89 275.75C179.46 267.55 174.35 251.19 187.98 248.62H187.97Z" fill="#DE5C32"/>
</g>
<defs>
<clipPath id="clip0_10_192">
<rect width="161.42" height="68.29" fill="white" transform="translate(73 235)"/>
</clipPath>
</defs>
</svg>
