<svg width="308" height="574" viewBox="0 0 308 574" fill="none" xmlns="http://www.w3.org/2000/svg">
<path d="M199.129 233.335L247.429 236.535C251.929 238.375 251.019 249.915 245.139 250.415C245.039 251.085 246.119 251.225 246.139 251.335C247.959 263.195 244.449 277.595 236.139 286.335L226.139 292.835C213.179 297.125 199.489 295.985 188.139 288.335C187.279 287.575 186.879 287.115 186.139 286.335C181.399 280.175 178.499 272.425 177.229 264.745C176.949 263.055 177.269 253.445 175.579 253.305L165.599 254.295C165.219 263.415 165.189 270.385 161.019 278.715C154.489 291.735 140.009 296.765 125.919 295.065C119.259 294.265 107.789 290.405 105.999 283.465C105.619 283.025 104.689 283.435 104.139 283.345C98.5192 274.035 96.4892 264.995 96.9892 253.995C90.7192 250.415 86.0192 240.845 95.3092 238.015C105.309 234.965 123.789 235.465 134.649 235.355C136.319 235.335 139.139 236.015 140.139 234.345C147.489 234.865 159.839 237.065 164.139 243.345L164.639 244.345H165.639L166.139 243.345C166.349 243.295 166.769 242.375 167.139 242.345C169.029 244.025 175.249 244.005 177.139 242.345C184.889 235.555 188.299 233.995 199.139 233.345L199.129 233.335Z" fill="#483018"/>
<path d="M140.129 234.335C139.129 236.005 136.309 235.325 134.639 235.345C123.779 235.455 105.299 234.945 95.2992 238.005C86.0192 240.845 90.7092 250.405 96.9792 253.985C96.4792 264.985 98.5092 274.025 104.129 283.335C104.669 283.425 105.609 283.015 105.989 283.455C107.779 290.395 119.239 294.255 125.909 295.055C140.009 296.755 154.489 291.735 161.009 278.705C165.189 270.375 165.209 263.405 165.589 254.285L175.569 253.295C177.259 253.435 176.939 263.045 177.219 264.735C178.489 272.415 181.389 280.165 186.129 286.325C178.039 277.815 174.719 267.235 175.129 255.325H167.119C168.829 272.475 157.119 294.455 138.639 296.345C124.829 297.755 111.489 295.515 104.129 283.335C103.589 283.245 102.799 283.625 102.299 283.195C101.769 282.735 97.2492 271.725 96.8092 270.155C95.3692 264.955 96.0692 257.935 94.9392 254.025C94.2992 251.815 89.9992 249.885 89.3192 247.645C88.4692 244.815 89.4892 241.315 90.3692 238.575C93.2592 237.595 95.7892 236.135 98.8792 235.585C110.039 233.605 128.689 233.515 140.129 234.335Z" fill="#241D15"/>
<path d="M230.129 233.335L230.819 234.155C231.909 234.515 233.029 234.305 234.129 234.335C239.969 234.515 245.829 233.135 250.649 237.315L250.939 246.645L246.129 251.335C246.109 251.225 245.029 251.085 245.129 250.415C251.019 249.915 251.919 238.375 247.419 236.535L199.119 233.335C208.759 232.755 220.369 233.045 230.119 233.335H230.129Z" fill="#241D15"/>
<path d="M236.129 286.335C223.419 299.705 201.899 300.405 188.129 288.335C199.479 295.985 213.169 297.125 226.129 292.835L236.129 286.335Z" fill="#241D15"/>
<path d="M177.129 242.335C175.239 243.995 169.019 244.015 167.129 242.335C170.419 242.095 173.829 242.505 177.129 242.335Z" fill="#241D15"/>
<path d="M234.129 234.335C233.029 234.305 231.909 234.515 230.819 234.155L230.129 233.335C231.229 233.365 232.349 233.155 233.439 233.515L234.129 234.335Z" fill="#9A8872"/>
<path d="M166.129 243.335L165.629 244.335H164.629L164.129 243.335C164.769 243.245 165.549 243.465 166.129 243.335Z" fill="#241D15"/>
</svg>
