<svg width="308" height="574" viewBox="0 0 308 574" fill="none" xmlns="http://www.w3.org/2000/svg">
<path d="M83.8216 192.736C93.5686 186.609 107.15 179.534 123.569 175.303C141.882 170.586 157.048 171.136 167.556 172.627C182.663 174.011 193.626 178.446 201.205 182.613C207.692 186.19 213.88 190.765 219.959 186.706C224.578 183.621 227.112 177.157 228.722 171.579C242.694 123.337 217.861 106.863 196.001 89.2062C195.103 74.0634 177.904 74.9896 171.866 82.6158C137.257 90.1833 117.615 94.8009 99.3817 145.056C65.2291 151.082 42.4545 182.173 83.8166 192.725L83.8216 192.736ZM174.394 160.081C175.962 157.753 177.53 155.424 179.095 153.105C187.404 146.752 206.311 151.556 202.517 167.157C193.141 164.805 183.767 162.443 174.391 160.09L174.394 160.081ZM215.76 173.766C212.187 163.993 215.185 154.262 208.346 145.407C195.941 129.343 169.149 132.504 162.849 159.911L105.453 159.342C124.775 69.7224 240.784 82.8945 215.76 173.766ZM74.8817 169.117C76.947 167.392 81.5913 163.968 87.678 163.3C93.1457 162.708 97.1226 164.633 99.0506 165.797C98.1694 169.756 96.776 172.11 95.7185 173.386C89.6593 180.701 78.3337 176.388 71.9963 172.841L74.8841 169.108L74.8817 169.117Z" fill="#4F380D"/>
<path d="M215.76 173.766C212.187 163.993 215.185 154.262 208.346 145.407C195.941 129.343 169.142 132.502 162.849 159.911L105.453 159.342C124.775 69.7224 240.784 82.8945 215.76 173.766Z" fill="#3D8069"/>
<path d="M98.9586 157.641C101.399 163.227 101.414 169.741 98.6177 174.151C94.9346 179.97 88.0383 179.508 84.2816 179.251C77.0067 178.76 72.1961 174.375 70.1918 172.263C71.5585 170.435 72.9178 168.606 74.2845 166.778C77.0614 164.379 79.6238 162.774 81.5943 161.716C85.5278 159.598 89.0126 158.628 91.5095 158.152C94.5221 157.573 97.0706 157.535 98.9685 157.634L98.9586 157.641Z" fill="#3D8069"/>
</svg>
