<svg width="308" height="574" viewBox="0 0 308 574" fill="none" xmlns="http://www.w3.org/2000/svg">
<path d="M121.613 38.6764C122.85 37.7799 124.614 38.0571 125.546 39.1849C133.357 40.0597 143.482 46.6108 146.561 52.9331C149.64 59.2554 158.038 56.6527 165.055 54.145C179.135 54.7615 193.022 57.294 206.714 61.7546C213.456 59.764 220.175 56.9475 226.87 53.3172C248.594 51.3719 252.302 54.8609 250.658 81.2925C249.712 89.6707 248.765 98.049 247.809 106.426C249.249 127.471 248.567 144.15 247.641 155.651C246.842 165.572 245.58 175.137 240.482 178.065C236.971 180.093 233.077 178.275 232.115 177.708C196.147 156.732 152.343 156.805 112.802 165.439C97.0963 172.72 90.8335 168.286 88.7658 166.336C78.2143 156.422 82.0742 122.489 100.928 81.6619C100.66 82.6837 100.507 83.1799 100.468 83.1748C100.312 83.1301 102.159 74.0944 106.011 56.0557C108.272 46.3243 112.103 35.1128 121.613 38.6764Z" fill="#412B0D"/>
<path d="M235.675 165.164C231.332 162.76 227.038 159.981 222.544 157.951C193.129 144.64 150.968 144.139 119.703 150.772C112.315 152.335 104.933 154.795 97.6594 157.074C96.4377 156.596 96.0947 150.557 96.0925 148.874C96.0225 136.372 97.491 123.909 102.34 112.633C104 108.782 106.799 105.139 108.522 101.259C114.988 86.7273 114.309 70.228 119.125 54.8077C121.532 47.1097 126.156 52.83 129.668 55.9988C133.891 59.8247 143.356 72.2515 147.501 73.1191C151.059 73.8616 156.796 71.7166 160.53 71.5483C168.904 71.1693 179.943 71.9331 188.121 73.789C194.744 75.2963 201.465 80.5999 208.333 80.0751C210.574 79.9104 223.575 71.2113 227.633 69.5002C230.098 68.4553 236.307 65.4378 238.119 67.4409C241.187 70.8227 235.491 103.745 235.502 110.932C235.518 122.051 239.193 134.847 238.535 147.882C238.224 154.143 236.301 159.152 235.683 165.19L235.675 165.164Z" fill="#FBC5C6"/>
<path d="M199.594 132.196C197.374 128.47 198.26 118.192 199.479 113.866C200.501 110.264 204.971 103.803 208.403 105.831C217.951 110.37 217.673 135.529 207.095 136.95C204.9 137.243 200.778 134.167 199.594 132.196Z" fill="#412B0D"/>
<path d="M155.733 99.0958C160.892 99.2838 162.757 112.337 162.072 117.199C160.354 129.273 148.606 135.69 145.349 122.727C143.504 115.363 148.408 98.8245 155.733 99.0958Z" fill="#412B0D"/>
<path d="M189.374 130.225L190.094 133.364L187.671 138.849C184.293 141.704 172.111 139.822 171.388 134.152C170.313 125.758 185.556 124.277 189.384 130.226L189.374 130.225Z" fill="#412B0D"/>
</svg>
