<svg width="308" height="574" viewBox="0 0 308 574" fill="none" xmlns="http://www.w3.org/2000/svg">
<path d="M212.437 49.8465C204.358 49.1158 195.987 55.5177 188.561 52.0738C172.315 38.1989 147.845 31.4192 132.764 51.1545C128.796 56.0413 125.742 58.5341 119.143 58.9313C87.3018 58.6358 72.4964 105.822 96.3007 124.942C105.031 131.825 106.567 137.391 103.633 148.281C99.4196 163.319 116.729 166.01 127.107 163.334C149.268 159.288 178.003 163.205 200.36 167.628C205.877 168.05 213.488 170.564 218.619 168.018C229.068 159.721 219.768 140.15 226.447 129.58C228.663 125.955 232.585 123.346 235.936 120.745C266.109 97.2535 249.492 49.011 212.446 49.8481L212.437 49.8465ZM208.227 117.581L210.741 157.321C180.829 146.168 147.697 146.286 116.396 152.778L122.675 118.303L119.133 117.52C117.898 119.062 115.564 118.343 114.119 117.782C100.487 112.416 92.2117 102.078 99.478 85.5019C107.805 66.5111 124.336 76.9762 132.584 72.934C139.919 69.3373 138.106 54.5918 155.46 53.2102C168.607 52.1649 178.165 59.5224 185.861 70.0022C231.58 42.8973 265.755 104.712 208.233 117.592L208.227 117.581Z" fill="#40280B"/>
<path d="M114.119 117.782C100.487 112.416 92.2117 102.078 99.478 85.5019C107.805 66.5111 124.336 76.9762 132.584 72.934C139.919 69.3373 138.106 54.5918 155.46 53.2102C168.607 52.1649 178.165 59.5224 185.861 70.0022C231.58 42.8973 265.755 104.712 208.233 117.592L210.748 157.332C180.836 146.179 147.704 146.297 116.402 152.789L122.682 118.314L119.14 117.531L114.126 117.793L114.119 117.782Z" fill="#FDFDE9"/>
</svg>
