<svg width="308" height="574" viewBox="0 0 308 574" fill="none" xmlns="http://www.w3.org/2000/svg">
<path d="M162.923 50.8383L162.794 52.0255C161.504 51.7887 159.803 51.5316 158.517 51.5621L158.646 50.375L162.923 50.8383Z" fill="#D8D3CF"/>
<path d="M233.959 134.299C196.804 140.452 159.504 131.377 127.231 111.83L127.379 109.055C133.297 96.6788 147.243 60.1799 162.822 64.3182C173.293 72.5378 181.638 77.409 195.137 77.0516C202.432 76.8592 209.741 71.4151 217.199 73.6304C230.249 77.5191 233.48 121.363 233.97 134.3L233.959 134.299Z" fill="#804414"/>
<path d="M158.517 51.5621C159.803 51.5316 161.504 51.7887 162.794 52.0255C172.056 53.7447 177.513 62.8888 187.947 64.4317C198.381 65.9745 207.224 59.5198 215.635 60.2612C240.362 62.4546 244.34 112.142 244.916 133.12C260.648 129.413 284.817 118.893 289.182 143.933L288.022 154.641C264.848 211.08 190.582 207.815 146.286 194.075C125.646 187.677 46.788 155.343 67.8565 120.744L74.4537 114.847C87.0207 108.141 100.361 115.373 112.131 119.936C117.384 100.354 137.239 51.9623 158.508 51.5489L158.517 51.5621ZM233.959 134.299C233.47 121.349 230.238 77.5178 217.188 73.6291C209.73 71.4138 202.422 76.8459 195.126 77.0503C181.626 77.4197 173.281 72.5485 162.811 64.3169C147.245 60.1678 133.288 96.6655 127.368 109.054L127.22 111.828C159.494 131.363 196.804 140.452 233.949 134.297L233.959 134.299ZM247.099 144.384C241.703 183.557 176.313 167.604 153.956 159.298C127.106 149.316 109.475 125.386 81.6176 124.795C59.0295 138.192 107.792 164.003 117.9 169.053C162.308 191.2 249.725 209.672 277.827 149.29L277.227 143.39C273.935 135.839 253.41 143.539 247.098 144.396L247.099 144.384Z" fill="#3C260C"/>
<path d="M247.099 144.384C253.411 143.527 273.947 135.828 277.228 143.378L277.828 149.278C249.726 209.66 162.299 191.187 117.902 169.041C107.792 164.003 59.0295 138.193 81.6188 124.783C109.476 125.375 127.106 149.316 153.958 159.286C176.315 167.592 241.705 183.533 247.1 144.372L247.099 144.384Z" fill="#804414"/>
</svg>
