<svg width="308" height="574" viewBox="0 0 308 574" fill="none" xmlns="http://www.w3.org/2000/svg">
<path d="M144.452 178.113C144.044 178.033 143.609 178.058 143.201 177.978L143.37 176.802C143.774 176.905 144.213 176.857 144.621 176.936L144.452 178.113Z" fill="#483018"/>
<path d="M131.891 106.299C142.356 101.631 153.459 100.041 164.379 96.6284C171.026 90.1528 183.29 52.5005 188.34 49.711C197.047 44.9019 232.475 55.6471 238.455 63.3719C247.394 79.2491 226.869 94.3492 223.054 109.334C233.617 118.769 241.059 129.589 244.461 143.151C246.36 150.724 245.601 158.489 248.432 165.493C260.453 170.081 273.9 175.085 283.444 183.479C287.268 186.84 290.532 190.917 290.514 196.182C287.806 199.295 288.642 203.206 286.462 207.152C280.065 218.706 254.494 224.08 241.754 226.187C206.09 232.053 169.35 228.058 134.309 222.406C133.9 222.338 133.467 222.339 133.058 222.271L109.82 215.642C91.5826 209.491 73.5019 202.425 58.8624 190.414C58.4785 189.99 58.1213 189.558 57.7801 189.103C50.5434 178.27 52.6996 168.911 62.0002 159.699C62.4704 159.344 62.9282 158.987 63.4201 158.657L95.9086 148.987C100.973 139.284 106.341 129.673 113.287 121.02C119.2 113.642 122.833 110.366 131.916 106.302L131.891 106.299ZM227.811 66.4561L203.394 59.6288C209.688 65.7032 216.613 68.0835 225.611 68.5963C228.042 68.7382 227.553 68.9603 227.798 66.4547L227.811 66.4561ZM172.434 107.072C168.979 111.227 158.402 110.306 152.749 111.538C138.503 114.665 127.188 124.723 117.661 134.628C114.988 137.41 109.072 142.34 110.969 145.852C108.912 150.002 105.109 158.085 107.354 162.183C108.361 164.023 113.669 167.579 115.968 167.85L116.857 166.787C118.078 167.575 119.067 168.828 120.273 169.543C129.237 174.889 132.567 175.856 143.201 177.978L143.805 179.082C150.894 179.521 158.355 184.192 165.553 181.574C166.801 181.732 168.057 181.831 169.306 181.977C169.957 185.236 171.686 184.251 174.023 184.347C190.031 185.051 207.632 187.134 223.471 183.354C237.85 179.918 236.599 177.395 236.15 165.034C235.87 157.42 233.993 150.853 233.252 143.44L231.856 144.496C231.118 144.501 226.834 133.722 226.037 131.928C226.008 131.865 227.106 131.47 226.792 130.827C223.24 123.53 215.252 117.931 208.219 113.735C208.18 107.366 222.228 91.5456 224.803 83.9637C225.484 81.9589 224.474 82.0893 224.358 81.5751C224.263 81.1708 224.668 80.653 224.527 80.3989L222.897 79.0057C217.466 79.8434 211.691 74.9354 207.179 77.3408C202.338 75.6623 198.533 72.5185 194.246 70.6128C193.088 70.0943 192.001 70.9448 191.589 70.8887C191.527 70.882 190.882 68.4718 190.425 70.2381L172.425 107.047L172.434 107.072ZM250.899 179.995L249.997 177.521C248.677 180.699 247.308 185.102 244.356 187.257C238.532 191.54 217.141 194.796 209.382 195.3C179.678 197.256 149.559 192.013 121.943 182.513C120.176 181.905 117.52 179.96 115.916 182.2C106.584 178.176 96.7388 173.034 92.2729 164.05C85.3788 163.489 79.3549 166.866 73.3068 169.262C73.159 169.318 72.9466 167.611 70.7602 169.478C65.5914 173.891 67.1103 178.091 71.4499 182.2C74.6142 185.203 81.3165 189.315 85.2821 192.046C120.323 216.198 217.773 227.48 258.957 211.136C261.799 210.008 262.649 208.953 264.704 207.74C270.923 204.061 273.104 203.734 275.15 196.92C275.2 196.746 276.661 196.389 276.479 195.45C276.298 193.878 274.701 193.671 274.405 193.257C274.101 192.806 273.681 192.367 273.323 191.946C269.88 187.874 266.51 184.884 261.452 182.239C259.75 181.352 257.52 179.273 255.737 181.697C254.196 181.018 252.516 180.503 250.901 179.983L250.899 179.995Z" fill="#483018"/>
<path d="M220.951 229.326L219.531 230.368C213.784 230.67 208.412 229.77 203.097 229.797L200.426 230.704C177.864 230.43 156.185 227.193 134.115 223.579L134.284 222.403C169.337 228.056 206.064 232.05 241.729 226.184C254.468 224.089 280.04 218.704 286.437 207.149C288.629 203.205 287.791 199.305 290.489 196.179C290.454 207.748 282.327 215.068 271.737 219.723C254.3 227.38 239.412 228.169 220.94 229.313L220.951 229.326Z" fill="#241D15"/>
<path d="M131.891 106.299C141.118 100.961 152.8 96.7575 163.678 96.4693L185.81 50.7885C188.259 47.7077 191.853 46.4815 195.867 46.3992C206.838 46.1687 232.738 54.4332 239.204 62.8431C240.681 64.7693 243.386 71.33 243.328 73.5929L226.532 104.226C222.684 111.563 230.813 114.586 234.27 119.09C243.239 130.778 250.227 149.539 248.155 164.15C261.334 167.13 274.528 174.077 283.453 183.504C273.91 175.11 260.462 170.106 248.442 165.518C245.624 158.503 246.381 150.75 244.47 143.176C241.068 129.614 233.626 118.794 223.064 109.359C226.88 94.3622 247.404 79.2738 238.464 63.3966C232.484 55.6718 197.056 44.9266 188.349 49.7357C183.299 52.5252 171.035 90.1775 164.388 96.6531C153.468 100.066 142.365 101.656 131.9 106.324L131.891 106.299Z" fill="#241D15"/>
<path d="M133.033 222.269C131.804 222.065 130.51 222.057 129.279 221.865C127.64 221.606 125.909 221.623 124.275 221.328L123.587 220.275L120.69 219.748C98.9245 214.723 73.5309 206.56 58.8373 190.411C73.4769 202.422 91.5575 209.488 109.795 215.64L133.033 222.269Z" fill="#241D15"/>
<path d="M57.7553 189.1C57.1792 188.334 55.8878 187.861 55.0434 186.396C48.4065 175.102 51.4474 167.546 61.9754 159.696C52.6748 168.908 50.5186 178.267 57.7553 189.1Z" fill="#241D15"/>
<path d="M63.3951 158.655C72.9462 152.301 83.5692 149.453 95.1298 148.748C99.0682 138.745 104.847 128.223 113.262 121.018C106.327 129.684 100.948 139.282 95.8836 148.985L63.3951 158.655Z" fill="#241D15"/>
<path d="M124.275 221.328C121.563 220.833 120.899 219.795 120.69 219.748L123.587 220.275L124.275 221.328Z" fill="#56402F"/>
<path d="M203.097 229.797C202.958 229.794 202.848 230.737 200.426 230.704L203.097 229.797Z" fill="#56402F"/>
<path d="M220.951 229.326L219.531 230.368C220.645 230.308 220.862 229.329 220.951 229.326Z" fill="#9A8872"/>
<path d="M207.188 77.3657C213.034 79.3911 218.285 79.9792 224.536 80.4238C224.677 80.6779 224.272 81.1957 224.367 81.6L206.195 112.348C206.394 115.474 215.113 118.632 217.381 120.978L226.035 131.94C226.832 133.733 231.117 144.512 231.854 144.508C233.58 155.848 235.866 167.631 233.052 179.092C212.491 184.969 190.287 184.506 169.306 181.977C168.057 181.831 166.801 181.732 165.553 181.574C159.641 180.807 154.023 179.582 148.205 178.516L147.518 177.462C146.618 177.007 145.571 177.134 144.621 176.936C144.213 176.857 143.774 176.905 143.37 176.802C135.502 174.882 127.98 171.876 120.273 169.543C119.067 168.828 118.078 167.575 116.857 166.787C114.137 165.026 110.421 163.48 107.354 162.183C105.109 158.085 108.912 150.002 110.969 145.852C112.899 141.963 116.217 138.76 117.661 134.628C127.188 124.723 138.503 114.665 152.749 111.538C158.403 110.294 168.979 111.227 172.434 107.072C174.786 104.232 178.683 97.6994 180.674 94.2708C184.766 87.2699 189.079 78.4655 191.598 70.9136C192.011 70.9579 193.097 70.1192 194.255 70.6377C198.555 72.5448 202.347 75.6872 207.188 77.3657Z" fill="#F4BD34"/>
<path d="M255.735 181.708C262.322 184.589 268.093 186.869 273.321 191.957C273.68 192.378 274.1 192.817 274.403 193.268L275.148 196.931C273.103 203.745 270.922 204.072 264.702 207.751C252.018 212.742 238 215.166 224.382 216.222C187.189 219.105 136.019 212.617 101.71 199.472C96.3629 197.428 91.0593 193.574 85.2805 192.057C81.3148 189.326 74.6126 185.214 71.4482 182.211C70.1671 178.037 67.7063 171.371 73.3051 169.273C79.3532 166.878 85.3788 163.488 92.2713 164.062C96.7371 173.045 106.582 178.187 115.914 182.211C143.933 194.298 190.446 200.478 221.212 195.818C232.641 194.084 245.868 190.883 250.899 179.995C252.515 180.514 254.194 181.029 255.735 181.708Z" fill="#F4BD34"/>
<path d="M85.2805 192.057C91.0593 193.574 96.3629 197.428 101.71 199.472C136.021 212.605 187.176 219.104 224.382 216.222C238 215.166 252.018 212.742 264.702 207.751C262.648 208.964 261.797 210.02 258.955 211.148C217.773 227.48 120.323 216.197 85.2805 192.057Z" fill="#241D15"/>
<path d="M250.899 179.995C245.868 190.883 232.652 194.097 221.212 195.818C190.448 200.466 143.933 194.298 115.914 182.211C117.519 179.971 120.186 181.919 121.942 182.525C149.557 192.025 179.676 197.268 209.381 195.312C217.141 194.796 238.532 191.541 244.354 187.269C247.308 185.103 248.675 180.711 249.995 177.533L250.898 180.007L250.899 179.995Z" fill="#241D15"/>
<path d="M169.306 181.977C190.285 184.517 212.491 184.969 233.052 179.092C235.866 167.631 233.58 155.848 231.854 144.508L233.251 143.452C233.991 150.864 235.869 157.432 236.148 165.046C236.596 177.419 237.847 179.942 223.47 183.365C207.643 187.147 190.031 185.052 174.021 184.359C171.686 184.251 169.957 185.236 169.305 181.989L169.306 181.977Z" fill="#241D15"/>
<path d="M227.811 66.4561C227.566 68.9616 228.055 68.7391 225.623 68.5973C216.626 68.0844 209.7 65.7042 203.407 59.6298L227.823 66.457L227.811 66.4561Z" fill="#7B4928"/>
<path d="M143.37 176.802L143.201 177.978C132.567 175.856 129.237 174.889 120.273 169.543C127.98 171.876 135.502 174.882 143.37 176.802Z" fill="#241D15"/>
<path d="M148.205 178.516C154.023 179.582 159.641 180.807 165.553 181.574C158.355 184.192 150.893 179.533 143.805 179.082L143.201 177.978C143.609 178.058 144.044 178.033 144.452 178.113C145.675 178.351 146.98 178.288 148.205 178.516Z" fill="#241D15"/>
<path d="M191.598 70.9136C189.092 78.4669 184.766 87.2699 180.674 94.2708C178.672 97.6863 174.786 104.232 172.434 107.072L190.434 70.2627C190.893 68.4846 191.538 70.8951 191.598 70.9136Z" fill="#241D15"/>
<path d="M224.536 80.4238C218.285 79.9792 213.034 79.3911 207.188 77.3657C211.701 74.9603 217.488 79.8695 222.906 79.0304L224.536 80.4238Z" fill="#241D15"/>
<path d="M224.367 81.6C224.485 82.1024 225.495 81.9719 224.812 83.9885C222.237 91.5704 208.188 107.402 208.228 113.76C215.262 117.955 223.249 123.555 226.801 130.852C227.115 131.494 226.017 131.89 226.046 131.953L217.392 120.991C215.137 118.647 206.405 115.487 206.206 112.361L224.378 81.613L224.367 81.6Z" fill="#241D15"/>
<path d="M73.3051 169.273C67.7063 171.371 70.1671 178.037 71.4482 182.211C67.1086 178.102 65.5771 173.901 70.7585 169.489C72.9448 167.622 73.1698 169.33 73.3051 169.273Z" fill="#241D15"/>
<path d="M273.321 191.957C268.093 186.869 262.322 184.589 255.735 181.708C257.517 179.296 259.761 181.364 261.451 182.25C266.509 184.896 269.88 187.873 273.321 191.957Z" fill="#241D15"/>
<path d="M116.857 166.787L115.968 167.85C113.669 167.579 108.361 164.023 107.354 162.183C110.421 163.48 114.137 165.026 116.857 166.787Z" fill="#241D15"/>
<path d="M117.661 134.628C114.988 137.41 109.072 142.34 110.969 145.852C112.899 141.963 116.217 138.76 117.661 134.628Z" fill="#241D15"/>
<path d="M275.148 196.931L274.403 193.268C274.698 193.694 276.296 193.889 276.477 195.461C276.674 196.39 275.198 196.757 275.148 196.931Z" fill="#241D15"/>
<path d="M148.205 178.516C146.98 178.288 145.675 178.351 144.452 178.113L144.621 176.936C145.571 177.134 146.618 177.007 147.518 177.462L148.205 178.516Z" fill="#7B4928"/>
</svg>
