<svg width="308" height="574" viewBox="0 0 308 574" fill="none" xmlns="http://www.w3.org/2000/svg">
<path d="M103.646 155.346C108.816 159.136 115.559 163.401 123.896 167.121C130.715 170.173 137.048 172.168 142.438 173.494C165.552 200.124 197.88 217.201 232.463 222.503C274.51 235.132 301.979 206.69 254.122 182.15C259.087 147.653 242.064 117.041 216.084 102.969C216.799 93.5994 248.085 124.352 262.228 108.425C269.368 86.5603 238.038 87.1297 224.77 82.1384C223.948 73.4715 214.248 67.5179 207.087 67.6407C194.08 73.8857 185.554 62.5789 173.265 57.9264C158.627 51.3154 146.111 60.1469 158.338 74.4016C165.139 82.3752 184.562 83.8198 190.675 91.4396C186.153 90.6218 157.237 85.8882 131.625 105.84C108.05 124.209 104.274 150.267 103.64 155.324L103.646 155.346ZM252.257 101.023C252.531 101.928 252.64 103.01 252.424 104.305C248.562 103.383 225.238 96.1628 225.842 92.5254C239.747 91.9064 250.429 95.0695 252.257 101.023ZM188.075 79.4479C184.406 77.7389 162.414 70.9292 166.041 66.019C175.909 67.3728 183.865 74.1659 192.303 79.1406C192.043 81.5541 189.292 79.9133 188.077 79.4381L188.075 79.4479ZM267.703 204.014C269.725 206.328 271.506 209.418 270.11 212.841C231.332 216.731 187.996 203.241 160.304 175.503C186.583 172.629 249.143 184.87 267.703 204.014ZM230.324 126.021C241.769 139.664 247.532 161.92 244.681 180.146C242.571 180.039 235.636 176.56 233.714 174.793C233.131 174.381 231.363 175.061 231.523 173.435C232.027 170.226 233.573 166.642 233.871 163.529C233.883 163.43 232.923 163.28 233.022 161.917C234.215 157.369 233.842 152.182 233.617 147.553C233.35 144.351 229.313 126.845 230.326 126.011L230.324 126.021ZM200.572 80.3512C204.352 75.4456 217.593 79.3942 216.017 87.4255C211.477 86.6856 207.283 84.6709 203.036 82.9724C201.438 82.3368 199.34 83.4228 200.563 80.349L200.572 80.3512ZM193.236 106.891C221.011 102.741 228.828 150.604 222.003 172.839C206.019 168.637 172.533 163.824 155.966 162.505C159.418 143.853 175.028 110.191 193.236 106.891ZM171.363 101.125C190.296 98.8645 162.329 115.276 158.063 129.583C145.643 164.186 144.326 166.961 113.706 149.909C126.421 121.942 142.587 101.206 171.365 101.115L171.363 101.125Z" fill="#4F380D"/>
<path d="M156.018 162.024C162.127 131.23 176.388 108.414 193.324 106.327C198.913 105.642 203.415 107.37 204.206 107.694C218.463 113.374 226.221 134.234 224.328 160.492C223.97 160.5 224.403 164.185 223.261 168.165C222.736 169.998 221.744 172.352 221.744 172.352C205.836 168.174 172.511 163.359 156.018 162.024Z" fill="#F7CF24"/>
<path d="M171.288 100.06C173.046 100.404 175.231 100.969 176.988 101.313C177.426 101.679 177.662 101.111 177.822 101.505C179.712 106.279 166.633 116.058 165.516 116.852C171.302 111.829 172.679 110.78 172.751 110.858C172.918 111.049 166.092 116.27 160.124 125.343C159.273 126.636 158.09 130.771 156.278 134.537C154.424 139.571 154.36 139.739 154.36 139.739C154.36 139.739 147.951 155.21 145.286 162.626C144.311 162.371 141.608 161.645 140.607 161.373C139.823 161.161 137.43 160.527 137.063 160.422C131.082 158.807 125.155 156.133 125.155 156.133C121.983 154.697 118 152.645 113.634 149.688C117.96 138.9 124.938 126.06 136.078 114.977C143.373 107.721 148.698 104.96 152.08 103.526C159.869 100.221 166.95 99.8955 171.281 100.048L171.288 100.06Z" fill="#289DCA"/>
<path d="M219.826 180.362C225.287 181.335 246.605 185.372 262.312 198.737C265.143 201.145 272.172 207.242 270.642 211.558C270.437 212.137 269.642 213.934 263.818 215.823C255.243 218.606 247.777 217.694 246.919 217.588C229.569 215.298 212.853 208.577 203.695 204.678C193.706 200.422 188.716 198.296 183.642 195.38C169.637 187.314 159.909 177.926 153.806 171.109C178.891 173.676 201.021 176.997 219.814 180.37L219.826 180.362Z" fill="#289DCA"/>
<path d="M245.339 159.864C245.821 167.026 246.305 174.178 246.786 181.34C243.828 180.329 240.719 179.17 237.505 177.843C234.975 176.798 232.569 175.708 230.293 174.629C231.526 169.731 232.911 162.394 232.842 153.491C232.7 135.56 226.727 123.867 228.621 123.042C230.402 122.262 237.243 131.928 241.213 142.43C243.639 148.86 244.95 154.212 245.339 159.864Z" fill="#289DCA"/>
<path d="M192.29 79.1481C192.031 81.5615 189.28 79.9208 188.065 79.4456C184.378 77.7223 162.413 70.9291 166.031 66.0167C175.899 67.3705 183.855 74.1636 192.293 79.1383L192.29 79.1481Z" fill="#289DCA"/>
<path d="M244.936 94.592C245.438 94.7284 250.954 96.3092 252.25 101.011C252.577 102.216 252.562 103.351 252.416 104.293C248.555 103.371 225.231 96.1508 225.834 92.5133C228.199 92.0944 231.516 91.7721 235.434 92.1837C239.442 92.6057 242.687 93.6626 244.936 94.592Z" fill="#26A8D9"/>
<path d="M217.106 89.0212C212.478 87.1938 208.651 86.1257 206.046 85.4938C201.877 84.4804 199.242 84.2007 198.852 82.7354C198.422 81.1276 200.923 79.0979 202.522 77.9482C206.489 76.1029 211.101 76.7977 214.127 79.6512C218.029 83.333 217.176 88.6269 217.104 89.0309L217.106 89.0212Z" fill="#DE5C32"/>
<path d="M233.868 163.539C233.881 163.439 232.92 163.289 233.019 161.927L233.868 163.539Z" fill="#289DCA"/>
</svg>
