<svg width="308" height="574" viewBox="0 0 308 574" fill="none" xmlns="http://www.w3.org/2000/svg">
<g clip-path="url(#clip0_20_168)">
<path d="M153.457 73.7296C171.95 70.7905 191.235 72.4041 208.789 80.4706C229.575 90.0075 227.686 95.2717 218.669 117.99C217.638 118.853 201.634 114.954 198.356 114.661C167.702 111.948 131.854 120.01 104.638 136.173C98.0093 140.11 99.7219 144.733 92.6365 136.649C77.3329 119.201 84.4489 114.397 97.9789 102.573C113.986 88.5804 133.357 76.9251 153.446 73.7301L153.457 73.7296Z" fill="#FEFDFE"/>
<path d="M214.713 130.62C216.906 133.417 215.178 139.535 215.648 143.026C178.209 136.559 139.714 143.346 105.226 160.299C105.656 155.262 101.774 151.56 105.226 147.638C106.675 145.988 123.546 138.119 126.741 136.831C145.921 129.089 170.009 124.467 190.436 125.093C194.686 125.227 212.348 127.594 214.713 130.62Z" fill="#5084AD"/>
<path d="M209.14 66.3684C168.339 48.8072 109.075 65.1767 80.0784 102.774C67.7864 118.708 72.9105 127.207 83.3161 142.118C88.271 149.214 92.2749 149.533 94.7002 155.758C96.634 160.736 96.5297 165.681 96.1604 169.022C100.359 168.781 106.661 168.193 114.187 166.549C124.496 164.285 126.611 162.331 136.493 159.248C157.442 152.709 177.663 152.235 192.773 151.878C193.444 151.864 193.955 151.848 193.955 151.848C204.691 151.654 213.368 152.657 218.526 153.423C220.66 145.493 222.286 139.067 223.396 134.599C224.487 130.185 224.856 128.473 225.836 125.801C228.386 118.895 230.539 117.456 232.615 112.29C236.003 103.885 242.142 80.5732 209.151 66.3678L209.14 66.3684ZM215.648 143.026C178.209 136.559 139.714 143.346 105.225 160.299C105.655 155.262 101.773 151.56 105.225 147.638C106.674 145.988 123.545 138.119 126.74 136.831C145.921 129.089 170.008 124.467 190.436 125.093C194.686 125.227 212.347 127.594 214.712 130.62C216.905 133.417 215.178 139.535 215.648 143.026ZM218.669 117.99C217.637 118.853 201.634 114.954 198.356 114.662C167.702 111.948 131.854 120.01 104.637 136.173C98.0091 140.11 99.7217 144.734 92.6363 136.649C77.3327 119.201 84.4487 114.398 97.9788 102.573C113.986 88.5804 133.357 76.9252 153.446 73.7302C171.939 70.7911 191.224 72.4047 208.778 80.4712C229.564 90.0081 227.675 95.2723 218.658 117.991L218.669 117.99Z" fill="#4F380D"/>
</g>
<defs>
<clipPath id="clip0_20_168">
<rect width="163.416" height="105.723" fill="white" transform="translate(70 64.521) rotate(-2.98894)"/>
</clipPath>
</defs>
</svg>
