<svg width="308" height="574" viewBox="0 0 308 574" fill="none" xmlns="http://www.w3.org/2000/svg">
<g clip-path="url(#clip0_1_341)">
<path d="M201.735 46.8074C206.531 46.3714 208.176 51.2031 209.436 54.6065C213.872 66.5883 217.38 84.2161 220.481 96.9928C225.409 117.259 229.582 137.914 233.01 158.391C214.677 165.359 188.711 160.956 169.602 156.254C164.445 154.982 133.178 143.307 132.712 139.653L193.613 53.0719C195.698 51.3437 198.852 47.0705 201.72 46.8168L201.735 46.8074Z" fill="#3478A3"/>
<path d="M60.808 152.445C73.958 132.749 101.529 131.778 124.06 129.155C138.391 110.34 150.713 90.1432 164.702 71.1025C170.92 62.6349 177.964 52.1472 185.026 44.5257C211.429 16.07 219.455 46.2973 226.019 68.1168C234.095 94.9457 238.825 122.572 244.666 149.813C264.955 161.489 303.538 176.127 293.145 204.104C283.203 230.894 220.133 229.006 195.303 226.683L193.178 227.41L157.575 221.162L136.677 214.986C107.992 203.824 66.9467 192.705 59.4081 160.422L60.81 152.434L60.808 152.445ZM201.735 46.8074C198.866 47.0611 195.712 51.3343 193.628 53.0625L132.727 139.643C133.192 143.298 164.459 154.972 169.617 156.244C188.725 160.947 214.692 165.35 233.024 158.381C229.594 137.916 225.421 117.262 220.495 96.9834C217.382 84.2046 213.886 66.579 209.45 54.5972C208.19 51.1937 206.543 46.3736 201.749 46.7981L201.735 46.8074ZM248.359 165.379C253.042 185.011 251.563 191.554 230.365 195.713C194.822 202.677 147.078 191.672 116.826 172.261C98.9901 160.814 105.179 157.44 113.301 141.676C102.86 143.476 72.4576 147.604 72.2517 160.664C74.4394 171.104 85.769 179.031 95.0359 184.36C137.471 208.796 211.006 222.376 259.055 212.507C303.856 203.31 274.667 175.805 248.359 165.379Z" fill="#412B0D"/>
<path d="M248.359 165.379C274.657 175.791 303.843 203.308 259.055 212.507C211.008 222.364 137.483 208.798 95.0359 184.36C85.771 179.02 74.4414 171.093 72.2517 160.664C72.4576 147.604 102.872 143.478 113.301 141.676C105.179 157.44 98.9901 160.814 116.826 172.261C147.078 191.672 194.822 202.677 230.365 195.713C251.575 191.556 253.052 185.024 248.359 165.379Z" fill="#3478A3"/>
</g>
<defs>
<clipPath id="clip0_1_341">
<rect width="308" height="574" fill="white"/>
</clipPath>
</defs>
</svg>
